<svg width="100" height="100" viewBox="0 0 100 100" fill="none" xmlns="http://www.w3.org/2000/svg">
<g clip-path="url(#clip0_1_91)">
<rect width="98.1586" height="99.11" transform="translate(0.920685 0.118347)" fill="white"/>
<path fill-rule="evenodd" clip-rule="evenodd" d="M50.0041 6.11835C28.1241 6.11835 9.61412 22.3683 6.80412 44.0683C6.68412 44.9983 7.33411 45.8483 8.26411 45.9683C9.19411 46.0883 10.0441 45.4382 10.1641 44.5082C12.7641 24.4682 29.7941 9.50824 50.0041 9.50824C68.9141 9.50824 85.0441 22.6083 89.1641 40.7083L82.5141 35.9083C81.7541 35.3583 80.7041 35.5283 80.1541 36.2883C79.6041 37.0383 79.7641 38.0983 80.5141 38.6583C80.5141 38.6583 80.5141 38.6583 80.5241 38.6583L91.0241 46.2383C91.7841 46.7883 92.8441 46.6183 93.3841 45.8583C93.4541 45.7683 93.5041 45.6683 93.5541 45.5583L98.9241 33.7883C99.3141 32.9383 98.9441 31.9383 98.0941 31.5383C97.6841 31.3483 97.2241 31.3383 96.8041 31.4883C96.3841 31.6483 96.0441 31.9682 95.8541 32.3782L92.4341 39.8683C87.9241 20.3083 70.4341 6.11835 49.9941 6.11835H50.0041ZM8.04411 52.7883C7.87411 52.7883 7.71412 52.7983 7.55412 52.8383C7.06412 52.9683 6.6541 53.3083 6.4441 53.7783L1.07411 65.5583C0.684108 66.4083 1.0641 67.4083 1.9141 67.7983C2.7641 68.1783 3.76413 67.7983 4.15413 66.9583L7.57411 59.4783C12.0841 79.0383 29.5741 93.2283 50.0141 93.2283C71.8941 93.2283 90.4041 76.9783 93.2141 55.2783C93.3341 54.3483 92.6841 53.4982 91.7541 53.3782C90.8241 53.2582 89.9741 53.9083 89.8541 54.8383C87.2541 74.8783 70.2241 89.8483 50.0141 89.8483C31.1041 89.8483 14.9741 76.7382 10.8541 58.6282L17.5041 63.4283C18.2641 63.9783 19.3141 63.8083 19.8641 63.0583C20.4141 62.2983 20.2441 61.2483 19.4841 60.6983L8.99412 53.0983C8.72412 52.8983 8.39413 52.7883 8.06413 52.7783L8.04411 52.7883Z" fill="#F4BA34"/>
<path d="M49.0641 42.6677C48.8741 42.6677 48.5941 42.7076 48.4041 42.8976C48.1341 43.1676 48.1541 43.5877 48.1941 43.8177C48.2741 44.2977 48.5541 44.8077 48.9741 45.2177C49.4741 45.7177 50.0941 46.0176 50.6441 46.0176C50.8341 46.0176 51.1141 45.9777 51.3041 45.7877C51.7141 45.3777 51.5941 44.3177 50.7441 43.4577C50.2441 42.9577 49.6241 42.6577 49.0741 42.6577L49.0641 42.6677Z" fill="#F4BA34" stroke="#F4BA34" stroke-miterlimit="10"/>
<path d="M61.9441 35.8277C61.7541 35.8277 61.4741 35.8677 61.2841 36.0577C60.8741 36.4677 60.9941 37.5276 61.8441 38.3876C62.3441 38.8876 62.9641 39.1877 63.5141 39.1877C63.7041 39.1877 63.9841 39.1477 64.1741 38.9577C64.5841 38.5477 64.4641 37.4876 63.6141 36.6276C63.1141 36.1276 62.4941 35.8277 61.9441 35.8277Z" fill="#F4BA34" stroke="#F4BA34" stroke-miterlimit="10"/>
<path d="M54.8041 48.4177C54.6141 48.4177 54.3341 48.4576 54.1441 48.6476C53.8741 48.9176 53.8941 49.3377 53.9341 49.5677C54.0141 50.0477 54.2941 50.5577 54.7141 50.9677C55.2141 51.4677 55.8341 51.7676 56.3841 51.7676C56.5741 51.7676 56.8541 51.7277 57.0441 51.5377C57.3141 51.2677 57.2941 50.8477 57.2541 50.6177C57.1741 50.1377 56.8941 49.6277 56.4741 49.2177C55.9741 48.7177 55.3541 48.4177 54.8041 48.4177Z" fill="#F4BA34" stroke="#F4BA34" stroke-miterlimit="10"/>
<path d="M59.164 43.0076C58.974 43.0076 58.694 43.0477 58.504 43.2377C58.094 43.6477 58.2141 44.7077 59.0641 45.5677C59.5641 46.0677 60.1841 46.3677 60.7341 46.3677C60.9241 46.3677 61.2041 46.3276 61.3941 46.1376C61.8041 45.7276 61.6841 44.6677 60.8341 43.8077C60.3341 43.3077 59.714 43.0076 59.164 43.0076Z" fill="#F4BA34" stroke="#F4BA34" stroke-miterlimit="10"/>
<path d="M47.9341 49.8277C47.7441 49.8277 47.4641 49.8677 47.2741 50.0577C46.8641 50.4677 46.9841 51.5276 47.8341 52.3876C48.3341 52.8876 48.9541 53.1877 49.5041 53.1877C49.6941 53.1877 49.9741 53.1477 50.1641 52.9577C50.5741 52.5477 50.4541 51.4876 49.6041 50.6276C49.1041 50.1276 48.4841 49.8277 47.9341 49.8277Z" fill="#F4BA34" stroke="#F4BA34" stroke-miterlimit="10"/>
<path d="M56.0341 41.6577C56.2241 41.6577 56.5041 41.6177 56.6941 41.4277C57.1041 41.0177 56.9841 39.9577 56.1341 39.0977C55.6341 38.5977 55.0141 38.2977 54.4641 38.2977C54.2741 38.2977 53.9941 38.3376 53.8041 38.5276C53.5341 38.7976 53.5541 39.2177 53.5941 39.4477C53.6741 39.9277 53.9541 40.4377 54.3741 40.8477C54.8741 41.3477 55.4941 41.6476 56.0441 41.6476L56.0341 41.6577Z" fill="#F4BA34" stroke="#F4BA34" stroke-miterlimit="10"/>
<path d="M65.6341 27.6977H65.5941C63.6141 27.6977 61.3241 28.2477 58.7841 29.3077C55.0741 30.8577 50.9141 33.4877 46.7641 36.9177L45.9041 37.6376L45.5841 36.5677C45.5341 36.3877 45.4541 36.2177 45.3641 36.0477C45.0541 35.5077 44.5541 35.1277 43.9441 34.9577C43.7541 34.9077 43.5541 34.8876 43.3541 34.8876C42.7541 34.8876 42.1641 35.1276 41.7341 35.5276L41.5141 35.7377C41.4141 35.8377 41.3041 35.9377 41.1941 36.0477C34.9141 42.3277 30.1841 49.3177 27.8941 55.7277C25.5041 62.4477 25.9841 67.9377 29.2441 71.1977C31.1341 73.0877 33.7441 74.0477 36.9841 74.0477C39.3141 74.0477 41.9241 73.5477 44.7241 72.5377C51.1441 70.2477 58.1441 65.5276 64.4241 59.2476C64.6141 59.0576 64.8041 58.8677 64.9741 58.6777L65.2641 58.3776C66.1341 57.4676 66.1141 56.0077 65.2241 55.1177L65.1741 55.0677C64.9141 54.8277 64.5741 54.6276 64.2141 54.5276L63.1241 54.2277L63.8341 53.3577C67.1741 49.2577 69.7341 45.1677 71.2241 41.5377C72.2541 39.0277 72.7741 36.7577 72.7741 34.8077C72.7741 32.6277 72.1241 30.8777 70.8541 29.6077C69.5841 28.3377 67.8241 27.6877 65.6441 27.6877L65.6341 27.6977ZM63.5841 56.8177L61.4841 58.8177C55.8041 64.2277 49.5641 68.3177 43.9241 70.3377C41.3641 71.2577 39.0341 71.7077 36.9941 71.7077C34.4041 71.7077 32.3641 70.9777 30.9241 69.5477C28.3441 66.9677 28.0641 62.3477 30.1341 56.5477C32.0941 51.0377 36.0641 44.9377 41.2941 39.3577L43.3141 37.2077L42.5541 40.0477L36.6141 62.2177C36.5341 62.5177 36.5741 62.8477 36.7341 63.1177C36.8941 63.3877 37.1441 63.5877 37.4541 63.6677C37.5541 63.6977 37.6541 63.7077 37.7641 63.7077C37.8741 63.7077 37.9741 63.6977 38.0641 63.6677L59.4341 57.9377H59.4941C59.4941 57.9377 59.5941 57.8976 59.6241 57.8976H59.6641L59.6941 57.8876L60.8141 57.5777L63.6141 56.8277H63.6041L63.5841 56.8177ZM69.0241 40.6476C67.1641 45.1776 63.5241 50.4677 58.7741 55.5377L58.6241 55.6977L58.4141 55.7476L40.6241 60.5076L39.3941 60.8377L39.7241 59.6077L44.3441 42.3577L44.3941 42.1577L44.5541 42.0176C49.6941 37.1576 55.0541 33.4276 59.6641 31.4976C61.9341 30.5476 63.9341 30.0777 65.6041 30.0777C67.1441 30.0777 68.3441 30.4877 69.1541 31.3077C70.8441 32.9977 70.7941 36.3177 69.0041 40.6577L69.0241 40.6476Z" fill="#F4BA34" stroke="#F4BA34" stroke-miterlimit="10"/>
</g>
<defs>
<clipPath id="clip0_1_91">
<rect width="98.1586" height="99.11" fill="white" transform="translate(0.920685 0.118347)"/>
</clipPath>
</defs>
</svg>
