<svg width="100" height="99" viewBox="0 0 100 99" fill="none" xmlns="http://www.w3.org/2000/svg">
<rect width="99.532" height="99" transform="translate(0.233978)" fill="white"/>
<path d="M48.6081 7.2844C48.6081 5.57187 51.1485 5.57187 51.1485 7.2844V12.9576C51.1485 14.6702 48.6081 14.6702 48.6081 12.9576V7.2844Z" fill="#F4BA34"/>
<path d="M22.4819 40.6747C20.818 40.6747 20.818 38.0613 22.4819 38.0613H28.0253C29.6891 38.0613 29.6891 40.6747 28.0253 40.6747H22.4819Z" fill="#F4BA34"/>
<path d="M30.0707 20.8547C28.8857 19.6373 30.6875 17.795 31.8644 19.0043L35.7845 23.0381C36.9695 24.2555 35.1677 26.0979 33.9908 24.8886L30.0707 20.8547Z" fill="#F4BA34"/>
<path d="M77.5181 38.0613C79.182 38.0613 79.182 40.6747 77.5181 40.6747H71.991C70.3271 40.6747 70.3271 38.0613 71.991 38.0613H77.5181Z" fill="#F4BA34"/>
<path d="M67.6973 19.2315C68.8823 18.0141 70.676 19.8646 69.491 21.082L65.5708 25.0915C64.3859 26.3089 62.5921 24.4584 63.7771 23.241L67.6973 19.2315Z" fill="#F4BA34"/>
<path d="M42.4806 49.7081C42.3101 49.8866 42.1153 50.1788 42.1235 50.5197C42.1397 51.0148 42.5536 51.3556 42.8053 51.5098C43.3247 51.8507 44.047 52.0293 44.7937 52.0049C45.7027 51.9725 46.5143 51.6478 46.9851 51.1365C47.1555 50.958 47.3503 50.6658 47.3422 50.3249C47.3179 49.5782 46.2141 48.7828 44.6801 48.8315C43.7711 48.864 42.9594 49.1886 42.4887 49.6999L42.4806 49.7081Z" fill="#F4BA34"/>
<path d="M47.2449 31.7225C47.0745 31.901 46.8797 32.1932 46.8878 32.5341C46.9121 33.2808 48.016 34.0761 49.55 34.0274C50.459 33.995 51.2706 33.6704 51.7413 33.159C51.9117 32.9805 52.1065 32.6883 52.0984 32.3474C52.0741 31.6007 50.9703 30.8054 49.4363 30.8541C48.5273 30.8865 47.7157 31.2111 47.2449 31.7225Z" fill="#F4BA34"/>
<path d="M52.8367 49.3266C52.6663 49.5052 52.4715 49.7974 52.4796 50.1383C52.4958 50.6333 52.9097 50.9742 53.1613 51.1284C53.6808 51.4693 54.4031 51.6478 55.1498 51.6235C56.0589 51.591 56.8705 51.2664 57.3412 50.7551C57.5117 50.5765 57.7065 50.2844 57.6984 49.9435C57.6821 49.4484 57.2682 49.1074 57.0166 48.9532C56.4971 48.6123 55.7748 48.4338 55.0281 48.4581C54.1191 48.4906 53.3075 48.8153 52.8367 49.3266Z" fill="#F4BA34"/>
<path d="M51.563 40.5448C51.3926 40.7233 51.1978 41.0155 51.2059 41.3564C51.2302 42.1031 52.3341 42.8986 53.868 42.8499C54.7771 42.8174 55.5887 42.4927 56.0594 41.9814C56.2298 41.8028 56.4246 41.5106 56.4165 41.1697C56.3922 40.4231 55.2884 39.6277 53.7544 39.6764C52.8454 39.7088 52.0338 40.0335 51.563 40.5448Z" fill="#F4BA34"/>
<path d="M48.2024 56.9721C48.0319 57.1506 47.8371 57.4428 47.8453 57.7837C47.8696 58.5304 48.9734 59.3259 50.5074 59.2772C51.4164 59.2447 52.2281 58.92 52.6988 58.4087C52.8693 58.2301 53.064 57.9379 53.0559 57.5971C53.0316 56.8504 51.9277 56.055 50.3938 56.1037C49.4848 56.1362 48.6731 56.4608 48.2024 56.9721Z" fill="#F4BA34"/>
<path d="M47.5857 42.3061C47.7561 42.1275 47.9509 41.8353 47.9428 41.4945C47.9185 40.7478 46.8147 39.9524 45.2807 40.0011C44.3717 40.0336 43.56 40.3582 43.0893 40.8695C42.9189 41.048 42.7241 41.3402 42.7322 41.6811C42.7484 42.1762 43.1624 42.5171 43.414 42.6713C43.9334 43.0122 44.6557 43.1907 45.4024 43.1663C46.3114 43.1339 47.1231 42.8093 47.5938 42.298L47.5857 42.3061Z" fill="#F4BA34"/>
<path d="M42.8458 21.2201L42.8053 21.2606C41.0927 23.1192 39.6155 25.7408 38.3981 29.0279C36.6288 33.8489 35.4844 40.0173 35.0948 46.8755L35.0136 48.304L33.7394 47.6709C33.5284 47.5654 33.3011 47.4842 33.0658 47.4274C32.2947 47.2488 31.4993 47.3869 30.8176 47.8089C30.6065 47.9469 30.4117 48.1092 30.2332 48.2959C29.7137 48.8559 29.4215 49.6106 29.4297 50.3655V50.7551C29.4378 50.9337 29.4459 51.1203 29.454 51.3232C29.8761 62.6454 32.319 73.1234 36.3366 80.8339C40.5489 88.9014 46.1005 93.2112 51.9847 92.992C55.3936 92.8622 58.5508 91.2551 61.359 88.2278C63.3799 86.0445 65.1736 83.1713 66.6589 79.6813C70.0839 71.695 71.7397 61.0546 71.3095 49.7243C71.2933 49.3753 71.2771 49.0426 71.2527 48.7179L71.2202 48.1822C71.1228 46.5833 69.7431 45.3334 68.1442 45.3902H68.0549C67.6004 45.4227 67.1296 45.5769 66.7157 45.8204L65.4901 46.5752L65.2872 45.1549C64.3539 38.4752 62.7469 32.5341 60.6366 27.989C59.1838 24.848 57.5119 22.3969 55.6858 20.7006C53.6486 18.8095 51.449 17.9005 49.1603 17.9898C46.8715 18.0791 44.7369 19.1585 42.8458 21.2038V21.2201ZM68.3146 48.3851L68.3633 52.0861C68.4932 62.1015 66.9105 71.484 63.9075 78.5045C62.544 81.6942 60.9451 84.2751 59.1839 86.1825C56.9357 88.6092 54.4845 89.8835 51.8954 89.9809C47.2529 90.1595 42.6754 86.4179 39.0474 79.446C35.598 72.8313 33.3255 63.8304 32.6518 54.099L32.3921 50.3493L34.3887 53.5227L49.98 78.3097C50.191 78.6506 50.5319 78.8941 50.9215 78.9834C51.3111 79.0726 51.725 79.0077 52.0659 78.7886C52.1795 78.7236 52.2769 78.6344 52.3662 78.5289C52.4555 78.4234 52.5285 78.326 52.5935 78.2123L65.7661 53.2468L65.7904 53.2224V53.1819C65.831 53.1332 65.8635 53.0763 65.8798 53.0357L65.896 52.9871L65.9203 52.9627L66.6021 51.6479L68.3228 48.377H68.3065L68.3146 48.3851ZM57.9096 29.2713C60.5311 34.9365 62.3248 42.931 62.9579 51.7696L62.9741 52.0456L62.8443 52.281L51.8792 73.0504L51.1244 74.4951L50.256 73.1153L38.1303 53.8311L37.9923 53.6119V53.3442C37.903 44.327 39.0636 36.0728 41.255 30.0911C42.3426 27.1449 43.6331 24.8561 45.0778 23.2978C46.417 21.8531 47.8373 21.0901 49.3063 21.0414C52.3581 20.9278 55.4179 23.8578 57.9258 29.2957V29.2794L57.9096 29.2713Z" fill="#F4BA34"/>
</svg>
