<svg width="100" height="99" viewBox="0 0 100 99" fill="none" xmlns="http://www.w3.org/2000/svg">
<path d="M48.3741 7.2844C48.3741 5.57187 50.9145 5.57187 50.9145 7.2844V12.9576C50.9145 14.6702 48.3741 14.6702 48.3741 12.9576V7.2844Z" fill="#F4BA34"/>
<path d="M22.2479 40.6747C20.584 40.6747 20.584 38.0613 22.2479 38.0613H27.7913C29.4551 38.0613 29.4551 40.6747 27.7913 40.6747H22.2479Z" fill="#F4BA34"/>
<path d="M29.8367 20.8547C28.6518 19.6372 30.4535 17.7949 31.6304 19.0042L35.5506 23.038C36.7355 24.2554 34.9337 26.0978 33.7568 24.8885L29.8367 20.8547Z" fill="#F4BA34"/>
<path d="M77.2842 38.0613C78.948 38.0613 78.948 40.6747 77.2842 40.6747H71.757C70.0932 40.6747 70.0932 38.0613 71.757 38.0613H77.2842Z" fill="#F4BA34"/>
<path d="M67.4633 19.2314C68.6483 18.014 70.442 19.8645 69.257 21.082L65.3369 25.0914C64.1519 26.3089 62.3582 24.4583 63.5431 23.2409L67.4633 19.2314Z" fill="#F4BA34"/>
<path d="M42.2466 49.708C42.0762 49.8866 41.8814 50.1787 41.8895 50.5196C41.9057 51.0147 42.3197 51.3556 42.5713 51.5098C43.0907 51.8507 43.813 52.0292 44.5597 52.0049C45.4687 51.9724 46.2804 51.6478 46.7511 51.1365C46.9216 50.9579 47.1164 50.6657 47.1082 50.3248C47.0839 49.5781 45.9801 48.7828 44.4461 48.8315C43.5371 48.8639 42.7255 49.1885 42.2547 49.6999L42.2466 49.708Z" fill="#F4BA34"/>
<path d="M47.0109 31.7223C46.8405 31.9009 46.6457 32.1931 46.6538 32.534C46.6782 33.2807 47.782 34.076 49.316 34.0273C50.225 33.9949 51.0366 33.6702 51.5073 33.1589C51.6778 32.9804 51.8725 32.6882 51.8644 32.3473C51.8401 31.6006 50.7363 30.8052 49.2023 30.8539C48.2933 30.8864 47.4817 31.211 47.0109 31.7223Z" fill="#F4BA34"/>
<path d="M52.6028 49.3265C52.4323 49.5051 52.2375 49.7972 52.2456 50.1381C52.2619 50.6332 52.6758 50.9741 52.9274 51.1283C53.4468 51.4692 54.1692 51.6477 54.9159 51.6234C55.8249 51.5909 56.6365 51.2663 57.1073 50.755C57.2777 50.5764 57.4725 50.2842 57.4644 49.9433C57.4481 49.4483 57.0342 49.1073 56.7826 48.9531C56.2632 48.6122 55.5408 48.4337 54.7942 48.458C53.8851 48.4905 53.0735 48.8152 52.6028 49.3265Z" fill="#F4BA34"/>
<path d="M51.329 40.5448C51.1586 40.7234 50.9638 41.0156 50.9719 41.3565C50.9963 42.1032 52.1001 42.8986 53.6341 42.8499C54.5431 42.8175 55.3547 42.4928 55.8254 41.9814C55.9959 41.8029 56.1907 41.5107 56.1825 41.1698C56.1582 40.4231 55.0544 39.6277 53.5204 39.6764C52.6114 39.7089 51.7998 40.0335 51.329 40.5448Z" fill="#F4BA34"/>
<path d="M47.9684 56.9721C47.7979 57.1506 47.6032 57.4428 47.6113 57.7837C47.6356 58.5304 48.7395 59.3259 50.2734 59.2772C51.1824 59.2447 51.9941 58.92 52.4648 58.4087C52.6353 58.2301 52.8301 57.9379 52.8219 57.5971C52.7976 56.8504 51.6938 56.055 50.1598 56.1037C49.2508 56.1362 48.4391 56.4608 47.9684 56.9721Z" fill="#F4BA34"/>
<path d="M47.3517 42.3061C47.5221 42.1276 47.7169 41.8354 47.7088 41.4945C47.6845 40.7478 46.5807 39.9525 45.0467 40.0012C44.1377 40.0336 43.3261 40.3582 42.8553 40.8695C42.6849 41.0481 42.4901 41.3403 42.4982 41.6812C42.5144 42.1763 42.9284 42.5171 43.18 42.6713C43.6994 43.0122 44.4217 43.1908 45.1684 43.1664C46.0774 43.1339 46.8891 42.8093 47.3598 42.298L47.3517 42.3061Z" fill="#F4BA34"/>
<path d="M42.6118 21.2201L42.5713 21.2606C40.8587 23.1193 39.3815 25.7409 38.1641 29.028C36.3948 33.849 35.2504 40.0174 34.8608 46.8756L34.7796 48.3041L33.5054 47.671C33.2944 47.5654 33.0671 47.4842 32.8318 47.4274C32.0607 47.2489 31.2653 47.3869 30.5836 47.809C30.3725 47.9469 30.1777 48.1093 29.9992 48.2959C29.4797 48.8559 29.1875 49.6107 29.1957 50.3655V50.7552C29.2038 50.9337 29.2119 51.1204 29.22 51.3233C29.6421 62.6454 32.0851 73.1235 36.1026 80.8339C40.3149 88.9015 45.8665 93.2112 51.7508 92.9921C55.1596 92.8622 58.3168 91.2552 61.125 88.2278C63.146 86.0446 64.9396 83.1714 66.4249 79.6814C69.85 71.695 71.5057 61.0547 71.0755 49.7244C71.0593 49.3754 71.0431 49.0426 71.0187 48.718L70.9862 48.1823C70.8888 46.5834 69.5091 45.3334 67.9102 45.3902H67.8209C67.3664 45.4227 66.8956 45.5769 66.4817 45.8204L65.2562 46.5753L65.0532 45.1549C64.1199 38.4753 62.5129 32.5342 60.4027 27.9891C58.9498 24.8481 57.2779 22.397 55.4518 20.7007C53.4146 18.8096 51.215 17.9006 48.9263 17.9899C46.6375 18.0792 44.5029 19.1586 42.6118 21.2039V21.2201ZM68.0806 48.3852L68.1293 52.0862C68.2592 62.1016 66.6765 71.484 63.6735 78.5046C62.31 81.6943 60.7111 84.2752 58.9499 86.1825C56.7017 88.6093 54.2505 89.8836 51.6614 89.981C47.0189 90.1595 42.4414 86.418 38.8134 79.4461C35.364 72.8314 33.0915 63.8304 32.4178 54.0991L32.1581 50.3494L34.1547 53.5227L49.746 78.3098C49.957 78.6507 50.2979 78.8941 50.6875 78.9834C51.0771 79.0727 51.491 79.0078 51.8319 78.7886C51.9455 78.7237 52.0429 78.6345 52.1322 78.529C52.2215 78.4234 52.2945 78.326 52.3595 78.2124L65.5321 53.2468L65.5564 53.2224V53.1819C65.597 53.1332 65.6295 53.0764 65.6458 53.0358L65.662 52.9871L65.6863 52.9628L66.3681 51.6479L68.0888 48.3771H68.0725L68.0806 48.3852ZM57.6756 29.2714C60.2972 34.9365 62.0908 42.9311 62.7239 51.7697L62.7401 52.0456L62.6103 52.281L51.6452 73.0505L50.8904 74.4952L50.022 73.1154L37.8963 53.8312L37.7583 53.612V53.3442C37.669 44.3271 38.8297 36.0728 41.021 30.0911C42.1086 27.1449 43.3991 24.8562 44.8438 23.2978C46.183 21.8531 47.6033 21.0902 49.0723 21.0415C52.1241 20.9279 55.1839 23.8579 57.6919 29.2958V29.2795L57.6756 29.2714Z" fill="#F4BA34"/>
</svg>
