<svg width="100" height="99" viewBox="0 0 100 99" fill="none" xmlns="http://www.w3.org/2000/svg">
<rect width="100" height="98.5623" transform="translate(0 0.432251)" fill="white"/>
<path d="M11.7564 27.6721V34.8202C15.3475 34.0866 18.1794 31.2547 18.9044 27.6721H11.7564Z" fill="#F4BA34"/>
<path d="M57.6811 20.3364C59.0203 21.3685 60.2826 22.5968 61.4512 24.0042H93.4896C94.5046 24.0042 95.3235 24.8231 95.3235 25.8382V73.5203C95.3235 74.5354 94.4961 75.3543 93.4896 75.3543H61.4512C60.2912 76.7617 59.0288 77.9899 57.6896 79.0221H98.9999V20.345H57.6811V20.3364Z" fill="#F4BA34"/>
<path d="M11.7472 71.6864H18.8953C18.1617 68.1038 15.3298 65.2634 11.7472 64.5383V71.6864Z" fill="#F4BA34"/>
<path d="M18.6227 40.6376C14.5112 40.6376 11.159 44.0837 11.159 48.3145C11.159 52.5453 14.5112 55.9914 18.6227 55.9914C19.6462 55.9914 20.4908 55.1384 20.4908 54.0722C20.4908 53.0059 19.6548 52.1529 18.6227 52.1529C16.5584 52.1529 14.8866 50.4299 14.8866 48.3145C14.8866 46.1991 16.5584 44.476 18.6227 44.476C20.6869 44.476 22.3588 46.1991 22.3588 48.3145C22.3588 49.3807 23.1947 50.2337 24.2269 50.2337C25.259 50.2337 26.0949 49.3807 26.0949 48.3145C26.0949 44.0837 22.7426 40.6376 18.6312 40.6376H18.6227Z" fill="#F4BA34"/>
<path d="M91.6468 27.6721H84.4987C85.2323 31.2547 88.0643 34.0951 91.6468 34.8202V27.6721Z" fill="#F4BA34"/>
<path d="M91.6468 71.6864V64.5383C88.0557 65.2719 85.2323 68.1038 84.4987 71.6864H91.6468Z" fill="#F4BA34"/>
<path d="M38.5485 75.3543H6.50172C5.48667 75.3543 4.66778 74.5354 4.66778 73.5203V25.8382C4.66778 24.8231 5.4952 24.0042 6.50172 24.0042H38.5485C39.7086 22.5968 40.971 21.3685 42.3102 20.3364H0.999878V79.0135H42.3102C40.971 77.9814 39.7086 76.7532 38.5485 75.3457V75.3543Z" fill="#F4BA34"/>
<path d="M87.9793 49.6792C87.9793 45.6275 84.6867 42.3435 80.6435 42.3435C84.6867 42.3435 87.9793 45.636 87.9793 49.6792Z" fill="#F4BA34"/>
<path d="M75.6619 55.0446C75.5936 54.9849 75.5254 54.9252 75.4657 54.8655C75.5254 54.9252 75.6022 54.9849 75.6619 55.0446Z" fill="#F4BA34"/>
<path d="M80.6521 57.015C81.6671 57.015 82.486 56.1961 82.486 55.181C82.486 56.1961 81.6586 57.015 80.6521 57.015Z" fill="#F4BA34"/>
<path d="M76.0715 55.3943C76.0715 55.3943 76.0204 55.3516 75.9862 55.3345C76.0118 55.3601 76.0374 55.3772 76.0715 55.3943Z" fill="#F4BA34"/>
<path d="M74.9882 54.3452C74.9882 54.3452 74.9456 54.294 74.9285 54.2599C74.9456 54.2855 74.9711 54.311 74.9882 54.3452Z" fill="#F4BA34"/>
<path d="M75.4657 54.8655C75.406 54.8058 75.3463 54.729 75.2866 54.6693C75.3463 54.7376 75.406 54.8058 75.4657 54.8655Z" fill="#F4BA34"/>
<path d="M82.486 55.1811C82.486 54.166 81.6671 53.3471 80.6521 53.3471C81.6586 53.3471 82.486 54.166 82.486 55.1811Z" fill="#F4BA34"/>
<path d="M80.6523 42.3435C76.6091 42.3435 73.3166 45.636 73.3166 49.6792C73.3166 51.4108 73.9222 53.006 74.9288 54.2599C74.9458 54.2854 74.9714 54.311 74.9884 54.3451C75.0822 54.456 75.1847 54.5584 75.287 54.6693C75.3468 54.7375 75.4064 54.8057 75.4661 54.8654C75.5258 54.9251 75.6026 54.9848 75.6623 55.0445C75.7732 55.1469 75.8756 55.2492 75.9865 55.3431C76.012 55.3687 76.0376 55.3858 76.0717 55.4028C77.3256 56.4094 78.9207 57.015 80.6523 57.015C81.6588 57.015 82.4862 56.1961 82.4862 55.181C82.4862 54.166 81.6588 53.3471 80.6523 53.3471C78.6307 53.3471 76.9845 51.7008 76.9845 49.6792C76.9845 47.6576 78.6307 46.0114 80.6523 46.0114C82.6739 46.0114 84.3202 47.6576 84.3202 49.6792C84.3202 50.6943 85.1476 51.5131 86.1541 51.5131C87.1607 51.5131 87.9881 50.6943 87.9881 49.6792C87.9881 45.636 84.6955 42.3435 80.6523 42.3435Z" fill="#F4BA34"/>
<path d="M50.7292 24.772C52.4096 24.772 53.9536 25.4885 55.3525 26.8788C53.9536 25.4799 52.3925 24.772 50.7292 24.772C49.0659 24.772 47.4708 25.497 46.0634 26.9215C46.0037 26.9812 45.9439 27.058 45.8842 27.1177C45.9439 27.0495 46.0037 26.9812 46.0634 26.9215C47.4793 25.497 49.0488 24.772 50.7292 24.772Z" fill="#F4BA34"/>
<path d="M36.4242 46.6597C36.4242 46.5232 36.4242 46.3952 36.4242 46.2758C36.4156 46.3952 36.4156 46.5232 36.4156 46.6597C36.4156 54.149 37.7719 61.152 40.2455 66.3552C41.0729 68.1039 42.0112 69.6051 43.0263 70.8505C42.0112 69.6137 41.0815 68.1124 40.2541 66.3638C37.7804 61.152 36.4242 54.1575 36.4242 46.6683V46.6597Z" fill="#F4BA34"/>
<path d="M62.3896 43.1368H62.4493C62.9696 43.1368 63.4473 43.2904 63.8567 43.5548C63.4473 43.2818 62.9696 43.1283 62.4493 43.1283H62.3896C61.9717 43.1368 61.5622 43.2562 61.2039 43.4524C61.5622 43.2477 61.9717 43.1283 62.3896 43.1283V43.1368Z" fill="#F4BA34"/>
<path d="M37.7126 43.8619C38.3012 43.5207 38.9921 43.4268 39.6489 43.6059C39.8536 43.6571 40.0413 43.7339 40.2204 43.8363C40.6469 39.2984 41.5596 35.2637 42.8561 32.0906C42.9159 31.9541 42.9755 31.8262 43.0267 31.6897C42.967 31.8262 42.9073 31.9457 42.8476 32.0821C41.5425 35.2467 40.6384 39.2898 40.2119 43.8277C40.0328 43.7254 39.8451 43.6572 39.6404 43.5975C38.9836 43.4184 38.2926 43.5121 37.7041 43.8533C36.9364 44.2969 36.4502 45.1243 36.4331 46.0029C36.4587 45.1328 36.9449 44.2969 37.7126 43.8533V43.8619Z" fill="#F4BA34"/>
<path d="M44.1782 29.4292C44.2806 29.2501 44.3915 29.0795 44.5024 28.9089C44.3915 29.0795 44.2891 29.2501 44.1782 29.4292Z" fill="#F4BA34"/>
<path d="M43.3935 30.8965C43.5044 30.6576 43.6239 30.4273 43.7347 30.2055C43.6153 30.4273 43.5044 30.6576 43.3935 30.8965Z" fill="#F4BA34"/>
<path d="M43.7343 30.214C43.8793 29.9411 44.0242 29.6852 44.1692 29.4293C44.0242 29.6766 43.8708 29.9411 43.7343 30.214Z" fill="#F4BA34"/>
<path d="M43.0355 31.6897C43.1549 31.4167 43.2743 31.1524 43.3938 30.8965C43.2743 31.1524 43.1464 31.4167 43.0355 31.6897Z" fill="#F4BA34"/>
<path d="M65.0164 45.9858V45.6361C64.9823 44.766 64.5302 44.0069 63.8563 43.5634C64.5302 44.0069 64.9822 44.766 64.9993 45.6361V45.9858C64.9993 46.1991 65.0078 46.4294 65.0078 46.6597C65.0078 54.149 63.6516 61.152 61.1779 66.3552C58.5251 71.9508 54.8061 75.0302 50.7117 75.0302C47.8969 75.0302 45.2611 73.5715 43.0263 70.8505C45.2611 73.5801 47.8969 75.0387 50.7203 75.0387C54.8146 75.0387 58.5337 71.9594 61.1865 66.3638C63.6601 61.152 65.0164 54.1575 65.0164 46.6682C65.0164 46.4379 65.0164 46.2076 65.0078 45.9944L65.0164 45.9858Z" fill="#F4BA34"/>
<path d="M61.1951 43.4524C60.743 38.9998 59.8303 35.059 58.5423 31.9627C57.6381 29.8046 56.5719 28.09 55.3521 26.8873C56.5634 28.09 57.6296 29.8046 58.5338 31.9627C59.8218 35.059 60.743 39.0169 61.1951 43.461V43.4524Z" fill="#F4BA34"/>
<path d="M50.7126 75.0302C54.8069 75.0302 58.526 71.9508 61.1788 66.3552C63.6524 61.1435 65.0087 54.149 65.0087 46.6597C65.0087 46.4294 65.0087 46.1991 65.0001 45.9858V45.6361C64.966 44.766 64.514 44.0155 63.8486 43.5634C63.4477 43.2989 62.9615 43.1454 62.4412 43.1454H62.3815C61.9635 43.1454 61.5541 43.2648 61.1958 43.4696C60.7437 39.0255 59.8311 35.0676 58.5345 31.9713C57.6303 29.8132 56.5641 28.1072 55.3529 26.8959C53.954 25.5055 52.4186 24.7891 50.7296 24.7891C49.0407 24.7891 47.4712 25.5141 46.0638 26.9386C46.0041 26.9983 45.9443 27.0665 45.8846 27.1348C45.6969 27.331 45.5094 27.5442 45.3302 27.766C45.2279 27.8939 45.1254 28.0304 45.0231 28.1669C44.8439 28.4057 44.6734 28.6531 44.5028 28.9175C44.3919 29.0881 44.2895 29.2587 44.1786 29.4378C44.0336 29.6852 43.8801 29.9496 43.7436 30.2226C43.6242 30.4444 43.5134 30.6746 43.4025 30.9135C43.2831 31.1694 43.1551 31.4338 43.0442 31.7068C42.9845 31.8433 42.9248 31.9712 42.8736 32.1077C41.5686 35.2808 40.6643 39.3155 40.2378 43.8534C40.0587 43.751 39.8711 43.6827 39.6664 43.623C39.0096 43.4439 38.3186 43.5463 37.7301 43.879C36.9624 44.3225 36.4762 45.1499 36.4506 46.0285V46.2758C36.4506 46.4038 36.4506 46.5318 36.4506 46.6683C36.4506 54.1575 37.8068 61.1605 40.2805 66.3638C41.1079 68.1124 42.0377 69.6137 43.0527 70.8505C45.2876 73.5801 47.9233 75.0302 50.7382 75.0302H50.7126ZM45.8164 33.3275C45.8164 33.3275 45.8164 33.3275 45.8164 33.319C47.2153 29.9326 48.9981 27.9878 50.7211 27.9878C52.4441 27.9878 54.1927 29.8899 55.5831 33.2081C55.7793 33.6687 55.9584 34.1549 56.1376 34.6666C57.3317 38.1383 58.0738 42.608 58.2615 47.4871C58.2615 47.598 58.27 47.7003 58.2786 47.8027V47.8112L50.6102 61.1008L43.1722 48.2121C43.3342 42.3947 44.2725 37.1148 45.8335 33.3275H45.8164ZM39.6493 48.5277L49.2113 65.0928C49.2625 65.1867 49.3221 65.272 49.3989 65.3488C49.6036 65.5791 49.8766 65.7496 50.1837 65.8349C50.5931 65.9458 51.0282 65.8861 51.4035 65.6728C51.6509 65.5278 51.8556 65.3317 51.992 65.0843L61.2044 49.1163C61.2556 49.0481 61.2982 48.9713 61.3067 48.9371L61.7929 48.1012C61.7929 48.1012 61.7929 48.1183 61.7929 48.1268L61.81 48.1012C61.6479 54.5754 60.4196 60.5293 58.3042 64.9905C56.2144 69.4004 53.5274 71.8315 50.7296 71.8315C49.1601 71.8315 47.6162 71.0638 46.2002 69.6052C45.0998 68.4707 44.0678 66.9182 43.1465 64.9905C41.0823 60.6317 39.854 54.8399 39.6493 48.5277Z" fill="#F4BA34"/>
<path d="M50.7207 27.9877C52.4266 27.9877 54.1923 29.8899 55.5827 33.208C55.7789 33.6686 55.958 34.1548 56.1371 34.6581C55.958 34.1463 55.7789 33.6601 55.5827 33.1995C54.1923 29.8813 52.4437 27.9792 50.7207 27.9792C48.9976 27.9792 47.2149 29.924 45.816 33.3104C47.2064 29.924 49.0147 27.9792 50.7121 27.9792L50.7207 27.9877Z" fill="#F4BA34"/>
<path d="M58.2782 47.7941C58.2782 47.6832 58.2696 47.5809 58.2611 47.4785C58.2611 47.5894 58.2696 47.6918 58.2782 47.7941Z" fill="#F4BA34"/>
<path d="M50.1921 65.8349C50.6016 65.9458 51.0452 65.886 51.412 65.6728C51.6508 65.5278 51.8555 65.3316 52.0005 65.0843L61.2128 49.1163C61.264 49.0481 61.3066 48.9712 61.3152 48.9371L61.7842 48.1268C61.7842 48.1268 61.7842 48.1097 61.7842 48.1012L61.2981 48.9371C61.2981 48.9371 61.2469 49.0481 61.1957 49.1163L51.9834 65.0843C51.8469 65.3231 51.6423 65.5278 51.3949 65.6728C51.0196 65.886 50.593 65.9458 50.1751 65.8349C49.868 65.7496 49.6036 65.5876 49.3904 65.3487C49.5951 65.5876 49.868 65.7581 50.1751 65.8349H50.1921Z" fill="#F4BA34"/>
<path d="M46.2 69.6052C45.0997 68.4707 44.0676 66.9182 43.1549 64.9905C41.0907 60.6232 39.8624 54.8398 39.6577 48.5363C39.8624 54.8398 41.0821 60.6232 43.1549 64.9905C44.0676 66.9267 45.0997 68.4707 46.2086 69.6052H46.2Z" fill="#F4BA34"/>
<path d="M58.2693 47.8027L50.6009 61.0753L43.1629 48.1865C43.325 42.3691 44.2633 37.0892 45.8242 33.3019C45.8242 33.3019 45.8242 33.3019 45.8242 33.3104C44.2718 37.0977 43.325 42.3691 43.1629 48.195L50.6009 61.0838L58.2693 47.7942V47.8027Z" fill="#F4BA34"/>
<path d="M51.4887 46.4465C51.4887 47.3592 52.5293 48.0927 53.8003 48.0927C55.0712 48.0927 56.1118 47.3507 56.1118 46.4465C56.1118 45.5423 55.0712 44.8002 53.8003 44.8002C52.5293 44.8002 51.4887 45.5423 51.4887 46.4465Z" fill="#F4BA34"/>
<path d="M50.874 40.6888C50.874 41.6015 51.9146 42.335 53.1855 42.335C54.4565 42.335 55.4971 41.593 55.4971 40.6888C55.4971 39.7846 54.465 39.0425 53.1855 39.0425C51.906 39.0425 50.874 39.7846 50.874 40.6888Z" fill="#F4BA34"/>
<path d="M50.5842 36.4664C51.8608 36.4664 52.8959 35.7294 52.8959 34.8202C52.8959 33.911 51.8608 33.1739 50.5842 33.1739C49.3075 33.1739 48.2726 33.911 48.2726 34.8202C48.2726 35.7294 49.3075 36.4664 50.5842 36.4664Z" fill="#F4BA34"/>
<path d="M45.3295 40.6888C45.3295 41.6015 46.3701 42.335 47.6411 42.335C48.9121 42.335 49.9527 41.593 49.9527 40.6888C49.9527 39.7846 48.9206 39.0425 47.6411 39.0425C46.3616 39.0425 45.3295 39.7846 45.3295 40.6888Z" fill="#F4BA34"/>
<path d="M49.3388 46.4465C49.3388 45.5338 48.2982 44.8002 47.0273 44.8002C45.7563 44.8002 44.7156 45.5423 44.7156 46.4465C44.7156 47.3507 45.7563 48.0927 47.0273 48.0927C48.2982 48.0927 49.3388 47.3507 49.3388 46.4465Z" fill="#F4BA34"/>
<path d="M50.5842 49.6792C49.3132 49.6792 48.2726 50.4213 48.2726 51.3255C48.2726 52.2297 49.3132 52.9718 50.5842 52.9718C51.8551 52.9718 52.8959 52.2297 52.8959 51.3255C52.8959 50.4213 51.8551 49.6792 50.5842 49.6792Z" fill="#F4BA34"/>
<path d="M49.4073 65.3487C49.339 65.272 49.2793 65.1866 49.2196 65.0928L39.6577 48.5277L49.2111 65.0757C49.2623 65.1696 49.3305 65.2549 49.3987 65.3402L49.4073 65.3487Z" fill="#F4BA34"/>
<path d="M58.2955 64.9819C56.2056 69.3918 53.5187 71.8229 50.7209 71.8229C49.1514 71.8229 47.616 71.0552 46.2 69.5966C47.616 71.0552 49.1599 71.8229 50.7294 71.8229C53.5187 71.8229 56.2142 69.3918 58.304 64.9819C60.4194 60.5208 61.6477 54.5754 61.8098 48.0927L61.7927 48.1183C61.6306 54.5754 60.4023 60.5207 58.2869 64.9734L58.2955 64.9819Z" fill="#F4BA34"/>
<path d="M50.4991 79.9945C60.6276 79.9945 68.8384 66.4372 68.8384 49.7134C68.8384 32.9896 60.6276 19.4323 50.4991 19.4323C40.3706 19.4323 32.1598 32.9896 32.1598 49.7134C32.1598 66.4372 40.3706 79.9945 50.4991 79.9945Z" stroke="#F4BA34" stroke-width="3.41196" stroke-miterlimit="10"/>
</svg>
