<svg width="100" height="99" viewBox="0 0 100 99" fill="none" xmlns="http://www.w3.org/2000/svg">
<path d="M11.7564 27.24V34.388C15.3475 33.6545 18.1794 30.8225 18.9044 27.24H11.7564Z" fill="#F4BA34"/>
<path d="M57.6811 19.9043C59.0203 20.9364 60.2827 22.1647 61.4513 23.5721H93.4896C94.5047 23.5721 95.3235 24.391 95.3235 25.406V73.0882C95.3235 74.1032 94.4961 74.9221 93.4896 74.9221H61.4513C60.2912 76.3296 59.0288 77.5578 57.6896 78.5899H98.9999V19.9128H57.6811V19.9043Z" fill="#F4BA34"/>
<path d="M11.7472 71.2543H18.8953C18.1617 67.6717 15.3298 64.8312 11.7472 64.1062V71.2543Z" fill="#F4BA34"/>
<path d="M18.6227 40.2053C14.5113 40.2053 11.159 43.6514 11.159 47.8822C11.159 52.1131 14.5113 55.5591 18.6227 55.5591C19.6463 55.5591 20.4908 54.7061 20.4908 53.6399C20.4908 52.5737 19.6548 51.7207 18.6227 51.7207C16.5584 51.7207 14.8866 49.9976 14.8866 47.8822C14.8866 45.7668 16.5584 44.0438 18.6227 44.0438C20.6869 44.0438 22.3588 45.7668 22.3588 47.8822C22.3588 48.9485 23.1948 49.8015 24.2269 49.8015C25.259 49.8015 26.0949 48.9485 26.0949 47.8822C26.0949 43.6514 22.7426 40.2053 18.6312 40.2053H18.6227Z" fill="#F4BA34"/>
<path d="M91.6468 27.24H84.4987C85.2323 30.8225 88.0643 33.663 91.6468 34.388V27.24Z" fill="#F4BA34"/>
<path d="M91.6468 71.2543V64.1062C88.0557 64.8398 85.2323 67.6717 84.4987 71.2543H91.6468Z" fill="#F4BA34"/>
<path d="M38.5485 74.9221H6.50172C5.48667 74.9221 4.66778 74.1032 4.66778 73.0882V25.406C4.66778 24.391 5.4952 23.5721 6.50172 23.5721H38.5485C39.7086 22.1647 40.971 20.9364 42.3102 19.9043H0.999878V78.5814H42.3102C40.971 77.5493 39.7086 76.321 38.5485 74.9136V74.9221Z" fill="#F4BA34"/>
<path d="M87.9793 49.2471C87.9793 45.1954 84.6867 41.9114 80.6435 41.9114C84.6867 41.9114 87.9793 45.2039 87.9793 49.2471Z" fill="#F4BA34"/>
<path d="M75.6619 54.6122C75.5936 54.5525 75.5254 54.4928 75.4657 54.4331C75.5254 54.4928 75.6022 54.5525 75.6619 54.6122Z" fill="#F4BA34"/>
<path d="M80.6521 56.5827C81.6671 56.5827 82.486 55.7638 82.486 54.7488C82.486 55.7638 81.6586 56.5827 80.6521 56.5827Z" fill="#F4BA34"/>
<path d="M76.0715 54.9621C76.0715 54.9621 76.0204 54.9194 75.9862 54.9023C76.0118 54.9279 76.0374 54.9451 76.0715 54.9621Z" fill="#F4BA34"/>
<path d="M74.9882 53.9129C74.9882 53.9129 74.9456 53.8618 74.9285 53.8276C74.9456 53.8532 74.9711 53.8788 74.9882 53.9129Z" fill="#F4BA34"/>
<path d="M75.4657 54.4332C75.406 54.3735 75.3463 54.2968 75.2866 54.2371C75.3463 54.3053 75.406 54.3735 75.4657 54.4332Z" fill="#F4BA34"/>
<path d="M82.486 54.7487C82.486 53.7337 81.6671 52.9148 80.6521 52.9148C81.6586 52.9148 82.486 53.7337 82.486 54.7487Z" fill="#F4BA34"/>
<path d="M80.6523 41.9114C76.6091 41.9114 73.3166 45.2039 73.3166 49.2471C73.3166 50.9786 73.9222 52.5738 74.9288 53.8277C74.9458 53.8533 74.9714 53.8789 74.9884 53.913C75.0822 54.0239 75.1847 54.1263 75.287 54.2371C75.3468 54.3054 75.4064 54.3736 75.4661 54.4333C75.5258 54.493 75.6026 54.5527 75.6623 54.6124C75.7732 54.7148 75.8756 54.8171 75.9865 54.9109C76.012 54.9365 76.0376 54.9536 76.0717 54.9707C77.3256 55.9772 78.9207 56.5829 80.6523 56.5829C81.6588 56.5829 82.4862 55.764 82.4862 54.7489C82.4862 53.7339 81.6588 52.915 80.6523 52.915C78.6307 52.915 76.9845 51.2687 76.9845 49.2471C76.9845 47.2255 78.6307 45.5793 80.6523 45.5793C82.6739 45.5793 84.3202 47.2255 84.3202 49.2471C84.3202 50.2621 85.1476 51.081 86.1541 51.081C87.1607 51.081 87.9881 50.2621 87.9881 49.2471C87.9881 45.2039 84.6955 41.9114 80.6523 41.9114Z" fill="#F4BA34"/>
<path d="M50.7292 24.3396C52.4096 24.3396 53.9536 25.0561 55.3525 26.4465C53.9536 25.0476 52.3925 24.3396 50.7292 24.3396C49.0659 24.3396 47.4708 25.0647 46.0634 26.4892C46.0037 26.5489 45.9439 26.6256 45.8842 26.6853C45.9439 26.6171 46.0037 26.5489 46.0634 26.4892C47.4793 25.0647 49.0488 24.3396 50.7292 24.3396Z" fill="#F4BA34"/>
<path d="M36.4242 46.2274C36.4242 46.0909 36.4242 45.9629 36.4242 45.8435C36.4156 45.9629 36.4156 46.0909 36.4156 46.2274C36.4156 53.7167 37.7719 60.7197 40.2455 65.9229C41.0729 67.6715 42.0112 69.1728 43.0263 70.4182C42.0112 69.1814 41.0815 67.6801 40.2541 65.9315C37.7804 60.7197 36.4242 53.7252 36.4242 46.236V46.2274Z" fill="#F4BA34"/>
<path d="M62.3896 42.7046H62.4493C62.9696 42.7046 63.4473 42.8581 63.8567 43.1225C63.4473 42.8496 62.9696 42.696 62.4493 42.696H62.3896C61.9717 42.7046 61.5622 42.824 61.204 43.0202C61.5622 42.8155 61.9717 42.696 62.3896 42.696V42.7046Z" fill="#F4BA34"/>
<path d="M37.7126 43.4295C38.3012 43.0883 38.9921 42.9944 39.6489 43.1736C39.8536 43.2247 40.0413 43.3015 40.2204 43.4039C40.6469 38.866 41.5596 34.8313 42.8561 31.6582C42.9159 31.5217 42.9755 31.3938 43.0267 31.2573C42.967 31.3938 42.9073 31.5133 42.8476 31.6498C41.5425 34.8144 40.6384 38.8574 40.2119 43.3954C40.0328 43.293 39.8451 43.2248 39.6404 43.1651C38.9836 42.986 38.2926 43.0798 37.7041 43.421C36.9364 43.8645 36.4502 44.6919 36.4331 45.5705C36.4587 44.7005 36.9449 43.8645 37.7126 43.421V43.4295Z" fill="#F4BA34"/>
<path d="M44.1782 28.9971C44.2806 28.818 44.3915 28.6474 44.5024 28.4768C44.3915 28.6474 44.2891 28.818 44.1782 28.9971Z" fill="#F4BA34"/>
<path d="M43.3935 30.4642C43.5044 30.2253 43.6239 29.995 43.7347 29.7732C43.6153 29.995 43.5044 30.2253 43.3935 30.4642Z" fill="#F4BA34"/>
<path d="M43.7343 29.7819C43.8793 29.5089 44.0242 29.253 44.1693 28.9971C44.0242 29.2444 43.8708 29.5089 43.7343 29.7819Z" fill="#F4BA34"/>
<path d="M43.0354 31.2573C43.1549 30.9844 43.2743 30.72 43.3937 30.4641C43.2743 30.72 43.1463 30.9844 43.0354 31.2573Z" fill="#F4BA34"/>
<path d="M65.0164 45.5536V45.2038C64.9823 44.3338 64.5302 43.5747 63.8563 43.1311C64.5302 43.5747 64.9822 44.3338 64.9993 45.2038V45.5536C64.9993 45.7668 65.0078 45.9972 65.0078 46.2275C65.0078 53.7167 63.6516 60.7197 61.1779 65.923C58.5251 71.5186 54.8061 74.5979 50.7117 74.5979C47.8969 74.5979 45.2611 73.1393 43.0263 70.4182C45.2611 73.1478 47.8969 74.6064 50.7203 74.6064C54.8146 74.6064 58.5337 71.5271 61.1865 65.9315C63.6601 60.7197 65.0164 53.7252 65.0164 46.236C65.0164 46.0057 65.0164 45.7754 65.0078 45.5621L65.0164 45.5536Z" fill="#F4BA34"/>
<path d="M61.1951 43.0202C60.743 38.5676 59.8303 34.6268 58.5423 31.5304C57.6381 29.3724 56.5719 27.6578 55.3521 26.4551C56.5634 27.6578 57.6296 29.3724 58.5338 31.5304C59.8218 34.6268 60.743 38.5846 61.1951 43.0287V43.0202Z" fill="#F4BA34"/>
<path d="M50.7126 74.5978C54.8069 74.5978 58.526 71.5185 61.1788 65.9229C63.6524 60.7111 65.0087 53.7166 65.0087 46.2274C65.0087 45.9971 65.0087 45.7667 65.0001 45.5535V45.2037C64.966 44.3337 64.514 43.5831 63.8486 43.131C63.4477 42.8666 62.9615 42.713 62.4412 42.713H62.3815C61.9635 42.713 61.5541 42.8325 61.1958 43.0372C60.7437 38.5931 59.8311 34.6353 58.5345 31.5389C57.6303 29.3808 56.5641 27.6748 55.3529 26.4635C53.954 25.0732 52.4186 24.3567 50.7296 24.3567C49.0407 24.3567 47.4712 25.0817 46.0638 26.5062C46.0041 26.5659 45.9443 26.6342 45.8846 26.7024C45.6969 26.8986 45.5094 27.1118 45.3302 27.3336C45.2279 27.4616 45.1254 27.598 45.0231 27.7345C44.8439 27.9733 44.6734 28.2207 44.5028 28.4851C44.3919 28.6557 44.2895 28.8263 44.1786 29.0054C44.0336 29.2528 43.8801 29.5173 43.7436 29.7902C43.6242 30.012 43.5134 30.2423 43.4025 30.4811C43.2831 30.737 43.1551 31.0015 43.0442 31.2744C42.9845 31.4109 42.9248 31.5388 42.8736 31.6753C41.5686 34.8484 40.6643 38.8831 40.2378 43.421C40.0587 43.3186 39.8711 43.2504 39.6664 43.1907C39.0096 43.0115 38.3186 43.1139 37.7301 43.4466C36.9624 43.8902 36.4762 44.7176 36.4506 45.5962V45.8435C36.4506 45.9714 36.4506 46.0994 36.4506 46.2359C36.4506 53.7251 37.8068 60.7282 40.2805 65.9314C41.1079 67.68 42.0377 69.1813 43.0527 70.4181C45.2876 73.1477 47.9233 74.5978 50.7382 74.5978H50.7126ZM45.8164 32.8951C45.8164 32.8951 45.8164 32.8951 45.8164 32.8866C47.2153 29.5002 48.9981 27.5554 50.7211 27.5554C52.4441 27.5554 54.1927 29.4576 55.5831 32.7757C55.7793 33.2363 55.9584 33.7225 56.1376 34.2343C57.3317 37.7059 58.0738 42.1756 58.2615 47.0547C58.2615 47.1656 58.27 47.268 58.2786 47.3703V47.3789L50.6102 60.6684L43.1722 47.7798C43.3342 41.9624 44.2725 36.6824 45.8335 32.8951H45.8164ZM39.6493 48.0954L49.2113 64.6605C49.2625 64.7543 49.3221 64.8396 49.3989 64.9164C49.6036 65.1467 49.8766 65.3173 50.1837 65.4026C50.5931 65.5134 51.0282 65.4537 51.4035 65.2404C51.6509 65.0954 51.8556 64.8993 51.992 64.6519L61.2044 48.684C61.2556 48.6157 61.2982 48.5389 61.3067 48.5048L61.7929 47.6689C61.7929 47.6689 61.7929 47.6859 61.7929 47.6945L61.81 47.6689C61.6479 54.1431 60.4196 60.097 58.3042 64.5581C56.2144 68.9681 53.5274 71.3991 50.7296 71.3991C49.1601 71.3991 47.6162 70.6314 46.2002 69.1728C45.0998 68.0383 44.0678 66.4859 43.1465 64.5581C41.0823 60.1993 39.854 54.4075 39.6493 48.0954Z" fill="#F4BA34"/>
<path d="M50.7207 27.5554C52.4267 27.5554 54.1923 29.4576 55.5827 32.7757C55.7789 33.2363 55.958 33.7225 56.1371 34.2257C55.958 33.714 55.7789 33.2278 55.5827 32.7672C54.1923 29.449 52.4437 27.5469 50.7207 27.5469C48.9976 27.5469 47.2149 29.4917 45.816 32.8781C47.2064 29.4917 49.0147 27.5469 50.7121 27.5469L50.7207 27.5554Z" fill="#F4BA34"/>
<path d="M58.2782 47.362C58.2782 47.2511 58.2696 47.1487 58.2611 47.0464C58.2611 47.1573 58.2696 47.2596 58.2782 47.362Z" fill="#F4BA34"/>
<path d="M50.1921 65.4026C50.6016 65.5135 51.0452 65.4538 51.412 65.2405C51.6508 65.0955 51.8555 64.8994 52.0005 64.652L61.2128 48.6841C61.264 48.6158 61.3066 48.539 61.3152 48.5049L61.7842 47.6946C61.7842 47.6946 61.7842 47.6775 61.7842 47.6689L61.2981 48.5049C61.2981 48.5049 61.2469 48.6158 61.1957 48.6841L51.9834 64.652C51.8469 64.8908 51.6423 65.0955 51.3949 65.2405C51.0196 65.4538 50.593 65.5135 50.1751 65.4026C49.868 65.3173 49.6036 65.1553 49.3904 64.9165C49.5951 65.1553 49.868 65.3259 50.1751 65.4026H50.1921Z" fill="#F4BA34"/>
<path d="M46.2 69.1729C45.0996 68.0384 44.0676 66.486 43.1549 64.5582C41.0906 60.1909 39.8624 54.4076 39.6576 48.104C39.8624 54.4076 41.0821 60.1909 43.1549 64.5582C44.0676 66.4945 45.0997 68.0384 46.2085 69.1729H46.2Z" fill="#F4BA34"/>
<path d="M58.2693 47.3705L50.6009 60.643L43.1629 47.7543C43.325 41.9369 44.2633 36.6569 45.8242 32.8696C45.8242 32.8696 45.8242 32.8696 45.8242 32.8782C44.2718 36.6654 43.325 41.9369 43.1629 47.7628L50.6009 60.6516L58.2693 47.3619V47.3705Z" fill="#F4BA34"/>
<path d="M51.4887 46.0142C51.4887 46.9269 52.5293 47.6604 53.8003 47.6604C55.0712 47.6604 56.1118 46.9184 56.1118 46.0142C56.1118 45.1101 55.0712 44.3679 53.8003 44.3679C52.5293 44.3679 51.4887 45.1101 51.4887 46.0142Z" fill="#F4BA34"/>
<path d="M50.874 40.2564C50.874 41.1691 51.9146 41.9026 53.1855 41.9026C54.4565 41.9026 55.4971 41.1606 55.4971 40.2564C55.4971 39.3523 54.465 38.6101 53.1855 38.6101C51.906 38.6101 50.874 39.3523 50.874 40.2564Z" fill="#F4BA34"/>
<path d="M50.5842 36.0342C51.8608 36.0342 52.8959 35.2972 52.8959 34.388C52.8959 33.4788 51.8608 32.7417 50.5842 32.7417C49.3075 32.7417 48.2726 33.4788 48.2726 34.388C48.2726 35.2972 49.3075 36.0342 50.5842 36.0342Z" fill="#F4BA34"/>
<path d="M45.3295 40.2564C45.3295 41.1691 46.3701 41.9026 47.6411 41.9026C48.9121 41.9026 49.9527 41.1606 49.9527 40.2564C49.9527 39.3523 48.9206 38.6101 47.6411 38.6101C46.3616 38.6101 45.3295 39.3523 45.3295 40.2564Z" fill="#F4BA34"/>
<path d="M49.3388 46.0142C49.3388 45.1015 48.2982 44.3679 47.0273 44.3679C45.7563 44.3679 44.7156 45.1101 44.7156 46.0142C44.7156 46.9184 45.7563 47.6604 47.0273 47.6604C48.2982 47.6604 49.3388 46.9184 49.3388 46.0142Z" fill="#F4BA34"/>
<path d="M50.5842 49.2471C49.3132 49.2471 48.2726 49.9892 48.2726 50.8934C48.2726 51.7976 49.3132 52.5397 50.5842 52.5397C51.8551 52.5397 52.8959 51.7976 52.8959 50.8934C52.8959 49.9892 51.8551 49.2471 50.5842 49.2471Z" fill="#F4BA34"/>
<path d="M49.4073 64.9165C49.339 64.8397 49.2793 64.7544 49.2196 64.6606L39.6576 48.0955L49.2111 64.6435C49.2623 64.7373 49.3305 64.8227 49.3987 64.908L49.4073 64.9165Z" fill="#F4BA34"/>
<path d="M58.2955 64.5496C56.2056 68.9596 53.5187 71.3906 50.7209 71.3906C49.1514 71.3906 47.616 70.623 46.2 69.1643C47.616 70.623 49.1599 71.3906 50.7294 71.3906C53.5187 71.3906 56.2142 68.9596 58.304 64.5496C60.4194 60.0885 61.6477 54.1431 61.8098 47.6604L61.7927 47.686C61.6306 54.1431 60.4023 60.0885 58.2869 64.5411L58.2955 64.5496Z" fill="#F4BA34"/>
<path d="M50.4991 79.5623C60.6276 79.5623 68.8384 66.0049 68.8384 49.2811C68.8384 32.5573 60.6276 19 50.4991 19C40.3706 19 32.1598 32.5573 32.1598 49.2811C32.1598 66.0049 40.3706 79.5623 50.4991 79.5623Z" stroke="#F4BA34" stroke-width="3.41196" stroke-miterlimit="10"/>
</svg>
