<svg width="99" height="100" viewBox="0 0 99 100" fill="none" xmlns="http://www.w3.org/2000/svg">
<g clip-path="url(#clip0_262_64)">
<path fill-rule="evenodd" clip-rule="evenodd" d="M49.0834 6C27.2034 6 8.69343 22.25 5.88343 43.95C5.76343 44.88 6.41343 45.73 7.34343 45.85C8.27343 45.97 9.12342 45.3199 9.24342 44.3899C11.8434 24.3499 28.8734 9.38989 49.0834 9.38989C67.9934 9.38989 84.1234 22.49 88.2434 40.59L81.5934 35.7899C80.8334 35.2399 79.7834 35.4099 79.2334 36.1699C78.6834 36.9199 78.8434 37.9799 79.5934 38.5399C79.5934 38.5399 79.5934 38.5399 79.6034 38.5399L90.1034 46.12C90.8634 46.67 91.9234 46.5 92.4634 45.74C92.5334 45.65 92.5834 45.5499 92.6334 45.4399L98.0034 33.6699C98.3934 32.8199 98.0234 31.8199 97.1734 31.4199C96.7634 31.2299 96.3034 31.22 95.8834 31.37C95.4634 31.53 95.1234 31.8499 94.9334 32.2599L91.5134 39.75C87.0034 20.19 69.5134 6 49.0734 6H49.0834ZM7.12342 52.6699C6.95342 52.6699 6.79343 52.68 6.63343 52.72C6.14343 52.85 5.73342 53.1899 5.52342 53.6599L0.153423 65.4399C-0.236577 66.2899 0.14342 67.2899 0.99342 67.6799C1.84342 68.0599 2.84344 67.68 3.23344 66.84L6.65342 59.36C11.1634 78.92 28.6534 93.11 49.0934 93.11C70.9734 93.11 89.4834 76.8599 92.2934 55.1599C92.4134 54.2299 91.7634 53.3799 90.8334 53.2599C89.9034 53.1399 89.0534 53.79 88.9334 54.72C86.3334 74.76 69.3034 89.73 49.0934 89.73C30.1834 89.73 14.0534 76.6199 9.93342 58.5099L16.5834 63.3099C17.3434 63.8599 18.3934 63.6899 18.9434 62.9399C19.4934 62.1799 19.3234 61.13 18.5634 60.58L8.07344 52.98C7.80344 52.78 7.47344 52.6699 7.14344 52.6599L7.12342 52.6699Z" fill="#F4BA34"/>
<path d="M48.1434 42.5493C47.9534 42.5493 47.6734 42.5893 47.4834 42.7793C47.2134 43.0493 47.2334 43.4693 47.2734 43.6993C47.3534 44.1793 47.6334 44.6894 48.0534 45.0994C48.5534 45.5994 49.1734 45.8993 49.7234 45.8993C49.9134 45.8993 50.1934 45.8593 50.3834 45.6693C50.7934 45.2593 50.6734 44.1994 49.8234 43.3394C49.3234 42.8394 48.7034 42.5393 48.1534 42.5393L48.1434 42.5493Z" fill="#F4BA34" stroke="#F4BA34" stroke-miterlimit="10"/>
<path d="M61.0234 35.7095C60.8334 35.7095 60.5534 35.7495 60.3634 35.9395C59.9534 36.3495 60.0734 37.4094 60.9234 38.2694C61.4234 38.7694 62.0434 39.0695 62.5934 39.0695C62.7834 39.0695 63.0634 39.0295 63.2534 38.8395C63.6634 38.4295 63.5434 37.3694 62.6934 36.5094C62.1934 36.0094 61.5734 35.7095 61.0234 35.7095Z" fill="#F4BA34" stroke="#F4BA34" stroke-miterlimit="10"/>
<path d="M53.8834 48.2993C53.6934 48.2993 53.4134 48.3393 53.2234 48.5293C52.9534 48.7993 52.9734 49.2193 53.0134 49.4493C53.0934 49.9293 53.3734 50.4394 53.7934 50.8494C54.2934 51.3494 54.9134 51.6493 55.4634 51.6493C55.6534 51.6493 55.9334 51.6093 56.1234 51.4193C56.3934 51.1493 56.3734 50.7294 56.3334 50.4994C56.2534 50.0194 55.9734 49.5094 55.5534 49.0994C55.0534 48.5994 54.4334 48.2993 53.8834 48.2993Z" fill="#F4BA34" stroke="#F4BA34" stroke-miterlimit="10"/>
<path d="M58.2434 42.8892C58.0534 42.8892 57.7734 42.9293 57.5834 43.1193C57.1734 43.5293 57.2934 44.5892 58.1434 45.4492C58.6434 45.9492 59.2634 46.2493 59.8134 46.2493C60.0034 46.2493 60.2834 46.2092 60.4734 46.0192C60.8834 45.6092 60.7634 44.5492 59.9134 43.6892C59.4134 43.1892 58.7934 42.8892 58.2434 42.8892Z" fill="#F4BA34" stroke="#F4BA34" stroke-miterlimit="10"/>
<path d="M47.0134 49.7095C46.8234 49.7095 46.5434 49.7495 46.3534 49.9395C45.9434 50.3495 46.0634 51.4094 46.9134 52.2694C47.4134 52.7694 48.0334 53.0695 48.5834 53.0695C48.7734 53.0695 49.0534 53.0295 49.2434 52.8395C49.6534 52.4295 49.5334 51.3694 48.6834 50.5094C48.1834 50.0094 47.5634 49.7095 47.0134 49.7095Z" fill="#F4BA34" stroke="#F4BA34" stroke-miterlimit="10"/>
<path d="M55.1134 41.5392C55.3034 41.5392 55.5834 41.4992 55.7734 41.3092C56.1834 40.8992 56.0634 39.8392 55.2134 38.9792C54.7134 38.4792 54.0934 38.1792 53.5434 38.1792C53.3534 38.1792 53.0734 38.2192 52.8834 38.4092C52.6134 38.6792 52.6334 39.0992 52.6734 39.3292C52.7534 39.8092 53.0334 40.3192 53.4534 40.7292C53.9534 41.2292 54.5734 41.5292 55.1234 41.5292L55.1134 41.5392Z" fill="#F4BA34" stroke="#F4BA34" stroke-miterlimit="10"/>
<path d="M64.7134 27.5793H64.6734C62.6934 27.5793 60.4034 28.1293 57.8634 29.1893C54.1534 30.7393 49.9934 33.3693 45.8434 36.7993L44.9834 37.5193L44.6634 36.4493C44.6134 36.2693 44.5334 36.0993 44.4434 35.9293C44.1334 35.3893 43.6334 35.0094 43.0234 34.8394C42.8334 34.7894 42.6334 34.7693 42.4334 34.7693C41.8334 34.7693 41.2434 35.0093 40.8134 35.4093L40.5934 35.6194C40.4934 35.7194 40.3834 35.8193 40.2734 35.9293C33.9934 42.2093 29.2634 49.1994 26.9734 55.6094C24.5834 62.3294 25.0634 67.8193 28.3234 71.0793C30.2134 72.9693 32.8234 73.9293 36.0634 73.9293C38.3934 73.9293 41.0034 73.4293 43.8034 72.4193C50.2234 70.1293 57.2234 65.4093 63.5034 59.1293C63.6934 58.9393 63.8834 58.7493 64.0534 58.5593L64.3434 58.2593C65.2134 57.3493 65.1934 55.8894 64.3034 54.9994L64.2534 54.9493C63.9934 54.7093 63.6534 54.5093 63.2934 54.4093L62.2034 54.1094L62.9134 53.2394C66.2534 49.1394 68.8134 45.0493 70.3034 41.4193C71.3334 38.9093 71.8534 36.6393 71.8534 34.6893C71.8534 32.5093 71.2034 30.7594 69.9334 29.4894C68.6634 28.2194 66.9034 27.5693 64.7234 27.5693L64.7134 27.5793ZM62.6634 56.6993L60.5634 58.6993C54.8834 64.1093 48.6434 68.1994 43.0034 70.2194C40.4434 71.1394 38.1134 71.5894 36.0734 71.5894C33.4834 71.5894 31.4434 70.8593 30.0034 69.4293C27.4234 66.8493 27.1434 62.2293 29.2134 56.4293C31.1734 50.9193 35.1434 44.8194 40.3734 39.2394L42.3934 37.0894L41.6334 39.9293L35.6934 62.0994C35.6134 62.3994 35.6534 62.7294 35.8134 62.9994C35.9734 63.2694 36.2234 63.4693 36.5334 63.5493C36.6334 63.5793 36.7334 63.5894 36.8434 63.5894C36.9534 63.5894 37.0534 63.5793 37.1434 63.5493L58.5134 57.8193H58.5734C58.5734 57.8193 58.6734 57.7793 58.7034 57.7793H58.7434L58.7734 57.7693L59.8934 57.4594L62.6934 56.7094H62.6834L62.6634 56.6993ZM68.1034 40.5293C66.2434 45.0593 62.6034 50.3493 57.8534 55.4193L57.7034 55.5793L57.4934 55.6293L39.7034 60.3893L38.4734 60.7194L38.8034 59.4894L43.4234 42.2394L43.4734 42.0393L43.6334 41.8993C48.7734 37.0393 54.1334 33.3093 58.7434 31.3793C61.0134 30.4293 63.0134 29.9594 64.6834 29.9594C66.2234 29.9594 67.4234 30.3693 68.2334 31.1893C69.9234 32.8793 69.8734 36.1993 68.0834 40.5393L68.1034 40.5293Z" fill="#F4BA34" stroke="#F4BA34" stroke-miterlimit="10"/>
</g>
<defs>
<clipPath id="clip0_262_64">
<rect width="98.1586" height="99.11" fill="white"/>
</clipPath>
</defs>
</svg>
