<svg width="53" height="50" viewBox="0 0 53 50" fill="none" xmlns="http://www.w3.org/2000/svg">
<g clip-path="url(#clip0_281_78)">
<path fill-rule="evenodd" clip-rule="evenodd" d="M53 20.8333V49.1667C53 49.625 52.6273 50 52.1719 50H0.828125C0.372656 50 0 49.625 0 49.1667V10C0 7.25 2.23594 5 4.96875 5C7.70156 5 9.9375 7.25 9.9375 10V10.625C10.5586 10.2083 11.2625 10 12.0078 10C14.0781 10 15.7344 11.6667 15.7344 13.75V20H25.6719V15C25.6719 14.75 25.7961 14.5417 25.9617 14.375L31.7586 9.375C31.9242 9.25 32.0898 9.16667 32.2969 9.16667H42.2344C42.4414 9.16667 42.607 9.25 42.7727 9.375L48.5695 14.375C48.7352 14.5417 48.8594 14.75 48.8594 15V20H52.1719C52.6273 20 53 20.375 53 20.8333ZM51.3438 21.6667H45.1742L46.168 23.8333C46.3336 24.25 46.168 24.75 45.7539 24.9167C45.3398 25.0833 44.843 24.875 44.6359 24.5L43.3523 21.6667H39.1703L43.725 38.375C44.8016 38.5 45.7953 39 46.582 39.7917C46.8305 40.0694 47.0651 40.3611 47.2859 40.6667C48.1555 39.5 49.4805 38.7083 50.9297 38.4583L46.168 27.8333C45.9609 27.4167 46.168 26.9583 46.5406 26.75C46.9547 26.5833 47.4516 26.75 47.6586 27.1667L51.3438 35.3333V21.6667ZM38.3008 39.7917C38.5216 40.0139 38.7286 40.2639 38.9219 40.5417C39.1151 40.2639 39.3221 40.0139 39.543 39.7917C40.2055 39.125 41.075 38.625 42.0273 38.4167L37.4727 21.6667H33.2492L35.5266 38.375C36.5617 38.5417 37.5555 39.0417 38.3008 39.7917ZM47.2031 20V15.8333H38.9219V20H47.2031ZM41.9445 10.8333H34.5328L38.3836 14.1667H45.7953L41.9445 10.8333ZM27.3281 20H31.4688V17.5C31.4688 17.0417 31.8414 16.6667 32.2969 16.6667C32.7523 16.6667 33.125 17.0417 33.125 17.5V20H37.2656V15.375L32.2969 11.0833L27.3281 15.375V20ZM25.6719 26.6667V21.6667H21.4484L19.1711 38.4167C20.1648 38.5833 21.0344 39.0833 21.7383 39.7917C21.9867 40.0139 22.1937 40.2639 22.3594 40.5417C22.5526 40.2639 22.7596 40.0139 22.9805 39.7917C23.7258 39.0417 24.6781 38.5833 25.6719 38.4167V33.3333C25.6719 32.875 26.0445 32.5 26.5 32.5C26.9555 32.5 27.3281 32.875 27.3281 33.3333V38.4167C28.3633 38.5833 29.3156 39.0417 30.0195 39.7917C30.268 40.0139 30.475 40.2639 30.6406 40.5417C30.8339 40.2639 31.0409 40.0139 31.2617 39.7917C31.9656 39.0833 32.8766 38.625 33.8703 38.4167L31.593 21.6667H27.3281V26.6667C27.3281 27.125 26.9555 27.5 26.5 27.5C26.0445 27.5 25.6719 27.125 25.6719 26.6667ZM11.3039 34.2083C11.7594 34.2917 12.0078 34.75 11.8836 35.2083L11.0141 38.4583C11.925 38.625 12.7945 39.125 13.457 39.7917C13.7055 40.0139 13.9125 40.2639 14.0781 40.5417C14.2714 40.2639 14.4784 40.0139 14.6992 39.7917C15.4859 39.0417 16.4383 38.5417 17.5148 38.375L19.7508 21.6667H15.5687L12.7945 31.875C12.7945 31.9028 12.7807 31.9444 12.7531 32C12.6289 32.375 12.1734 32.625 11.7594 32.4583C11.3453 32.3333 11.0555 31.875 11.1797 31.4583L13.8297 21.6667H9.64766L2.07031 38.4583C3.10547 38.625 4.05781 39.0833 4.88594 39.75C5.21719 40 5.50703 40.3056 5.75547 40.6667C5.9487 40.3333 6.16953 40.0417 6.41797 39.7917C7.20469 39 8.23984 38.5 9.31641 38.375L10.2687 34.7917C10.393 34.3333 10.8484 34.0833 11.3039 34.2083ZM1.65625 35.3333L7.82578 21.6667H1.65625V35.3333ZM1.65625 10V20H14.0781V13.75C14.0781 12.625 13.1672 11.6667 12.0078 11.6667C10.8898 11.6667 9.9375 12.625 9.9375 13.75V15.8333C9.9375 16.2917 9.56484 16.6667 9.10938 16.6667C8.65391 16.6667 8.28125 16.2917 8.28125 15.8333V10C8.28125 8.16667 6.79063 6.66667 4.96875 6.66667C3.14687 6.66667 1.65625 8.16667 1.65625 10ZM51.3438 48.3333V40.0833C49.4805 40.375 48.0312 41.75 48.0312 43.3333C48.0312 43.7917 47.6586 44.1667 47.2031 44.1667C46.7477 44.1667 46.375 43.7917 46.375 43.3333C46.375 41.5 44.9258 40 43.0625 40C41.2406 40 39.75 41.5 39.75 43.3333C39.75 43.7917 39.3773 44.1667 38.9219 44.1667C38.4664 44.1667 38.0938 43.7917 38.0938 43.3333C38.0938 41.5 36.6445 40 34.7812 40C32.9594 40 31.4688 41.5 31.4688 43.3333C31.4688 43.7917 31.0961 44.1667 30.6406 44.1667C30.1852 44.1667 29.8125 43.7917 29.8125 43.3333C29.8125 41.5 28.3633 40 26.5 40C24.6781 40 23.1875 41.5 23.1875 43.3333C23.1875 43.7917 22.8148 44.1667 22.3594 44.1667C21.9039 44.1667 21.5312 43.7917 21.5312 43.3333C21.5312 41.5 20.082 40 18.2188 40C16.3969 40 14.9062 41.5 14.9062 43.3333C14.9062 43.7917 14.5336 44.1667 14.0781 44.1667C13.6227 44.1667 13.25 43.7917 13.25 43.3333C13.25 41.5 11.8008 40 9.9375 40C8.11562 40 6.625 41.5 6.625 43.3333C6.625 43.7917 6.25234 44.1667 5.79688 44.1667C5.34141 44.1667 4.96875 43.7917 4.96875 43.3333C4.96875 42.4167 4.55469 41.5833 3.80937 41.0417C3.18828 40.5417 2.44297 40.2083 1.65625 40.0833V48.3333H51.3438Z" fill="#009DC1"/>
<path d="M26.5 29.1666C26.9555 29.1666 27.3281 29.5416 27.3281 30C27.3281 30.4583 26.9555 30.8333 26.5 30.8333C26.0445 30.8333 25.6719 30.4583 25.6719 30C25.6719 29.5416 26.0445 29.1666 26.5 29.1666Z" fill="#009DC1"/>
<path d="M22.1566 3.1366C21.506 3.34536 21 4.11082 21 5.01546C21 6.08247 21.6867 6.94072 22.5 6.94072C22.9518 6.94072 23.3133 7.40464 23.3133 7.98454C23.3133 8.54124 22.9518 9.00515 22.5 9.00515C22.0663 9.00515 21.7048 8.54124 21.7048 7.98454C21.7048 7.72938 21.5422 7.52062 21.3614 7.52062C21.1627 7.52062 21 7.72938 21 7.98454C21 8.88918 21.506 9.65464 22.1566 9.84021V10.5593C22.1566 10.7912 22.3193 11 22.5 11C22.6988 11 22.8614 10.7912 22.8614 10.5593V9.84021C23.512 9.65464 24 8.88918 24 7.98454C24 6.91753 23.3313 6.05928 22.5 6.05928C22.0663 6.05928 21.7048 5.59536 21.7048 5.01546C21.7048 4.43557 22.0663 3.97165 22.5 3.97165C22.9518 3.97165 23.3133 4.43557 23.3133 5.01546C23.3133 5.27062 23.4759 5.45619 23.6566 5.45619C23.8554 5.45619 24 5.27062 24 5.01546C24 4.11082 23.512 3.34536 22.8614 3.1366V2.44072C22.8614 2.18557 22.6988 2 22.5 2C22.3193 2 22.1566 2.18557 22.1566 2.44072V3.1366Z" fill="#009DC1"/>
<path fill-rule="evenodd" clip-rule="evenodd" d="M29 6.5C29 10.0784 26.0835 13 22.4887 13C18.9165 13 16 10.0784 16 6.5C16 2.89895 18.9165 0 22.4887 0C26.0835 0 29 2.89895 29 6.5ZM16.8817 6.5C16.8817 9.60279 19.3913 12.1167 22.4887 12.1167C25.6087 12.1167 28.1183 9.60279 28.1183 6.5C28.1183 3.37456 25.6087 0.860627 22.4887 0.860627C19.3913 0.860627 16.8817 3.37456 16.8817 6.5Z" fill="#009DC1"/>
</g>
<defs>
<clipPath id="clip0_281_78">
<rect width="53" height="50" fill="white"/>
</clipPath>
</defs>
</svg>
