<svg width="50" height="46" viewBox="0 0 50 46" fill="none" xmlns="http://www.w3.org/2000/svg">
<g clip-path="url(#clip0_170_1249)">
<path fill-rule="evenodd" clip-rule="evenodd" d="M20.1368 24.15C23.8524 24.15 26.8341 27.14 26.8341 30.866V44.896C26.8341 45.356 26.4212 45.77 25.9625 45.77H1.19187C0.687285 45.77 0.320312 45.356 0.320312 44.896V30.866C0.320312 27.14 3.30196 24.15 7.01756 24.15H8.43958C6.51297 22.632 5.27444 20.24 5.27444 17.572C5.27444 12.972 8.99004 9.24597 13.5772 9.24597C18.1644 9.24597 21.8799 12.972 21.8799 17.572C21.8799 20.24 20.6414 22.632 18.6689 24.15H20.1368ZM21.513 43.976H25.091V30.866C25.091 28.106 22.8891 25.898 20.1368 25.898H7.01756C4.31114 25.898 2.1093 28.106 2.1093 30.866V43.976H5.68728V36.938C5.68728 36.478 6.10013 36.064 6.55885 36.064C7.06343 36.064 7.43041 36.478 7.43041 36.938V43.976H19.724V36.938C19.724 36.478 20.1368 36.064 20.5955 36.064C21.1001 36.064 21.513 36.478 21.513 36.938V43.976ZM7.06343 17.572C7.06343 21.206 9.99921 24.15 13.5772 24.15C17.201 24.15 20.1368 21.206 20.1368 17.572C20.1368 13.938 17.201 10.994 13.5772 10.994C9.99921 10.994 7.06343 13.938 7.06343 17.572Z" fill="#009DC1"/>
<path d="M35.5959 6.53195C33.9446 6.94595 32.6602 8.46395 32.6602 10.258C32.6602 12.374 34.4033 14.076 36.4675 14.076C37.6143 14.076 38.5317 14.996 38.5317 16.146C38.5317 17.25 37.6143 18.17 36.4675 18.17C35.3666 18.17 34.4491 17.25 34.4491 16.146C34.4491 15.64 34.0363 15.226 33.5776 15.226C33.073 15.226 32.6602 15.64 32.6602 16.146C32.6602 17.94 33.9446 19.458 35.5959 19.826V21.252C35.5959 21.712 36.0088 22.126 36.4675 22.126C36.9721 22.126 37.3849 21.712 37.3849 21.252V19.826C39.0363 19.458 40.2748 17.94 40.2748 16.146C40.2748 14.03 38.5776 12.328 36.4675 12.328C35.3666 12.328 34.4491 11.408 34.4491 10.258C34.4491 9.10795 35.3666 8.18795 36.4675 8.18795C37.6143 8.18795 38.5317 9.10795 38.5317 10.258C38.5317 10.764 38.9446 11.132 39.4033 11.132C39.9079 11.132 40.2748 10.764 40.2748 10.258C40.2748 8.46395 39.0363 6.94595 37.3849 6.53195V5.15195C37.3849 4.64595 36.9721 4.27795 36.4675 4.27795C36.0088 4.27795 35.5959 4.64595 35.5959 5.15195V6.53195Z" fill="#009DC1"/>
<path fill-rule="evenodd" clip-rule="evenodd" d="M49.6789 13.202C49.6789 20.47 43.7614 26.404 36.4679 26.404C29.2202 26.404 23.3027 20.47 23.3027 13.202C23.3027 5.888 29.2202 0 36.4679 0C43.7614 0 49.6789 5.888 49.6789 13.202ZM25.0917 13.202C25.0917 19.504 30.1835 24.61 36.4679 24.61C42.7981 24.61 47.8899 19.504 47.8899 13.202C47.8899 6.854 42.7981 1.748 36.4679 1.748C30.1835 1.748 25.0917 6.854 25.0917 13.202Z" fill="#009DC1"/>
</g>
<defs>
<clipPath id="clip0_170_1249">
<rect width="50" height="46" fill="white"/>
</clipPath>
</defs>
</svg>
