<svg width="98" height="98" viewBox="0 0 98 98" fill="none" xmlns="http://www.w3.org/2000/svg">
<path d="M48.8448 76.4808C45.5237 74.2105 41.9848 72.4656 38.2282 71.246C34.466 70.0264 30.5705 69.4167 26.5417 69.4167C24.4183 69.4167 22.3304 69.5936 20.2778 69.9475C18.228 70.3068 16.2326 70.8785 14.2917 71.6625C12.8108 72.2532 11.4197 72.0885 10.1185 71.1684C8.81727 70.2456 8.16666 68.9757 8.16666 67.3587V28.0525C8.16666 27.0453 8.44568 26.1347 9.00374 25.3208C9.56179 24.5095 10.2927 23.9338 11.1965 23.5935C13.5948 22.5346 16.0897 21.741 18.6812 21.2129C21.2728 20.6821 23.8929 20.4167 26.5417 20.4167C30.5433 20.4167 34.4184 21.0319 38.1669 22.2623C41.9181 23.4928 45.5292 25.1288 49 27.1705V71.5563C52.4191 69.3786 56.0465 67.7969 59.8821 66.8115C63.7204 65.8261 67.5792 65.3333 71.4583 65.3333C73.6987 65.3333 75.7308 65.4586 77.5547 65.709C79.3786 65.9622 81.325 66.3923 83.3939 66.9993C83.971 67.1545 84.5073 67.1681 85.0027 67.0402C85.5009 66.9068 85.75 66.4739 85.75 65.7417V23.0218C86.142 23.1035 86.5176 23.2124 86.877 23.3485C87.2363 23.4873 87.5766 23.6724 87.8978 23.9038C88.543 24.2441 89.0275 24.7287 89.3515 25.3575C89.6727 25.9836 89.8333 26.671 89.8333 27.4196V67.2035C89.8333 68.8205 89.1432 70.0768 87.7631 70.9724C86.3856 71.868 84.8775 72.045 83.2387 71.5033C81.3468 70.771 79.4154 70.2401 77.4445 69.9108C75.4736 69.5814 73.4782 69.4167 71.4583 69.4167C67.375 69.4167 63.4005 69.9883 59.535 71.1317C55.6749 72.2696 52.1115 74.0526 48.8448 76.4808ZM57.1667 61.25V26.5417L77.5833 6.125V42.875L57.1667 61.25ZM44.9167 69.6127V29.5797C42.042 28.0008 39.0693 26.7594 35.9987 25.8557C32.928 24.9519 29.7757 24.5 26.5417 24.5C24.0236 24.5 21.692 24.7246 19.5469 25.1738C17.3991 25.6256 15.4636 26.1973 13.7404 26.8888C13.3239 27.0439 12.97 27.2658 12.6787 27.5543C12.3929 27.8429 12.25 28.1968 12.25 28.616V65.9213C12.25 66.6563 12.4991 67.0892 12.9972 67.2198C13.4927 67.3505 14.029 67.3097 14.6061 67.0973C16.2557 66.5284 18.0442 66.0928 19.9716 65.7907C21.9016 65.4858 24.0917 65.3333 26.5417 65.3333C30.1949 65.3333 33.6276 65.7594 36.8398 66.6114C40.052 67.4662 42.7443 68.4666 44.9167 69.6127Z" fill="#F4BA34"/>
</svg>
