<svg width="60" height="60" viewBox="0 0 60 60" fill="none" xmlns="http://www.w3.org/2000/svg">
<g clip-path="url(#clip0_172_1416)">
<path fill-rule="evenodd" clip-rule="evenodd" d="M30.6374 40.9738C27.9604 40.9738 25.5385 39.5226 24.2637 37.1881C20.6308 38.7024 16.3604 36.9988 14.8308 33.4024C14.4483 32.5191 14.2571 31.5726 14.2571 30.6262C14.2571 30.2476 14.2996 29.848 14.3846 29.4274C10.8791 27.6607 9.47692 23.3703 11.2615 19.8369C12.345 17.8179 14.3209 16.4298 16.6154 16.0512C16.5729 15.7147 16.5516 15.3572 16.5516 14.9786C16.5516 11.0667 19.7385 7.84883 23.6901 7.84883C24.5824 7.84883 25.411 7.97502 26.2396 8.2905C27.9604 4.75717 32.2308 3.24288 35.8 4.94645C37.5846 5.76669 38.9868 7.34407 39.5604 9.17383C43.2571 7.78574 47.4 9.55241 48.8659 13.2119C49.1846 14.0953 49.3758 14.9155 49.3758 15.7988C49.3758 15.883 49.3758 15.9671 49.3758 16.0512C53.3275 16.3036 56.3231 19.7107 56.0044 23.6226C55.7494 27.2191 52.8176 30.0584 49.2483 30.2476C50.3319 33.9703 48.1648 37.9453 44.4044 39.081C41.7275 39.8381 38.9231 39.081 37.0747 37.0619C35.8 39.4596 33.3143 40.9738 30.6374 40.9738ZM25.6659 35.5476C26.622 38.2607 29.5538 39.6488 32.2945 38.7655C34.1428 38.1345 35.4176 36.6203 35.7363 34.7274C35.8637 34.2226 36.3736 33.8441 36.8835 33.9703C37.2022 33.9703 37.4571 34.2226 37.6483 34.475C38.8593 37.0619 41.9824 38.1345 44.5956 36.8726C47.2088 35.6738 48.2923 32.5822 47.0176 29.9953C46.9751 29.8691 46.9113 29.7429 46.8264 29.6167C46.5714 29.175 46.6989 28.6072 47.2088 28.2917C47.4 28.1655 47.6549 28.1655 47.8461 28.1655C48.1861 28.2496 48.526 28.2917 48.8659 28.2917C51.7341 28.2917 54.0286 25.9572 54.0286 23.1179C54.0286 20.2786 51.7341 17.9441 48.8659 17.9441C48.696 17.9441 48.526 17.9441 48.356 17.9441C47.7824 18.0072 47.3363 17.6286 47.2725 17.1238C47.2725 16.9976 47.2725 16.8925 47.2725 16.8084C47.8461 14.0322 45.9978 11.3191 43.1934 10.7512C41.8549 10.4988 40.5165 10.7512 39.3692 11.4453C38.9231 11.7607 38.3494 11.5715 38.0308 11.1298C37.9458 11.0036 37.9033 10.8774 37.9033 10.7512C37.5209 7.91193 34.9077 5.89288 32.1033 6.27145C30 6.52383 28.2791 7.91193 27.7055 9.93098C27.578 10.4357 27.0044 10.6881 26.4945 10.5619C26.4095 10.5619 26.3458 10.5409 26.3033 10.4988C23.7538 9.11074 20.567 9.99407 19.1648 12.4548C18.4637 13.7167 18.2725 15.2941 18.7824 16.6822C18.9736 17.1869 18.6549 17.7548 18.145 17.881C18.0601 17.923 17.9538 17.9441 17.8264 17.9441H17.6352C14.767 17.9441 12.4725 20.2786 12.4088 23.1179C12.4088 25.2631 13.811 27.2191 15.8505 27.9762C16.3604 28.1655 16.6154 28.6703 16.4879 29.175C15.6593 31.8881 17.189 34.7905 19.9934 35.6107C21.3956 35.9893 22.9253 35.8 24.2 35.0429C24.37 34.9167 24.5612 34.8536 24.7736 34.8536C25.156 34.8536 25.5385 35.1691 25.6659 35.5476Z" fill="#231F20"/>
<path fill-rule="evenodd" clip-rule="evenodd" d="M21.6511 56.6214C18.9742 56.6214 16.4885 55.1702 15.2775 52.8357C11.5808 54.35 7.37422 52.7095 5.84455 49.05C5.46213 48.1666 5.27092 47.2202 5.27092 46.2738C5.27092 45.8952 5.31341 45.4956 5.39839 45.075C1.82916 43.3083 0.490702 39.0178 2.27532 35.5476C3.35883 33.4654 5.33466 32.0773 7.62916 31.7619C7.11927 28.7333 8.64894 25.7678 11.3896 24.3166C11.8358 24.0642 12.4731 24.2535 12.7281 24.7583C12.7281 24.8004 12.7493 24.8424 12.7918 24.8845C13.3017 26.3357 14.4489 27.4083 15.8511 27.9761C16.361 28.1654 16.616 28.6702 16.4885 29.175C15.6599 31.8881 17.1896 34.7904 19.994 35.6107C21.3962 35.9892 22.9896 35.8 24.2006 35.0428C24.7105 34.7273 25.2841 34.8535 25.6028 35.3583C25.6453 35.4004 25.6665 35.4635 25.6665 35.5476C26.6226 38.2607 29.5544 39.6488 32.2951 38.7654C34.1434 38.1345 35.4182 36.6202 35.7369 34.7273C35.8643 34.2226 36.3742 33.844 36.8841 33.9702C37.2028 33.9702 37.4577 34.2226 37.6489 34.475C38.4775 36.2416 40.3259 37.3773 42.3017 37.4404C43.3852 37.4404 44.405 37.125 45.2973 36.494C45.7435 36.1785 46.3808 36.3047 46.6995 36.7464C46.742 36.8305 46.7845 36.9357 46.827 37.0619C47.783 40.8476 45.4248 44.7595 41.6006 45.7059C41.1332 45.79 40.6658 45.8531 40.1984 45.8952C41.3456 49.6809 39.1786 53.5928 35.4182 54.7285C32.7413 55.4857 29.9369 54.7285 28.0248 52.7095C26.8138 55.1071 24.3281 56.6214 21.6511 56.6214ZM15.7874 50.5642C16.1698 50.5642 16.5522 50.8166 16.6797 51.1952C17.6358 53.9083 20.5676 55.3595 23.3083 54.4131C25.0929 53.7821 26.4314 52.2678 26.75 50.375C26.8775 49.8702 27.3874 49.4916 27.8973 49.6178C28.216 49.6809 28.4709 49.8702 28.5984 50.1226C29.8731 52.7095 32.9962 53.7821 35.6094 52.5833C38.1588 51.3214 39.3061 48.2928 38.0314 45.7059C37.9889 45.5797 37.9251 45.4535 37.8402 45.3273C37.5852 44.8226 37.7127 44.2547 38.2226 43.9392C38.4138 43.8761 38.605 43.8131 38.8599 43.8762C39.1999 43.9182 39.5185 43.9392 39.816 43.9392C42.6841 43.9392 45.0424 41.6678 45.0424 38.8285C42.3017 39.9642 39.0511 39.2702 37.0116 37.0619C35.227 40.5952 30.8929 41.9833 27.3874 40.2166C26.0489 39.5226 24.9654 38.5131 24.2643 37.1881C20.6314 38.7023 16.361 36.9988 14.8314 33.4023C14.3215 32.1404 14.1303 30.7523 14.3852 29.4273C13.1105 28.7964 12.0907 27.85 11.3896 26.6511C9.73246 27.9761 9.0951 30.2476 9.7962 32.3297C9.98741 32.8345 9.66872 33.4023 9.15883 33.5285C9.07385 33.5706 8.96763 33.5916 8.84015 33.5916H8.64894C5.78081 33.5916 3.42257 35.9261 3.42257 38.7654C3.42257 40.9107 4.82477 42.8666 6.86433 43.6238C7.37422 43.8131 7.62916 44.3178 7.50169 44.8226C6.67312 47.5357 8.20279 50.4381 11.0072 51.2583C12.4094 51.6369 13.9391 51.4476 15.2138 50.6904C15.3837 50.6063 15.575 50.5642 15.7874 50.5642Z" fill="#231F20"/>
<path d="M24.3906 28.1024C21.5862 28.1024 19.3555 25.894 19.3555 23.1809C19.3555 20.4047 21.5862 18.1964 24.3269 18.1964C25.6654 18.1964 26.9401 18.7012 27.8961 19.6476C28.2785 20.0262 28.2785 20.6571 27.8961 21.0357C27.5137 21.4143 26.8763 21.4143 26.4939 21.0357C25.3467 19.9 23.4346 19.9 22.2236 21.0357C21.0763 22.2345 21.0763 24.0643 22.2236 25.2631C23.4346 26.3988 25.3467 26.3988 26.4939 25.2631C26.8763 24.8845 27.5137 24.9476 27.8961 25.3262C28.2148 25.7047 28.2148 26.2726 27.8961 26.6512C26.9401 27.5976 25.6654 28.1024 24.3906 28.1024Z" fill="#231F20"/>
<path fill-rule="evenodd" clip-rule="evenodd" d="M33.4421 28.1024C30.7015 28.1024 28.4707 25.894 28.4707 23.1809C28.4707 20.4047 30.7015 18.1964 33.4421 18.1964C36.1828 18.1964 38.4136 20.4047 38.4136 23.1178C38.4136 25.894 36.1828 28.1024 33.4421 28.1024ZM30.4465 23.1178C30.4465 24.8214 31.785 26.1464 33.4421 26.1464C35.0993 26.1464 36.5015 24.8214 36.5015 23.1809C36.5015 23.1809 36.5015 23.1599 36.5015 23.1178C36.4377 21.4774 35.0993 20.1524 33.4421 20.1524C31.785 20.1524 30.4465 21.4774 30.4465 23.1178Z" fill="#231F20"/>
<path d="M43.704 30.5H40.3259C39.7523 30.5 39.3062 30.0583 39.3062 29.5535C39.3062 29.3011 39.4336 29.0488 39.5611 28.9226L42.0468 26.1464C42.3018 25.894 42.3018 25.7047 42.3018 25.7047C42.238 25.5785 41.8556 25.3892 41.5369 25.4523C41.3457 25.5154 41.2182 25.5785 41.2182 25.894C41.1545 26.3988 40.7084 26.8404 40.1347 26.7773C39.6248 26.7142 39.1787 26.2726 39.2424 25.7047C39.3062 24.6321 40.0073 23.8119 41.0908 23.5595C42.1743 23.3071 43.449 23.8119 44.0226 24.6952C44.4688 25.5154 44.3413 26.588 43.5127 27.4083L42.493 28.544H43.704C44.2776 28.544 44.7237 28.9857 44.7237 29.5535C44.7237 30.0583 44.2776 30.5 43.704 30.5Z" fill="#231F20"/>
<path fill-rule="evenodd" clip-rule="evenodd" d="M35.4168 54.6655C34.8431 54.6655 34.397 54.2238 34.397 53.719C34.397 53.2774 34.7157 52.8988 35.0981 52.7726C37.775 51.8262 39.2409 48.8607 38.2212 46.2107C38.1362 45.8742 38.0087 45.5798 37.8388 45.3274C37.5838 44.8226 37.7113 44.2548 38.2212 43.9393C38.4124 43.8762 38.6673 43.8131 38.8585 43.8762C39.1985 43.9183 39.5171 43.9393 39.8146 43.9393C42.6827 43.9393 45.0409 41.6679 45.0409 38.8286H44.9772V38.8917H44.9135L44.8497 38.9548H44.786H44.6585V39.0179H44.5948C44.5523 39.0179 44.5098 39.0179 44.4673 39.0179V39.081H44.3398H44.2761L44.1486 39.144H44.0849H43.9574L43.7662 39.2071H43.6388H43.575C43.5325 39.2492 43.49 39.2702 43.4475 39.2702H43.3838C43.3413 39.2702 43.2988 39.2702 43.2563 39.2702H43.0651C43.0226 39.3123 42.9589 39.3333 42.8739 39.3333C42.8314 39.3333 42.7677 39.3333 42.6827 39.3333H42.4915H42.3003C41.7904 39.3333 41.3442 38.8917 41.3442 38.3238C41.3442 37.819 41.7904 37.3774 42.3003 37.3774H42.619H42.7464C42.7889 37.3774 42.8314 37.3774 42.8739 37.3774L43.0014 37.3143H43.1289H43.2563H43.3838L43.5113 37.2512H43.6388H43.7025H43.7662L43.83 37.1881H43.8937H43.9574H44.0212V37.125H44.0849H44.1486L44.2124 37.0619H44.2761H44.3398V36.9988H44.4036H44.4673V36.9357H44.5311C44.701 36.8937 44.8497 36.8726 44.9772 36.8726C45.0622 36.7044 45.1684 36.5782 45.2959 36.494C47.5267 34.9798 48.2278 32.0143 46.8256 29.6798C46.5706 29.175 46.6981 28.6071 47.1442 28.3548C47.3992 28.2286 47.6541 28.1655 47.8453 28.2286C48.1853 28.2706 48.5252 28.2917 48.8651 28.2917C49.5025 28.2917 50.2036 28.1655 50.8409 27.9131C51.3508 27.6607 51.9245 27.9131 52.1794 28.4179C52.1794 28.4599 52.2007 28.523 52.2431 28.6071C52.2856 28.9857 52.3069 29.3853 52.3069 29.806C52.3069 29.848 52.3069 29.9111 52.3069 29.9952C56.2585 30.2476 59.2541 33.7179 58.9355 37.6298C58.6805 41.1631 55.8124 44.0024 52.1794 44.1917C53.3267 47.9774 51.1596 51.9524 47.3355 53.025C44.7223 53.8452 41.8541 53.025 40.0058 51.069C39.1135 52.7726 37.5838 54.0345 35.7355 54.6024C35.608 54.6444 35.5018 54.6655 35.4168 54.6655ZM40.5157 48.356C40.5157 48.398 40.5369 48.4401 40.5794 48.4821C41.7904 51.006 44.9135 52.1417 47.5267 50.8798C50.1398 49.681 51.2234 46.5893 50.0124 44.0024C49.9274 43.8762 49.8424 43.75 49.7574 43.6238C49.5025 43.119 49.6937 42.5512 50.1398 42.2988C50.3311 42.1726 50.586 42.1095 50.8409 42.1726C53.6453 42.6774 56.386 40.8476 56.8959 38.0714C57.4695 35.2321 55.6212 32.519 52.753 32.0143C52.4556 31.9722 52.1369 31.9512 51.797 31.9512C51.627 31.9512 51.4571 31.9512 51.2871 31.9512C50.7772 32.0143 50.2673 31.5726 50.2036 31.0679C50.2036 30.9837 50.2248 30.8996 50.2673 30.8155C50.3098 30.5631 50.3311 30.3107 50.3311 30.0583C49.9486 30.1425 49.5662 30.2056 49.1838 30.2476C50.0124 32.9607 49.1201 35.8631 46.953 37.6929C46.9955 38.0714 47.0168 38.429 47.0168 38.7655C47.0168 42.5512 44.0212 45.706 40.197 45.8952C40.4094 46.5683 40.5157 47.2413 40.5157 47.9143C40.5157 48.0405 40.5157 48.1877 40.5157 48.356ZM21.4585 37.756H21.1399H20.8849H20.7574H20.6937H20.5662C20.4812 37.7139 20.4175 37.6929 20.375 37.6929H20.2475H20.1838H20.0563L19.8651 37.6298H19.8014L19.7377 37.5667H19.6739H19.5464H19.4827L19.3552 37.5036H19.2278L19.164 37.4405L19.0366 37.3774H18.9728H18.9091L18.8453 37.3143H18.7179L18.6541 37.2512L18.5267 37.1881H18.4629L18.3992 37.125H18.3355C18.293 37.125 18.2717 37.104 18.2717 37.0619H18.208C18.1655 37.0198 18.123 36.9988 18.0805 36.9988L18.0168 36.9357H17.953V36.8726H17.8893C17.8468 36.8726 17.8043 36.8516 17.7618 36.8095H17.6981L17.6344 36.7464L17.5706 36.6833L17.5069 36.6202H17.4431L17.3157 36.5571V36.494L17.2519 36.431H17.1882L17.1245 36.3679C17.1245 36.3679 17.1032 36.3679 17.0607 36.3679C17.0607 36.3258 17.0607 36.3048 17.0607 36.3048L16.9333 36.2417V36.1786H16.8695L16.8058 36.1155H16.742L16.6783 36.0524C16.6783 36.0103 16.6783 35.9893 16.6783 35.9893C16.6358 35.9893 16.6146 35.9683 16.6146 35.9262H16.5508C16.5083 35.8421 16.4659 35.779 16.4234 35.7369L16.3596 35.6738C16.3171 35.6317 16.2746 35.6107 16.2322 35.6107V35.5476C16.1047 35.3794 16.0197 35.2111 15.9772 35.0429C15.8073 34.9587 15.6585 34.8325 15.5311 34.6643C15.4886 34.6222 15.4673 34.6012 15.4673 34.6012C15.4673 34.5591 15.4461 34.5171 15.4036 34.475C15.0849 34.0333 15.2124 33.4024 15.6585 33.0869C16.1047 32.7714 16.742 32.8976 16.997 33.3393L17.0607 33.4024C17.1032 33.4444 17.1245 33.4655 17.1245 33.4655V33.5286C17.2094 33.6127 17.2732 33.7389 17.3157 33.9071C17.4431 33.9492 17.5494 34.0333 17.6344 34.1595C17.6768 34.2016 17.7193 34.2226 17.7618 34.2226V34.2857C17.8043 34.2857 17.8256 34.3067 17.8256 34.3488C17.8681 34.3488 17.8893 34.3698 17.8893 34.4119H17.953V34.475H18.0168V34.5381H18.0805L18.1442 34.6012L18.208 34.6643H18.2717V34.7274H18.3355V34.7905H18.3992L18.4629 34.8536L18.5267 34.9167H18.5904L18.6541 34.9798L18.7179 35.0429H18.7816L18.8453 35.106H18.9091L18.9728 35.169L19.1003 35.2321L19.2278 35.2952H19.2915L19.3552 35.3583H19.419H19.4827L19.5464 35.4214H19.6102L19.6739 35.4845H19.8014L19.9289 35.5476H20.0563L20.1838 35.6107H20.2475H20.3113H20.4388L20.5025 35.6738H20.5662H20.63H20.6937H20.8212H20.9486H21.0761H21.4585C22.0322 35.6738 22.4783 36.1155 22.4783 36.6833C22.4783 37.2512 22.0322 37.6298 21.4585 37.6298V37.756Z" fill="#231F20"/>
<path d="M23.8182 46.3369H23.7545C12.5369 45.7691 12.3457 40.0905 12.3457 39.8381H14.3215C14.3215 39.8381 14.3853 40.7846 15.4688 41.8572C16.616 42.8667 18.9743 44.1286 23.882 44.381C24.3919 44.4441 24.838 44.8858 24.838 45.3905C24.7743 45.9584 24.3281 46.4 23.8182 46.3369Z" fill="#231F20"/>
</g>
<defs>
<clipPath id="clip0_172_1416">
<rect width="58" height="53" fill="white" transform="translate(1 4)"/>
</clipPath>
</defs>
</svg>
