<svg width="60" height="60" viewBox="0 0 60 60" fill="none" xmlns="http://www.w3.org/2000/svg">
<g clip-path="url(#clip0_169_1192)">
<path fill-rule="evenodd" clip-rule="evenodd" d="M5.09766 11.9982C5.14623 10.4564 6.40908 9.15548 7.96337 9.15548H10.1491V7.03548C10.1491 5.44548 11.4119 4.19275 12.9662 4.19275C13.0148 4.19275 43.0319 4.19275 43.0319 4.19275C44.6348 4.19275 45.8977 5.44548 45.8977 7.03548V8.86639C45.8977 9.39639 45.5091 9.78184 45.0234 9.78184C44.4891 9.78184 44.1005 9.39639 44.1005 8.86639V7.03548C44.1005 6.45729 43.6148 5.97548 43.0319 5.97548H34.2405C34.2405 5.97548 34.2243 5.97548 34.1919 5.97548H12.9662C12.3834 5.97548 11.9462 6.45729 11.9462 7.03548V49.0018C11.9462 49.58 12.3834 50.0618 12.9662 50.0618H43.0319C43.6148 50.0618 44.1005 49.58 44.1005 49.0018V34.2582C44.1005 33.7764 44.4891 33.3909 45.0234 33.3909C45.5091 33.3909 45.8977 33.7764 45.8977 34.2582V49.0018C45.8977 50.5437 44.6348 51.8446 43.0319 51.8446H40.8948V53.9646C40.8948 55.5546 39.5834 56.8073 38.0291 56.8073H7.96337C6.40908 56.8073 5.14623 55.5546 5.09766 53.9646V11.9982ZM6.8948 53.9646C6.8948 54.5427 7.38051 55.0246 7.96337 55.0246H38.0291C38.6119 55.0246 39.0977 54.5427 39.0977 53.9646V51.8446H12.9662C11.4119 51.8446 10.1491 50.5437 10.1491 49.0018V10.9382H7.96337C7.38051 10.9382 6.8948 11.42 6.8948 11.9982V53.9646Z" fill="#009DC1"/>
<path d="M45.8965 27.8018V26.9827C46.7707 26.79 47.4993 26.2118 47.9365 25.4409C48.6165 24.0436 48.1793 22.6464 46.7708 21.5864C46.3498 21.2973 45.8965 21.0242 45.4107 20.7673C45.0222 20.6067 44.666 20.3979 44.3422 20.1409C43.2736 19.37 43.565 18.7436 43.6622 18.5027C44.0022 18.0209 44.4879 17.78 45.0707 17.78C45.6536 17.6836 46.1879 17.9245 46.5279 18.4064C46.7222 18.8882 47.2079 19.0809 47.6936 18.9364C48.1308 18.7436 48.3736 18.2618 48.1793 17.78C48.1793 17.78 48.1793 17.7639 48.1793 17.7318C47.7908 16.8164 46.9165 16.19 45.8965 16.0454V15.3709C45.8965 14.8409 45.5079 14.4554 45.0222 14.4554C44.4879 14.4554 44.0993 14.8409 44.0993 15.3709V16.1418C43.225 16.3345 42.4965 16.9127 42.0593 17.6836C41.3793 19.0809 41.8165 20.5264 43.2736 21.5864C43.6946 21.8754 44.1317 22.1324 44.585 22.3573C44.9736 22.55 45.346 22.7588 45.7022 22.9836C46.7708 23.8027 46.4793 24.4291 46.3336 24.67C45.9936 25.1036 45.5079 25.3927 44.9736 25.3927C44.3422 25.3927 43.6622 25.2 43.4679 24.7182C43.2736 24.2845 42.7879 24.0436 42.3022 24.2364C41.865 24.4291 41.6222 24.9591 41.8165 25.3927C42.2536 26.3082 43.0793 26.9827 44.0993 27.0791V27.8018C44.0993 28.2836 44.4879 28.6691 45.0222 28.6691C45.5079 28.6691 45.8965 28.2836 45.8965 27.8018Z" fill="#009DC1"/>
<path fill-rule="evenodd" clip-rule="evenodd" d="M45.0233 32.1864C39.0976 32.1864 34.2891 27.4646 34.2891 21.5864C34.2891 15.7082 39.0976 10.9382 44.9748 10.9382C50.9005 10.9382 55.7091 15.7082 55.7091 21.5864C55.7091 27.4646 50.9005 32.1864 45.0233 32.1864ZM45.0233 30.4519C49.9291 30.4519 53.9119 26.4528 53.9119 21.5864C53.9119 16.6719 49.9291 12.721 45.0233 12.721C40.0691 12.721 36.0862 16.6719 36.0862 21.5864C36.0862 26.4528 40.0691 30.4037 45.0233 30.4519Z" fill="#009DC1"/>
<path d="M15.3467 12.721H24.5753C25.061 12.721 25.4495 12.3355 25.4495 11.8537C25.4495 11.3719 25.061 10.9382 24.5753 10.9382H15.3467C14.8124 10.9382 14.4238 11.3719 14.4238 11.8537C14.4238 12.3355 14.8124 12.721 15.3467 12.721Z" fill="#009DC1"/>
<path d="M15.3467 17.78H32.4438C32.9295 17.78 33.3181 17.3946 33.3181 16.9128C33.3181 16.3828 32.9295 15.9973 32.4438 15.9973H15.3467C14.8124 15.9973 14.4238 16.3828 14.4238 16.9128C14.4238 17.3946 14.8124 17.78 15.3467 17.78Z" fill="#009DC1"/>
<path d="M15.3467 22.8391H31.5695C32.0553 22.8391 32.4438 22.4537 32.4438 21.9718C32.4438 21.4418 32.0553 21.0564 31.5695 21.0564H15.3467C14.8124 21.0564 14.4238 21.4418 14.4238 21.9718C14.4238 22.4537 14.8124 22.8391 15.3467 22.8391Z" fill="#009DC1"/>
<path fill-rule="evenodd" clip-rule="evenodd" d="M14.4238 27.0309C14.4238 26.5009 14.8124 26.1155 15.3467 26.1155H31.5695C32.0553 26.1155 32.4438 26.5009 32.4438 27.0309V32.1382C32.4438 32.62 32.0553 33.0055 31.5695 33.0055H15.3467C14.8124 33.0055 14.4238 32.62 14.4238 32.1382V27.0309ZM16.221 31.2709H30.6953V27.8982H16.221V31.2709Z" fill="#009DC1"/>
<path d="M40.7 36.2336H34.3372C33.8515 36.2336 33.4629 36.6673 33.4629 37.1491C33.4629 37.6309 33.8515 38.0164 34.3372 38.0164H40.7C41.1857 38.0164 41.5743 37.6309 41.5743 37.1491C41.5743 36.6673 41.1857 36.2336 40.7 36.2336Z" fill="#009DC1"/>
<path d="M28.0225 43.0755H40.6996C41.1853 43.0755 41.5739 42.69 41.5739 42.2082C41.5739 41.7264 41.1853 41.2927 40.6996 41.2927H28.0225C27.5368 41.2927 27.0996 41.7264 27.0996 42.2082C27.0996 42.69 27.5368 43.0755 28.0225 43.0755Z" fill="#009DC1"/>
</g>
<defs>
<clipPath id="clip0_169_1192">
<rect width="51" height="53" fill="white" transform="translate(5 4)"/>
</clipPath>
</defs>
</svg>
