<svg width="60" height="60" viewBox="0 0 60 60" fill="none" xmlns="http://www.w3.org/2000/svg">
<g clip-path="url(#clip0_169_1188)">
<path fill-rule="evenodd" clip-rule="evenodd" d="M25.1368 31.15C28.8524 31.15 31.8341 34.14 31.8341 37.866V51.896C31.8341 52.356 31.4212 52.77 30.9625 52.77H6.19187C5.68728 52.77 5.32031 52.356 5.32031 51.896V37.866C5.32031 34.14 8.30196 31.15 12.0176 31.15H13.4396C11.513 29.632 10.2744 27.24 10.2744 24.572C10.2744 19.972 13.99 16.246 18.5772 16.246C23.1643 16.246 26.8799 19.972 26.8799 24.572C26.8799 27.24 25.6414 29.632 23.6689 31.15H25.1368ZM26.513 50.976H30.091V37.866C30.091 35.106 27.8891 32.898 25.1368 32.898H12.0176C9.31114 32.898 7.1093 35.106 7.1093 37.866V50.976H10.6873V43.938C10.6873 43.478 11.1001 43.064 11.5588 43.064C12.0634 43.064 12.4304 43.478 12.4304 43.938V50.976H24.724V43.938C24.724 43.478 25.1368 43.064 25.5955 43.064C26.1001 43.064 26.513 43.478 26.513 43.938V50.976ZM12.0634 24.572C12.0634 28.206 14.9992 31.15 18.5772 31.15C22.201 31.15 25.1368 28.206 25.1368 24.572C25.1368 20.938 22.201 17.994 18.5772 17.994C14.9992 17.994 12.0634 20.938 12.0634 24.572Z" fill="#231F20"/>
<path d="M40.5959 13.532C38.9446 13.946 37.6602 15.464 37.6602 17.258C37.6602 19.374 39.4033 21.076 41.4675 21.076C42.6143 21.076 43.5317 21.996 43.5317 23.146C43.5317 24.25 42.6143 25.17 41.4675 25.17C40.3666 25.17 39.4491 24.25 39.4491 23.146C39.4491 22.64 39.0363 22.226 38.5776 22.226C38.073 22.226 37.6602 22.64 37.6602 23.146C37.6602 24.94 38.9446 26.458 40.5959 26.826V28.252C40.5959 28.712 41.0088 29.126 41.4675 29.126C41.9721 29.126 42.3849 28.712 42.3849 28.252V26.826C44.0363 26.458 45.2748 24.94 45.2748 23.146C45.2748 21.03 43.5776 19.328 41.4675 19.328C40.3666 19.328 39.4491 18.408 39.4491 17.258C39.4491 16.108 40.3666 15.188 41.4675 15.188C42.6143 15.188 43.5317 16.108 43.5317 17.258C43.5317 17.764 43.9446 18.132 44.4033 18.132C44.9079 18.132 45.2748 17.764 45.2748 17.258C45.2748 15.464 44.0363 13.946 42.3849 13.532V12.152C42.3849 11.646 41.9721 11.278 41.4675 11.278C41.0088 11.278 40.5959 11.646 40.5959 12.152V13.532Z" fill="#231F20"/>
<path fill-rule="evenodd" clip-rule="evenodd" d="M54.6789 20.202C54.6789 27.47 48.7614 33.404 41.4679 33.404C34.2202 33.404 28.3027 27.47 28.3027 20.202C28.3027 12.888 34.2202 7 41.4679 7C48.7614 7 54.6789 12.888 54.6789 20.202ZM30.0917 20.202C30.0917 26.504 35.1835 31.61 41.4679 31.61C47.7981 31.61 52.8899 26.504 52.8899 20.202C52.8899 13.854 47.7981 8.748 41.4679 8.748C35.1835 8.748 30.0917 13.854 30.0917 20.202Z" fill="#231F20"/>
</g>
<defs>
<clipPath id="clip0_169_1188">
<rect width="50" height="46" fill="white" transform="translate(5 7)"/>
</clipPath>
</defs>
</svg>
