<svg width="60" height="60" viewBox="0 0 60 60" fill="none" xmlns="http://www.w3.org/2000/svg">
<g clip-path="url(#clip0_169_1179)">
<path d="M19.3952 25.873C19.865 25.873 20.2493 26.2516 20.2493 26.7143C20.2493 27.177 19.865 27.5556 19.3952 27.5556C18.9254 27.5556 18.541 27.177 18.541 26.7143C18.541 26.2516 18.9254 25.873 19.3952 25.873Z" fill="#231F20"/>
<path d="M22.8132 25.873C23.2829 25.873 23.6673 26.2516 23.6673 26.7143C23.6673 27.177 23.2829 27.5556 22.8132 27.5556C22.3434 27.5556 21.959 27.177 21.959 26.7143C21.959 26.2516 22.3434 25.873 22.8132 25.873Z" fill="#231F20"/>
<path d="M19.3952 30.9207C19.865 30.9207 20.2493 31.2992 20.2493 31.7619C20.2493 32.2246 19.865 32.6032 19.3952 32.6032C18.9254 32.6032 18.541 32.2246 18.541 31.7619C18.541 31.2992 18.9254 30.9207 19.3952 30.9207Z" fill="#231F20"/>
<path d="M22.8132 30.9207C23.2829 30.9207 23.6673 31.2992 23.6673 31.7619C23.6673 32.2246 23.2829 32.6032 22.8132 32.6032C22.3434 32.6032 21.959 32.2246 21.959 31.7619C21.959 31.2992 22.3434 30.9207 22.8132 30.9207Z" fill="#231F20"/>
<path d="M19.3952 35.9683C19.865 35.9683 20.2493 36.3468 20.2493 36.8095C20.2493 37.2722 19.865 37.6508 19.3952 37.6508C18.9254 37.6508 18.541 37.2722 18.541 36.8095C18.541 36.3468 18.9254 35.9683 19.3952 35.9683Z" fill="#231F20"/>
<path d="M22.8132 35.9683C23.2829 35.9683 23.6673 36.3468 23.6673 36.8095C23.6673 37.2722 23.2829 37.6508 22.8132 37.6508C22.3434 37.6508 21.959 37.2722 21.959 36.8095C21.959 36.3468 22.3434 35.9683 22.8132 35.9683Z" fill="#231F20"/>
<path d="M24.5202 28.3969C24.99 28.3969 25.3743 28.7754 25.3743 29.2381C25.3743 29.7008 24.99 30.0794 24.5202 30.0794C24.0504 30.0794 23.666 29.7008 23.666 29.2381C23.666 28.7754 24.0504 28.3969 24.5202 28.3969Z" fill="#231F20"/>
<path d="M17.6882 28.3969C18.1579 28.3969 18.5423 28.7754 18.5423 29.2381C18.5423 29.7008 18.1579 30.0794 17.6882 30.0794C17.2184 30.0794 16.834 29.7008 16.834 29.2381C16.834 28.7754 17.2184 28.3969 17.6882 28.3969Z" fill="#231F20"/>
<path d="M21.1042 23.3492C21.574 23.3492 21.9583 23.7278 21.9583 24.1905C21.9583 24.6532 21.574 25.0318 21.1042 25.0318C20.6344 25.0318 20.25 24.6532 20.25 24.1905C20.25 23.7278 20.6344 23.3492 21.1042 23.3492Z" fill="#231F20"/>
<path d="M21.1042 28.3969C21.574 28.3969 21.9583 28.7754 21.9583 29.2381C21.9583 29.7008 21.574 30.0794 21.1042 30.0794C20.6344 30.0794 20.25 29.7008 20.25 29.2381C20.25 28.7754 20.6344 28.3969 21.1042 28.3969Z" fill="#231F20"/>
<path d="M24.5202 33.4445C24.99 33.4445 25.3743 33.823 25.3743 34.2857C25.3743 34.7484 24.99 35.127 24.5202 35.127C24.0504 35.127 23.666 34.7484 23.666 34.2857C23.666 33.823 24.0504 33.4445 24.5202 33.4445Z" fill="#231F20"/>
<path d="M17.6882 33.4445C18.1579 33.4445 18.5423 33.823 18.5423 34.2857C18.5423 34.7484 18.1579 35.127 17.6882 35.127C17.2184 35.127 16.834 34.7484 16.834 34.2857C16.834 33.823 17.2184 33.4445 17.6882 33.4445Z" fill="#231F20"/>
<path d="M21.1042 33.4445C21.574 33.4445 21.9583 33.823 21.9583 34.2857C21.9583 34.7484 21.574 35.127 21.1042 35.127C20.6344 35.127 20.25 34.7484 20.25 34.2857C20.25 33.823 20.6344 33.4445 21.1042 33.4445Z" fill="#231F20"/>
<path fill-rule="evenodd" clip-rule="evenodd" d="M32.2083 35.9683C32.2083 36.431 31.824 36.8095 31.3542 36.8095C30.4146 36.8095 29.6458 37.5667 29.6458 38.4921V48.5873C29.6458 53.2143 25.8021 57 21.1042 57C16.4063 57 12.5625 53.2143 12.5625 48.5873V38.4921C12.5625 37.5667 11.7938 36.8095 10.8542 36.8095C10.3844 36.8095 10 36.431 10 35.9683C10 35.5056 10.3844 35.127 10.8542 35.127C11.7938 35.127 12.7333 35.2532 13.5875 35.4635C14.1 30.7524 15.5094 26.0833 17.8156 21.9191C18.499 20.6992 19.7375 19.9841 21.1042 19.9841C22.4708 19.9841 23.7094 20.6992 24.3927 21.9191C26.699 26.0833 28.1083 30.7524 28.6208 35.4635C29.475 35.2532 30.4146 35.127 31.3542 35.127C31.824 35.127 32.2083 35.5056 32.2083 35.9683ZM20.25 46.0635C20.25 42.0675 17.6875 38.6603 14.0573 37.3564C14.1997 37.7209 14.2708 38.0995 14.2708 38.4921V48.5873C14.2708 51.9944 16.876 54.8548 20.25 55.2754V46.0635ZM21.1042 41.8571C22.2146 39.2492 24.3073 37.146 26.9552 36.0103C26.8413 34.8606 26.6705 33.7109 26.4427 32.5611C26.4 32.5611 26.3146 32.6032 26.2292 32.6032C25.7594 32.6032 25.375 32.2246 25.375 31.7619C25.375 31.3413 25.674 31.0048 26.101 30.9206C25.375 28.0603 24.3073 25.2841 22.8979 22.6762C22.5135 22.0452 21.8302 21.6667 21.1042 21.6667C20.3781 21.6667 19.6948 22.0452 19.3104 22.6762C17.901 25.2841 16.8333 28.0603 16.1073 30.9206C16.5344 31.0048 16.8333 31.3413 16.8333 31.7619C16.8333 32.2246 16.449 32.6032 15.9792 32.6032C15.8938 32.6032 15.8083 32.5611 15.7656 32.5611C15.5378 33.7109 15.367 34.8606 15.2531 36.0103C17.901 37.146 19.9938 39.2492 21.1042 41.8571ZM28.151 37.3564C24.5208 38.6603 21.9583 42.0675 21.9583 46.0635V55.2754C25.3323 54.8548 27.9375 51.9944 27.9375 48.5873V38.4921C27.9375 38.0995 28.0087 37.7209 28.151 37.3564Z" fill="#231F20"/>
<path d="M21.7012 10.9825C21.3595 10.646 20.847 10.646 20.5053 10.9825L13.672 17.7127C13.3303 18.0492 13.3303 18.554 13.6293 18.8905C13.971 19.227 14.5262 19.227 14.8678 18.9325C14.8678 18.9045 14.8678 18.8905 14.8678 18.8905L21.1033 12.7492L23.922 15.5254C24.2637 15.8619 24.7762 15.8619 25.1178 15.5254C25.2887 15.3571 25.3741 15.1468 25.3741 14.9365V4.84127C25.3741 4.37857 24.9897 4 24.5199 4H14.2699C13.8001 4 13.4158 4.37857 13.4158 4.84127C13.4158 5.05159 13.5012 5.2619 13.672 5.43016L16.4908 8.20635L13.672 10.9825C13.3303 11.319 13.3303 11.8238 13.672 12.1603C14.0137 12.4968 14.5262 12.4968 14.8678 12.1603L18.2845 8.79524C18.6262 8.45873 18.6262 7.95397 18.2845 7.61746L16.3199 5.68254H23.6658V12.9175L21.7012 10.9825Z" fill="#231F20"/>
<path d="M50.1458 29.238H39.8958C39.426 29.238 39.0417 29.6166 39.0417 30.0793C39.0417 30.2896 39.1271 30.4999 39.2979 30.6682L42.1167 33.4444L35.8813 39.5857C35.5396 39.9222 35.5396 40.4269 35.8813 40.7634C36.2229 41.0999 36.7354 41.0999 37.0771 40.7634L43.9104 34.0333C44.2521 33.6968 44.2521 33.192 43.9104 32.8555L41.9458 30.9206H49.2917V38.1555L47.3271 36.2206C46.9854 35.8841 46.4729 35.8841 46.1313 36.2206L42.7146 39.5857C42.3729 39.9222 42.3729 40.4269 42.7146 40.7634C43.0563 41.0999 43.5688 41.0999 43.9104 40.7634L46.7292 37.9872L49.5479 40.7634C49.8896 41.0999 50.4021 41.0999 50.7438 40.7634C50.9146 40.5952 51 40.3849 51 40.1745V30.0793C51 29.6166 50.6156 29.238 50.1458 29.238Z" fill="#231F20"/>
<path d="M50.1452 4H36.4785C36.0087 4 35.6243 4.37857 35.6243 4.84127C35.6243 5.05159 35.7098 5.2619 35.8806 5.43016L39.5535 9.04762L31.6098 16.8714C31.2681 17.2079 31.2681 17.7127 31.6098 18.0492C31.9514 18.3857 32.4639 18.3857 32.8056 18.0492L41.3473 9.63651C41.6889 9.3 41.6889 8.79524 41.3473 8.45873L38.5285 5.68254H49.291V16.2825L46.4723 13.5064C46.1306 13.1698 45.6181 13.1698 45.2764 13.5064L36.7348 21.919C36.3931 22.2556 36.3931 22.7603 36.6921 23.0968C37.0337 23.4333 37.5889 23.4333 37.9306 23.1389C37.9306 23.1108 37.9306 23.0968 37.9306 23.0968L45.8743 15.273L49.5473 18.8905C49.8889 19.227 50.4014 19.227 50.7431 18.8905C50.9139 18.7222 50.9993 18.5119 50.9993 18.3016V4.84127C50.9993 4.37857 50.615 4 50.1452 4Z" fill="#231F20"/>
</g>
<defs>
<clipPath id="clip0_169_1179">
<rect width="41" height="53" fill="white" transform="translate(10 4)"/>
</clipPath>
</defs>
</svg>
