<svg width="60" height="60" viewBox="0 0 60 60" fill="none" xmlns="http://www.w3.org/2000/svg">
<g clip-path="url(#clip0_169_1182)">
<path fill-rule="evenodd" clip-rule="evenodd" d="M56 25.8333V54.1667C56 54.625 55.6273 55 55.1719 55H3.82812C3.37266 55 3 54.625 3 54.1667V15C3 12.25 5.23594 10 7.96875 10C10.7016 10 12.9375 12.25 12.9375 15V15.625C13.5586 15.2083 14.2625 15 15.0078 15C17.0781 15 18.7344 16.6667 18.7344 18.75V25H28.6719V20C28.6719 19.75 28.7961 19.5417 28.9617 19.375L34.7586 14.375C34.9242 14.25 35.0898 14.1667 35.2969 14.1667H45.2344C45.4414 14.1667 45.607 14.25 45.7727 14.375L51.5695 19.375C51.7352 19.5417 51.8594 19.75 51.8594 20V25H55.1719C55.6273 25 56 25.375 56 25.8333ZM54.3438 26.6667H48.1742L49.168 28.8333C49.3336 29.25 49.168 29.75 48.7539 29.9167C48.3398 30.0833 47.843 29.875 47.6359 29.5L46.3523 26.6667H42.1703L46.725 43.375C47.8016 43.5 48.7953 44 49.582 44.7917C49.8305 45.0694 50.0651 45.3611 50.2859 45.6667C51.1555 44.5 52.4805 43.7083 53.9297 43.4583L49.168 32.8333C48.9609 32.4167 49.168 31.9583 49.5406 31.75C49.9547 31.5833 50.4516 31.75 50.6586 32.1667L54.3438 40.3333V26.6667ZM41.3008 44.7917C41.5216 45.0139 41.7286 45.2639 41.9219 45.5417C42.1151 45.2639 42.3221 45.0139 42.543 44.7917C43.2055 44.125 44.075 43.625 45.0273 43.4167L40.4727 26.6667H36.2492L38.5266 43.375C39.5617 43.5417 40.5555 44.0417 41.3008 44.7917ZM50.2031 25V20.8333H41.9219V25H50.2031ZM44.9445 15.8333H37.5328L41.3836 19.1667H48.7953L44.9445 15.8333ZM30.3281 25H34.4688V22.5C34.4688 22.0417 34.8414 21.6667 35.2969 21.6667C35.7523 21.6667 36.125 22.0417 36.125 22.5V25H40.2656V20.375L35.2969 16.0833L30.3281 20.375V25ZM28.6719 31.6667V26.6667H24.4484L22.1711 43.4167C23.1648 43.5833 24.0344 44.0833 24.7383 44.7917C24.9867 45.0139 25.1937 45.2639 25.3594 45.5417C25.5526 45.2639 25.7596 45.0139 25.9805 44.7917C26.7258 44.0417 27.6781 43.5833 28.6719 43.4167V38.3333C28.6719 37.875 29.0445 37.5 29.5 37.5C29.9555 37.5 30.3281 37.875 30.3281 38.3333V43.4167C31.3633 43.5833 32.3156 44.0417 33.0195 44.7917C33.268 45.0139 33.475 45.2639 33.6406 45.5417C33.8339 45.2639 34.0409 45.0139 34.2617 44.7917C34.9656 44.0833 35.8766 43.625 36.8703 43.4167L34.593 26.6667H30.3281V31.6667C30.3281 32.125 29.9555 32.5 29.5 32.5C29.0445 32.5 28.6719 32.125 28.6719 31.6667ZM14.3039 39.2083C14.7594 39.2917 15.0078 39.75 14.8836 40.2083L14.0141 43.4583C14.925 43.625 15.7945 44.125 16.457 44.7917C16.7055 45.0139 16.9125 45.2639 17.0781 45.5417C17.2714 45.2639 17.4784 45.0139 17.6992 44.7917C18.4859 44.0417 19.4383 43.5417 20.5148 43.375L22.7508 26.6667H18.5687L15.7945 36.875C15.7945 36.9028 15.7807 36.9444 15.7531 37C15.6289 37.375 15.1734 37.625 14.7594 37.4583C14.3453 37.3333 14.0555 36.875 14.1797 36.4583L16.8297 26.6667H12.6477L5.07031 43.4583C6.10547 43.625 7.05781 44.0833 7.88594 44.75C8.21719 45 8.50703 45.3056 8.75547 45.6667C8.9487 45.3333 9.16953 45.0417 9.41797 44.7917C10.2047 44 11.2398 43.5 12.3164 43.375L13.2687 39.7917C13.393 39.3333 13.8484 39.0833 14.3039 39.2083ZM4.65625 40.3333L10.8258 26.6667H4.65625V40.3333ZM4.65625 15V25H17.0781V18.75C17.0781 17.625 16.1672 16.6667 15.0078 16.6667C13.8898 16.6667 12.9375 17.625 12.9375 18.75V20.8333C12.9375 21.2917 12.5648 21.6667 12.1094 21.6667C11.6539 21.6667 11.2812 21.2917 11.2812 20.8333V15C11.2812 13.1667 9.79063 11.6667 7.96875 11.6667C6.14687 11.6667 4.65625 13.1667 4.65625 15ZM54.3438 53.3333V45.0833C52.4805 45.375 51.0312 46.75 51.0312 48.3333C51.0312 48.7917 50.6586 49.1667 50.2031 49.1667C49.7477 49.1667 49.375 48.7917 49.375 48.3333C49.375 46.5 47.9258 45 46.0625 45C44.2406 45 42.75 46.5 42.75 48.3333C42.75 48.7917 42.3773 49.1667 41.9219 49.1667C41.4664 49.1667 41.0938 48.7917 41.0938 48.3333C41.0938 46.5 39.6445 45 37.7812 45C35.9594 45 34.4688 46.5 34.4688 48.3333C34.4688 48.7917 34.0961 49.1667 33.6406 49.1667C33.1852 49.1667 32.8125 48.7917 32.8125 48.3333C32.8125 46.5 31.3633 45 29.5 45C27.6781 45 26.1875 46.5 26.1875 48.3333C26.1875 48.7917 25.8148 49.1667 25.3594 49.1667C24.9039 49.1667 24.5312 48.7917 24.5312 48.3333C24.5312 46.5 23.082 45 21.2188 45C19.3969 45 17.9062 46.5 17.9062 48.3333C17.9062 48.7917 17.5336 49.1667 17.0781 49.1667C16.6227 49.1667 16.25 48.7917 16.25 48.3333C16.25 46.5 14.8008 45 12.9375 45C11.1156 45 9.625 46.5 9.625 48.3333C9.625 48.7917 9.25234 49.1667 8.79688 49.1667C8.34141 49.1667 7.96875 48.7917 7.96875 48.3333C7.96875 47.4167 7.55469 46.5833 6.80937 46.0417C6.18828 45.5417 5.44297 45.2083 4.65625 45.0833V53.3333H54.3438Z" fill="#231F20"/>
<path fill-rule="evenodd" clip-rule="evenodd" d="M19.5625 10C19.5625 7.25 21.7984 5 24.5312 5C27.2641 5 29.5 7.25 29.5 10C29.5 12.75 27.2641 15 24.5312 15C21.7984 15 19.5625 12.75 19.5625 10ZM21.2188 10C21.2188 11.8333 22.7094 13.3333 24.5312 13.3333C26.3531 13.3333 27.8438 11.8333 27.8438 10C27.8438 8.16667 26.3531 6.66667 24.5312 6.66667C22.7094 6.66667 21.2188 8.16667 21.2188 10Z" fill="#231F20"/>
<path d="M29.5 34.1666C29.9555 34.1666 30.3281 34.5416 30.3281 35C30.3281 35.4583 29.9555 35.8333 29.5 35.8333C29.0445 35.8333 28.6719 35.4583 28.6719 35C28.6719 34.5416 29.0445 34.1666 29.5 34.1666Z" fill="#231F20"/>
</g>
<defs>
<clipPath id="clip0_169_1182">
<rect width="53" height="50" fill="white" transform="translate(3 5)"/>
</clipPath>
</defs>
</svg>
