<svg width="60" height="60" viewBox="0 0 60 60" fill="none" xmlns="http://www.w3.org/2000/svg">
<g clip-path="url(#clip0_169_1179)">
<path d="M9.39518 24.873C9.86497 24.873 10.2493 25.2516 10.2493 25.7143C10.2493 26.177 9.86497 26.5556 9.39518 26.5556C8.92539 26.5556 8.54102 26.177 8.54102 25.7143C8.54102 25.2516 8.92539 24.873 9.39518 24.873Z" fill="#009DC1"/>
<path d="M12.8132 24.873C13.2829 24.873 13.6673 25.2516 13.6673 25.7143C13.6673 26.177 13.2829 26.5556 12.8132 26.5556C12.3434 26.5556 11.959 26.177 11.959 25.7143C11.959 25.2516 12.3434 24.873 12.8132 24.873Z" fill="#009DC1"/>
<path d="M9.39518 29.9207C9.86497 29.9207 10.2493 30.2992 10.2493 30.7619C10.2493 31.2246 9.86497 31.6032 9.39518 31.6032C8.92539 31.6032 8.54102 31.2246 8.54102 30.7619C8.54102 30.2992 8.92539 29.9207 9.39518 29.9207Z" fill="#009DC1"/>
<path d="M12.8132 29.9207C13.2829 29.9207 13.6673 30.2992 13.6673 30.7619C13.6673 31.2246 13.2829 31.6032 12.8132 31.6032C12.3434 31.6032 11.959 31.2246 11.959 30.7619C11.959 30.2992 12.3434 29.9207 12.8132 29.9207Z" fill="#009DC1"/>
<path d="M9.39518 34.9683C9.86497 34.9683 10.2493 35.3468 10.2493 35.8095C10.2493 36.2722 9.86497 36.6508 9.39518 36.6508C8.92539 36.6508 8.54102 36.2722 8.54102 35.8095C8.54102 35.3468 8.92539 34.9683 9.39518 34.9683Z" fill="#009DC1"/>
<path d="M12.8132 34.9683C13.2829 34.9683 13.6673 35.3468 13.6673 35.8095C13.6673 36.2722 13.2829 36.6508 12.8132 36.6508C12.3434 36.6508 11.959 36.2722 11.959 35.8095C11.959 35.3468 12.3434 34.9683 12.8132 34.9683Z" fill="#009DC1"/>
<path d="M14.5202 27.3969C14.99 27.3969 15.3743 27.7754 15.3743 28.2381C15.3743 28.7008 14.99 29.0794 14.5202 29.0794C14.0504 29.0794 13.666 28.7008 13.666 28.2381C13.666 27.7754 14.0504 27.3969 14.5202 27.3969Z" fill="#009DC1"/>
<path d="M7.68815 27.3969C8.15794 27.3969 8.54232 27.7754 8.54232 28.2381C8.54232 28.7008 8.15794 29.0794 7.68815 29.0794C7.21836 29.0794 6.83398 28.7008 6.83398 28.2381C6.83398 27.7754 7.21836 27.3969 7.68815 27.3969Z" fill="#009DC1"/>
<path d="M11.1042 22.3492C11.574 22.3492 11.9583 22.7278 11.9583 23.1905C11.9583 23.6532 11.574 24.0317 11.1042 24.0317C10.6344 24.0317 10.25 23.6532 10.25 23.1905C10.25 22.7278 10.6344 22.3492 11.1042 22.3492Z" fill="#009DC1"/>
<path d="M11.1042 27.3969C11.574 27.3969 11.9583 27.7754 11.9583 28.2381C11.9583 28.7008 11.574 29.0794 11.1042 29.0794C10.6344 29.0794 10.25 28.7008 10.25 28.2381C10.25 27.7754 10.6344 27.3969 11.1042 27.3969Z" fill="#009DC1"/>
<path d="M14.5202 32.4445C14.99 32.4445 15.3743 32.823 15.3743 33.2857C15.3743 33.7484 14.99 34.127 14.5202 34.127C14.0504 34.127 13.666 33.7484 13.666 33.2857C13.666 32.823 14.0504 32.4445 14.5202 32.4445Z" fill="#009DC1"/>
<path d="M7.68815 32.4445C8.15794 32.4445 8.54232 32.823 8.54232 33.2857C8.54232 33.7484 8.15794 34.127 7.68815 34.127C7.21836 34.127 6.83398 33.7484 6.83398 33.2857C6.83398 32.823 7.21836 32.4445 7.68815 32.4445Z" fill="#009DC1"/>
<path d="M11.1042 32.4445C11.574 32.4445 11.9583 32.823 11.9583 33.2857C11.9583 33.7484 11.574 34.127 11.1042 34.127C10.6344 34.127 10.25 33.7484 10.25 33.2857C10.25 32.823 10.6344 32.4445 11.1042 32.4445Z" fill="#009DC1"/>
<path fill-rule="evenodd" clip-rule="evenodd" d="M22.2083 34.9683C22.2083 35.431 21.824 35.8095 21.3542 35.8095C20.4146 35.8095 19.6458 36.5667 19.6458 37.4921V47.5873C19.6458 52.2143 15.8021 56 11.1042 56C6.40625 56 2.5625 52.2143 2.5625 47.5873V37.4921C2.5625 36.5667 1.79375 35.8095 0.854167 35.8095C0.384375 35.8095 0 35.431 0 34.9683C0 34.5056 0.384375 34.127 0.854167 34.127C1.79375 34.127 2.73333 34.2532 3.5875 34.4635C4.1 29.7524 5.50937 25.0833 7.81562 20.9191C8.49896 19.6992 9.7375 18.9841 11.1042 18.9841C12.4708 18.9841 13.7094 19.6992 14.3927 20.9191C16.699 25.0833 18.1083 29.7524 18.6208 34.4635C19.475 34.2532 20.4146 34.127 21.3542 34.127C21.824 34.127 22.2083 34.5056 22.2083 34.9683ZM10.25 45.0635C10.25 41.0675 7.6875 37.6603 4.05729 36.3564C4.19965 36.7209 4.27083 37.0995 4.27083 37.4921V47.5873C4.27083 50.9944 6.87604 53.8548 10.25 54.2754V45.0635ZM11.1042 40.8571C12.2146 38.2492 14.3073 36.146 16.9552 35.0103C16.8413 33.8606 16.6705 32.7109 16.4427 31.5611C16.4 31.5611 16.3146 31.6032 16.2292 31.6032C15.7594 31.6032 15.375 31.2246 15.375 30.7619C15.375 30.3413 15.674 30.0048 16.101 29.9206C15.375 27.0603 14.3073 24.2841 12.8979 21.6762C12.5135 21.0452 11.8302 20.6667 11.1042 20.6667C10.3781 20.6667 9.69479 21.0452 9.31042 21.6762C7.90104 24.2841 6.83333 27.0603 6.10729 29.9206C6.53438 30.0048 6.83333 30.3413 6.83333 30.7619C6.83333 31.2246 6.44896 31.6032 5.97917 31.6032C5.89375 31.6032 5.80833 31.5611 5.76562 31.5611C5.53785 32.7109 5.36701 33.8606 5.25313 35.0103C7.90104 36.146 9.99375 38.2492 11.1042 40.8571ZM18.151 36.3564C14.5208 37.6603 11.9583 41.0675 11.9583 45.0635V54.2754C15.3323 53.8548 17.9375 50.9944 17.9375 47.5873V37.4921C17.9375 37.0995 18.0087 36.7209 18.151 36.3564Z" fill="#009DC1"/>
<path d="M11.7012 9.98254C11.3595 9.64603 10.847 9.64603 10.5053 9.98254L3.67201 16.7127C3.33035 17.0492 3.33035 17.554 3.6293 17.8905C3.97097 18.227 4.52618 18.227 4.86785 17.9325C4.86785 17.9045 4.86785 17.8905 4.86785 17.8905L11.1033 11.7492L13.922 14.5254C14.2637 14.8619 14.7762 14.8619 15.1178 14.5254C15.2887 14.3571 15.3741 14.1468 15.3741 13.9365V3.84127C15.3741 3.37857 14.9897 3 14.5199 3H4.26993C3.80014 3 3.41576 3.37857 3.41576 3.84127C3.41576 4.05159 3.50118 4.2619 3.67201 4.43016L6.49076 7.20635L3.67201 9.98254C3.33035 10.319 3.33035 10.8238 3.67201 11.1603C4.01368 11.4968 4.52618 11.4968 4.86785 11.1603L8.28451 7.79524C8.62618 7.45873 8.62618 6.95397 8.28451 6.61746L6.31993 4.68254H13.6658V11.9175L11.7012 9.98254Z" fill="#009DC1"/>
<path d="M40.1458 28.238H29.8958C29.426 28.238 29.0417 28.6166 29.0417 29.0793C29.0417 29.2896 29.1271 29.4999 29.2979 29.6682L32.1167 32.4444L25.8813 38.5857C25.5396 38.9222 25.5396 39.4269 25.8813 39.7634C26.2229 40.0999 26.7354 40.0999 27.0771 39.7634L33.9104 33.0333C34.2521 32.6968 34.2521 32.192 33.9104 31.8555L31.9458 29.9206H39.2917V37.1555L37.3271 35.2206C36.9854 34.8841 36.4729 34.8841 36.1313 35.2206L32.7146 38.5857C32.3729 38.9222 32.3729 39.4269 32.7146 39.7634C33.0563 40.0999 33.5688 40.0999 33.9104 39.7634L36.7292 36.9872L39.5479 39.7634C39.8896 40.0999 40.4021 40.0999 40.7438 39.7634C40.9146 39.5952 41 39.3849 41 39.1745V29.0793C41 28.6166 40.6156 28.238 40.1458 28.238Z" fill="#009DC1"/>
<path d="M40.1452 3H26.4785C26.0087 3 25.6244 3.37857 25.6244 3.84127C25.6244 4.05159 25.7098 4.2619 25.8806 4.43016L29.5535 8.04762L21.6098 15.8714C21.2681 16.2079 21.2681 16.7127 21.6098 17.0492C21.9514 17.3857 22.4639 17.3857 22.8056 17.0492L31.3473 8.63651C31.6889 8.3 31.6889 7.79524 31.3473 7.45873L28.5285 4.68254H39.291V15.2825L36.4723 12.5064C36.1306 12.1698 35.6181 12.1698 35.2764 12.5064L26.7348 20.919C26.3931 21.2556 26.3931 21.7603 26.6921 22.0968C27.0337 22.4333 27.5889 22.4333 27.9306 22.1389C27.9306 22.1108 27.9306 22.0968 27.9306 22.0968L35.8743 14.273L39.5473 17.8905C39.8889 18.227 40.4014 18.227 40.7431 17.8905C40.9139 17.7222 40.9993 17.5119 40.9993 17.3016V3.84127C40.9993 3.37857 40.615 3 40.1452 3Z" fill="#009DC1"/>
</g>
<defs>
<clipPath id="clip0_169_1179">
<rect width="41" height="53" fill="white" transform="translate(0 3)"/>
</clipPath>
</defs>
</svg>
