<svg width="48" height="60" viewBox="0 0 48 60" fill="none" xmlns="http://www.w3.org/2000/svg">
<g clip-path="url(#clip0_281_57)">
<path d="M9.39518 24.873C9.86497 24.873 10.2493 25.2516 10.2493 25.7143C10.2493 26.177 9.86497 26.5556 9.39518 26.5556C8.92539 26.5556 8.54102 26.177 8.54102 25.7143C8.54102 25.2516 8.92539 24.873 9.39518 24.873Z" fill="#009DC1"/>
<path d="M12.8132 24.873C13.2829 24.873 13.6673 25.2516 13.6673 25.7143C13.6673 26.177 13.2829 26.5556 12.8132 26.5556C12.3434 26.5556 11.959 26.177 11.959 25.7143C11.959 25.2516 12.3434 24.873 12.8132 24.873Z" fill="#009DC1"/>
<path d="M9.39518 29.9207C9.86497 29.9207 10.2493 30.2992 10.2493 30.7619C10.2493 31.2246 9.86497 31.6032 9.39518 31.6032C8.92539 31.6032 8.54102 31.2246 8.54102 30.7619C8.54102 30.2992 8.92539 29.9207 9.39518 29.9207Z" fill="#009DC1"/>
<path d="M12.8132 29.9207C13.2829 29.9207 13.6673 30.2992 13.6673 30.7619C13.6673 31.2246 13.2829 31.6032 12.8132 31.6032C12.3434 31.6032 11.959 31.2246 11.959 30.7619C11.959 30.2992 12.3434 29.9207 12.8132 29.9207Z" fill="#009DC1"/>
<path d="M9.39518 34.9683C9.86497 34.9683 10.2493 35.3468 10.2493 35.8095C10.2493 36.2722 9.86497 36.6508 9.39518 36.6508C8.92539 36.6508 8.54102 36.2722 8.54102 35.8095C8.54102 35.3468 8.92539 34.9683 9.39518 34.9683Z" fill="#009DC1"/>
<path d="M12.8132 34.9683C13.2829 34.9683 13.6673 35.3468 13.6673 35.8095C13.6673 36.2722 13.2829 36.6508 12.8132 36.6508C12.3434 36.6508 11.959 36.2722 11.959 35.8095C11.959 35.3468 12.3434 34.9683 12.8132 34.9683Z" fill="#009DC1"/>
<path d="M14.5202 27.3969C14.99 27.3969 15.3743 27.7754 15.3743 28.2381C15.3743 28.7008 14.99 29.0794 14.5202 29.0794C14.0504 29.0794 13.666 28.7008 13.666 28.2381C13.666 27.7754 14.0504 27.3969 14.5202 27.3969Z" fill="#009DC1"/>
<path d="M7.68815 27.3969C8.15794 27.3969 8.54232 27.7754 8.54232 28.2381C8.54232 28.7008 8.15794 29.0794 7.68815 29.0794C7.21836 29.0794 6.83398 28.7008 6.83398 28.2381C6.83398 27.7754 7.21836 27.3969 7.68815 27.3969Z" fill="#009DC1"/>
<path d="M11.1042 22.3492C11.574 22.3492 11.9583 22.7278 11.9583 23.1905C11.9583 23.6532 11.574 24.0317 11.1042 24.0317C10.6344 24.0317 10.25 23.6532 10.25 23.1905C10.25 22.7278 10.6344 22.3492 11.1042 22.3492Z" fill="#009DC1"/>
<path d="M11.1042 27.3969C11.574 27.3969 11.9583 27.7754 11.9583 28.2381C11.9583 28.7008 11.574 29.0794 11.1042 29.0794C10.6344 29.0794 10.25 28.7008 10.25 28.2381C10.25 27.7754 10.6344 27.3969 11.1042 27.3969Z" fill="#009DC1"/>
<path d="M14.5202 32.4445C14.99 32.4445 15.3743 32.823 15.3743 33.2857C15.3743 33.7484 14.99 34.127 14.5202 34.127C14.0504 34.127 13.666 33.7484 13.666 33.2857C13.666 32.823 14.0504 32.4445 14.5202 32.4445Z" fill="#009DC1"/>
<path d="M7.68815 32.4445C8.15794 32.4445 8.54232 32.823 8.54232 33.2857C8.54232 33.7484 8.15794 34.127 7.68815 34.127C7.21836 34.127 6.83398 33.7484 6.83398 33.2857C6.83398 32.823 7.21836 32.4445 7.68815 32.4445Z" fill="#009DC1"/>
<path d="M11.1042 32.4445C11.574 32.4445 11.9583 32.823 11.9583 33.2857C11.9583 33.7484 11.574 34.127 11.1042 34.127C10.6344 34.127 10.25 33.7484 10.25 33.2857C10.25 32.823 10.6344 32.4445 11.1042 32.4445Z" fill="#009DC1"/>
<path fill-rule="evenodd" clip-rule="evenodd" d="M22.2083 34.9683C22.2083 35.431 21.824 35.8095 21.3542 35.8095C20.4146 35.8095 19.6458 36.5667 19.6458 37.4921V47.5873C19.6458 52.2143 15.8021 56 11.1042 56C6.40625 56 2.5625 52.2143 2.5625 47.5873V37.4921C2.5625 36.5667 1.79375 35.8095 0.854167 35.8095C0.384375 35.8095 0 35.431 0 34.9683C0 34.5056 0.384375 34.127 0.854167 34.127C1.79375 34.127 2.73333 34.2532 3.5875 34.4635C4.1 29.7524 5.50937 25.0833 7.81562 20.9191C8.49896 19.6992 9.7375 18.9841 11.1042 18.9841C12.4708 18.9841 13.7094 19.6992 14.3927 20.9191C16.699 25.0833 18.1083 29.7524 18.6208 34.4635C19.475 34.2532 20.4146 34.127 21.3542 34.127C21.824 34.127 22.2083 34.5056 22.2083 34.9683ZM10.25 45.0635C10.25 41.0675 7.6875 37.6603 4.05729 36.3564C4.19965 36.7209 4.27083 37.0995 4.27083 37.4921V47.5873C4.27083 50.9944 6.87604 53.8548 10.25 54.2754V45.0635ZM11.1042 40.8571C12.2146 38.2492 14.3073 36.146 16.9552 35.0103C16.8413 33.8606 16.6705 32.7109 16.4427 31.5611C16.4 31.5611 16.3146 31.6032 16.2292 31.6032C15.7594 31.6032 15.375 31.2246 15.375 30.7619C15.375 30.3413 15.674 30.0048 16.101 29.9206C15.375 27.0603 14.3073 24.2841 12.8979 21.6762C12.5135 21.0452 11.8302 20.6667 11.1042 20.6667C10.3781 20.6667 9.69479 21.0452 9.31042 21.6762C7.90104 24.2841 6.83333 27.0603 6.10729 29.9206C6.53438 30.0048 6.83333 30.3413 6.83333 30.7619C6.83333 31.2246 6.44896 31.6032 5.97917 31.6032C5.89375 31.6032 5.80833 31.5611 5.76563 31.5611C5.53785 32.7109 5.36701 33.8606 5.25313 35.0103C7.90104 36.146 9.99375 38.2492 11.1042 40.8571ZM18.151 36.3564C14.5208 37.6603 11.9583 41.0675 11.9583 45.0635V54.2754C15.3323 53.8548 17.9375 50.9944 17.9375 47.5873V37.4921C17.9375 37.0995 18.0087 36.7209 18.151 36.3564Z" fill="#009DC1"/>
<path d="M34.2932 12.532C32.6418 12.946 31.3574 14.464 31.3574 16.258C31.3574 18.374 33.1005 20.076 35.1648 20.076C36.3116 20.076 37.229 20.996 37.229 22.146C37.229 23.25 36.3116 24.17 35.1648 24.17C34.0638 24.17 33.1464 23.25 33.1464 22.146C33.1464 21.64 32.7336 21.226 32.2749 21.226C31.7703 21.226 31.3574 21.64 31.3574 22.146C31.3574 23.94 32.6418 25.458 34.2932 25.826V27.252C34.2932 27.712 34.706 28.126 35.1648 28.126C35.6693 28.126 36.0822 27.712 36.0822 27.252V25.826C37.7336 25.458 38.9721 23.94 38.9721 22.146C38.9721 20.03 37.2749 18.328 35.1648 18.328C34.0638 18.328 33.1464 17.408 33.1464 16.258C33.1464 15.108 34.0638 14.188 35.1648 14.188C36.3116 14.188 37.229 15.108 37.229 16.258C37.229 16.764 37.6418 17.132 38.1005 17.132C38.6051 17.132 38.9721 16.764 38.9721 16.258C38.9721 14.464 37.7336 12.946 36.0822 12.532V11.152C36.0822 10.646 35.6693 10.278 35.1648 10.278C34.706 10.278 34.2932 10.646 34.2932 11.152V12.532Z" fill="#009DC1"/>
<path fill-rule="evenodd" clip-rule="evenodd" d="M48.3761 19.202C48.3761 26.47 42.4587 32.404 35.1651 32.404C27.9174 32.404 22 26.47 22 19.202C22 11.888 27.9174 6 35.1651 6C42.4587 6 48.3761 11.888 48.3761 19.202ZM23.789 19.202C23.789 25.504 28.8807 30.61 35.1651 30.61C41.4954 30.61 46.5872 25.504 46.5872 19.202C46.5872 12.854 41.4954 7.748 35.1651 7.748C28.8807 7.748 23.789 12.854 23.789 19.202Z" fill="#009DC1"/>
</g>
<defs>
<clipPath id="clip0_281_57">
<rect width="48" height="60" fill="white"/>
</clipPath>
</defs>
</svg>
