<svg width="80" height="67" viewBox="0 0 80 67" fill="none" xmlns="http://www.w3.org/2000/svg">
<path d="M31.4196 18.6101C31.7396 19.1601 32.4496 19.3502 32.9996 19.0302C33.5496 18.7102 33.7396 18.0001 33.4196 17.4501L33.2996 17.2501L36.4396 11.8201H42.7096L45.8496 17.2501L42.7096 22.6801H36.4396L36.1296 22.1401C35.8096 21.5901 35.0996 21.4001 34.5496 21.7201C33.9996 22.0401 33.8096 22.75 34.1296 23.3L34.5496 24.0302C34.8896 24.6302 35.5396 25.0001 36.2196 25.0001H42.9396C43.6296 25.0001 44.2696 24.6302 44.6096 24.0302L47.9696 18.2101C48.3096 17.6101 48.3096 16.8702 47.9696 16.2802L44.6096 10.4601C44.2696 9.86008 43.6196 9.49011 42.9396 9.49011H36.2196C35.5296 9.49011 34.8896 9.86008 34.5496 10.4601L31.1896 16.2802C30.8496 16.8802 30.8496 17.6201 31.1896 18.2101L31.4196 18.6001V18.6101Z" fill="#009DC1"/>
<path d="M77.5597 0.210083H72.4397C69.9997 0.210083 67.7997 1.24014 66.2497 2.89014V1.37012C66.2497 0.730117 65.7297 0.210083 65.0897 0.210083C64.4497 0.210083 63.9297 0.730117 63.9297 1.37012V2.89014C62.3797 1.24014 60.1797 0.210083 57.7397 0.210083H52.6197C51.7197 0.210083 50.9997 0.940078 50.9997 1.83008V3.97009C50.9997 8.66009 54.8197 12.4801 59.5097 12.4801H63.9397V15.4001H58.0697C56.8797 15.4001 55.9097 16.3701 55.9097 17.5601V21.9901C55.9097 23.1801 56.8797 24.1501 58.0697 24.1501H58.1597V34.1401C58.1597 34.7801 58.6797 35.3 59.3197 35.3C59.9597 35.3 60.4797 34.7801 60.4797 34.1401V32.3801H63.9397V38.5201C63.9397 39.1601 64.4597 39.6801 65.0997 39.6801C65.7397 39.6801 66.2597 39.1601 66.2597 38.5201V32.3801H69.7197V59.5801C69.7197 62.1301 67.6497 64.2001 65.0997 64.2001C62.5497 64.2001 60.4797 62.1301 60.4797 59.5801V52.42H60.7797C61.4697 52.42 62.1097 52.0501 62.4497 51.4501L64.5197 47.8601C64.8597 47.2601 64.8597 46.5201 64.5197 45.9301L62.4497 42.3401C62.1097 41.7401 61.4597 41.3701 60.7797 41.3701H60.4797V39.5601C60.4797 38.9201 59.9597 38.4001 59.3197 38.4001C58.6797 38.4001 58.1597 38.9201 58.1597 39.5601V41.3701H56.6297C55.9397 41.3701 55.2997 41.7401 54.9597 42.3401L52.9997 45.7401H46.8397C46.1997 45.7401 45.6797 46.2601 45.6797 46.9001C45.6797 47.5401 46.1997 48.0601 46.8397 48.0601H52.9997L54.9597 51.4601C55.2997 52.0601 55.9497 52.4301 56.6297 52.4301H58.1597V59.5901C58.1597 63.4201 61.2697 66.5302 65.0997 66.5302C68.9297 66.5302 72.0397 63.4201 72.0397 59.5901V24.16H72.1297C73.3197 24.16 74.2897 23.1901 74.2897 22.0001V17.5701C74.2897 16.3801 73.3197 15.41 72.1297 15.41H66.2597V12.4901H70.6897C75.3797 12.4901 79.1997 8.6701 79.1997 3.9801V1.84009C79.1997 0.940088 78.4697 0.220093 77.5797 0.220093L77.5597 0.210083ZM63.9297 30.05H60.4697V24.1401H63.9297V30.05ZM63.9297 21.8201H58.2297V17.7201H63.9297V21.8201ZM63.9297 10.16H59.4997C56.0897 10.16 53.3097 7.38009 53.3097 3.97009V2.53015H57.7397C61.1497 2.53015 63.9297 5.31009 63.9297 8.72009V10.16ZM56.8497 50.0801L54.9997 46.8801L56.8497 43.6801H60.5497L62.3997 46.8801L60.5497 50.0801H56.8497ZM69.7097 30.05H66.2497V24.1401H69.7097V30.05ZM71.9597 17.7201V21.8201H66.2597V17.7201H71.9597ZM76.8697 3.97009C76.8697 7.38009 74.0897 10.16 70.6797 10.16H66.2497V8.72009C66.2497 5.31009 69.0297 2.53015 72.4397 2.53015H76.8697V3.97009Z" fill="#009DC1"/>
<path d="M41.2197 46.8801L44.5097 43.5901C46.7497 41.3501 47.9797 38.3701 47.9797 35.2001V28.41C47.9797 27.77 47.4597 27.2501 46.8197 27.2501C46.1797 27.2501 45.6597 27.77 45.6597 28.41V31.2802H33.4997V28.41C33.4997 27.77 32.9797 27.2501 32.3397 27.2501C31.6997 27.2501 31.1797 27.77 31.1797 28.41V35.2001C31.1797 38.3701 32.4097 41.3501 34.6497 43.5901L37.9397 46.8801L34.6497 50.17C32.4097 52.41 31.1797 55.3901 31.1797 58.5601V65.3501C31.1797 65.9901 31.6997 66.5101 32.3397 66.5101C32.9797 66.5101 33.4997 65.9901 33.4997 65.3501V62.4801H45.6597V65.3501C45.6597 65.9901 46.1797 66.5101 46.8197 66.5101C47.4597 66.5101 47.9797 65.9901 47.9797 65.3501V58.5601C47.9797 55.3901 46.7497 52.41 44.5097 50.17L41.2197 46.8801ZM33.4997 35.2101V33.6101H45.6597V35.2101C45.6597 35.8601 45.5997 36.5001 45.4697 37.1201H33.6897C33.5597 36.5001 33.4997 35.8601 33.4997 35.2101ZM36.2897 41.9601C35.5397 41.2101 34.9397 40.3601 34.4797 39.4401H44.6697C44.2097 40.3601 43.6097 41.2101 42.8597 41.9601L39.5697 45.2501L36.2797 41.9601H36.2897ZM45.6597 58.5601V60.16H33.4997V58.5601C33.4997 57.9101 33.5597 57.2701 33.6897 56.6501H45.4697C45.5997 57.2701 45.6597 57.9101 45.6597 58.5601ZM34.4797 54.3301C34.9397 53.4101 35.5397 52.5601 36.2897 51.8101L39.5797 48.5201L42.8697 51.8101C43.6197 52.5601 44.2197 53.4101 44.6797 54.3301H34.4897H34.4797Z" fill="#009DC1"/>
<path d="M33.5 46.8801C33.5 46.2401 32.98 45.7201 32.34 45.7201H26.18L24.22 42.3201C23.88 41.7201 23.23 41.3501 22.55 41.3501H21.02V24.1401H21.11C22.3 24.1401 23.27 23.1701 23.27 21.9801V17.55C23.27 16.36 22.3 15.3901 21.11 15.3901H15.24V12.4701H19.67C24.36 12.4701 28.18 8.65008 28.18 3.96008V1.82007C28.18 0.920068 27.45 0.200073 26.56 0.200073H21.44C19 0.200073 16.8 1.23013 15.25 2.88013V1.36011C15.25 0.720107 14.73 0.200073 14.09 0.200073C13.45 0.200073 12.93 0.720107 12.93 1.36011V2.88013C11.38 1.23013 9.17999 0.200073 6.73999 0.200073H1.62C0.719995 0.200073 0 0.930068 0 1.82007V3.96008C0 8.65008 3.81999 12.4701 8.50999 12.4701H12.94V15.3901H7.06999C5.87999 15.3901 4.90999 16.36 4.90999 17.55V21.9801C4.90999 23.1701 5.87999 24.1401 7.06999 24.1401H7.15999V52.54C7.15999 53.18 7.67999 53.7001 8.31999 53.7001C8.95999 53.7001 9.48 53.18 9.48 52.54V32.3701H12.94V38.5101C12.94 39.1501 13.46 39.67 14.1 39.67C14.74 39.67 15.26 39.1501 15.26 38.5101V32.3701H18.72V41.3501H18.42C17.73 41.3501 17.09 41.7201 16.75 42.3201L14.68 45.91C14.34 46.51 14.34 47.2501 14.68 47.8401L16.75 51.4301C17.09 52.0301 17.74 52.4001 18.42 52.4001H18.72V59.5601C18.72 62.1101 16.65 64.1801 14.1 64.1801C11.55 64.1801 9.48 62.1101 9.48 59.5601V57.9501C9.48 57.3101 8.95999 56.79 8.31999 56.79C7.67999 56.79 7.15999 57.3101 7.15999 57.9501V59.5601C7.15999 63.3901 10.27 66.5001 14.1 66.5001C17.93 66.5001 21.04 63.3901 21.04 59.5601V52.4001H22.57C23.26 52.4001 23.9 52.0301 24.24 51.4301L26.2 48.0302H32.36C33 48.0302 33.52 47.5101 33.52 46.8701L33.5 46.8801ZM15.24 8.72009C15.24 5.31009 18.02 2.53015 21.43 2.53015H25.86V3.97009C25.86 7.38009 23.08 10.16 19.67 10.16H15.24V8.72009ZM12.92 30.05H9.45999V24.1401H12.92V30.05ZM12.92 21.8201H7.21999V17.7201H12.92V21.8201ZM12.92 10.16H8.48999C5.07999 10.16 2.29999 7.38009 2.29999 3.97009V2.53015H6.73C10.14 2.53015 12.92 5.31009 12.92 8.72009V10.16ZM15.24 17.7201H20.94V21.8201H15.24V17.7201ZM15.24 30.05V24.1401H18.7V30.05H15.24ZM22.32 50.0801H18.62L16.77 46.8801L18.62 43.6801H22.32L24.17 46.8801L22.32 50.0801Z" fill="#009DC1"/>
</svg>
