<svg width="88" height="88" viewBox="0 0 88 88" fill="none" xmlns="http://www.w3.org/2000/svg">
<path d="M42.3 21.8301C42.02 21.6301 41.72 21.46 41.4 21.31C38.23 19.8 34.8499 20.8401 34.7099 20.8801C33.9899 21.1101 33.5899 21.8701 33.8199 22.5901C33.8399 22.6501 33.86 22.7001 33.89 22.7601C34.06 23.1301 35.68 26.44 38.4 27.56C39.27 27.89 40.1899 28.05 41.1199 28.04C41.5199 28.04 41.91 28.0201 42.3 27.9701V33.0201C42.3 33.7701 42.91 34.3801 43.66 34.3801C44.41 34.3801 45.02 33.7701 45.02 33.0201V21.7401C45.41 21.7801 45.8099 21.8 46.1999 21.81C47.1299 21.83 48.05 21.6701 48.92 21.3301C51.64 20.2101 53.25 16.9001 53.43 16.5301C53.75 15.8501 53.46 15.0401 52.77 14.7201C52.72 14.6901 52.6599 14.6701 52.5999 14.6501C52.4599 14.6101 49.08 13.5701 45.91 15.0801C42.73 16.5901 42.31 19.8201 42.3 19.9601C42.3 20.0201 42.3 20.0701 42.3 20.1301V21.8401V21.8301ZM39.4399 25.04C38.6499 24.71 37.9199 23.9601 37.3599 23.2201C38.3499 23.1801 39.3299 23.3601 40.2299 23.7701C40.9099 24.0901 41.4799 24.6201 41.8499 25.2701C41.0599 25.3401 40.1299 25.32 39.4399 25.04ZM47.0899 17.54C47.9899 17.14 48.9699 16.9501 49.9599 16.9901C49.3999 17.7301 48.6799 18.48 47.8799 18.81C47.1899 19.1 46.2699 19.11 45.4699 19.04C45.8399 18.39 46.4099 17.86 47.0899 17.54Z" fill="#009DC1"/>
<path d="M43.6606 41.4601C53.4606 41.4601 61.4006 33.5201 61.4006 23.7201C61.4006 13.9201 53.4606 5.98016 43.6606 5.98016C39.7106 5.97016 35.8706 7.29016 32.7606 9.73016C32.1706 10.1902 32.0606 11.0502 32.5206 11.6502C32.9806 12.2402 33.8405 12.3502 34.4405 11.8902C37.0705 9.82019 40.3206 8.70014 43.6606 8.71014C51.9606 8.71014 58.6905 15.4201 58.6905 23.7201C58.6905 32.0201 51.9806 38.7502 43.6806 38.7502C35.3806 38.7502 28.6506 32.0402 28.6506 23.7402C28.6506 20.8502 29.4806 18.0201 31.0506 15.5901C31.4606 14.9501 31.2705 14.1101 30.6305 13.7101C30.0005 13.3101 29.1706 13.4902 28.7606 14.1102C23.4506 22.3402 25.8106 33.3102 34.0406 38.6202C36.9106 40.4702 40.2506 41.4601 43.6606 41.4501V41.4601Z" fill="#009DC1"/>
<path d="M87.3199 73.3101C87.3199 72.5601 86.71 71.9501 85.96 71.9501H78.6801L71.6899 60.5302H85.96C86.71 60.5302 87.3199 59.92 87.3199 59.17C87.3199 58.42 86.71 57.8101 85.96 57.8101H53.73C52.98 57.8101 52.37 58.42 52.37 59.17C52.37 59.92 52.98 60.5302 53.73 60.5302H68.49L75.48 71.9501H70.95C70.2 71.9501 69.59 72.5601 69.59 73.3101C69.59 74.0601 70.2 74.67 70.95 74.67H77.15L83.55 85.1101H60.22L57.14 74.67H65.5C66.25 74.67 66.86 74.0601 66.86 73.3101C66.86 72.5601 66.25 71.9501 65.5 71.9501H56.33L54.0601 64.2701C53.8501 63.5501 53.09 63.1301 52.37 63.3401C51.65 63.5501 51.2299 64.3102 51.4399 65.0302C51.4399 65.0302 51.4399 65.04 51.4399 65.05L53.48 71.9601H33.84L35.88 65.05C36.1 64.33 35.69 63.5701 34.97 63.3501C34.25 63.1301 33.49 63.5401 33.27 64.2601C33.27 64.2601 33.27 64.2702 33.27 64.2802L31 71.9601H11.88L18.9 60.54H33.6C34.35 60.54 34.96 59.9301 34.96 59.1801C34.96 58.4301 34.35 57.8201 33.6 57.8201H1.37C0.619995 57.8201 0.0100098 58.4301 0.0100098 59.1801C0.0100098 59.9301 0.619995 60.54 1.37 60.54H15.7L8.68005 71.9601H1.37C0.619995 71.9601 0.0100098 72.5701 0.0100098 73.3201C0.0100098 74.0701 0.619995 74.6801 1.37 74.6801H7L0.199951 85.7301C0.0699512 85.9401 0 86.1901 0 86.4401V86.4801C0 87.2301 0.609985 87.8401 1.35999 87.8401H13.64C14.39 87.8401 15 87.2301 15 86.4801C15 85.7301 14.39 85.1201 13.64 85.1201H3.78003L10.2 74.6801H30.1899L27.11 85.1201H19.1C18.35 85.1201 17.74 85.7301 17.74 86.4801C17.74 87.2301 18.35 87.8401 19.1 87.8401H85.95C86.7 87.8401 87.3101 87.2301 87.3101 86.4801V86.4401C87.3101 86.1901 87.24 85.9401 87.11 85.7301L80.34 74.67H85.95C86.7 74.67 87.3101 74.0601 87.3101 73.3101H87.3199ZM33.04 74.67H54.29L57.37 85.1101H29.96L33.04 74.67Z" fill="#009DC1"/>
<path d="M23.3898 34.9801L42.4797 68.0701C42.8597 68.7201 43.6897 68.9501 44.3397 68.5701C44.5497 68.4501 44.7197 68.2801 44.8397 68.0701L63.9298 34.9801C63.9298 34.9801 63.9297 34.9701 63.9397 34.9601C65.8497 31.5201 66.8497 27.6501 66.8497 23.7201C66.8497 10.9301 56.4498 0.530151 43.6598 0.530151C30.8698 0.530151 20.4697 10.9301 20.4697 23.7201C20.4697 27.6501 21.4698 31.5201 23.3798 34.9601C23.3798 34.9601 23.3798 34.9701 23.3898 34.9801ZM43.6598 3.26013C54.9598 3.26013 64.1198 12.4101 64.1298 23.7101C64.1298 27.1801 63.2497 30.5901 61.5697 33.6301L43.6698 64.6602L25.7698 33.6301C20.2998 23.7501 23.8698 11.3001 33.7598 5.82007C36.7998 4.14007 40.2098 3.26013 43.6798 3.26013H43.6598Z" fill="#009DC1"/>
</svg>
