<svg width="105" height="16" viewBox="0 0 105 16" fill="none" xmlns="http://www.w3.org/2000/svg">
<path d="M8.55062 0.00662008C10.1077 0.00662008 10.7365 0.465761 11.3853 0.465761C11.911 0.465761 12.2703 0.219559 12.7627 0.219559C13.7476 0.219559 13.5812 1.18443 13.6378 2.51526C13.681 3.8827 13.7708 4.40838 13.7708 4.72113C13.7708 5.36992 13.3882 5.67268 12.999 5.67268C12.3502 5.67268 12.114 4.91076 11.6881 4.12557C10.9262 2.71488 9.85152 1.98627 8.79683 1.98627C6.29818 1.98627 4.69453 5.08047 4.69453 7.81202C4.69453 10.5436 6.07194 12.3834 8.39093 12.3834C10.0478 12.3834 11.2156 11.219 11.8545 10.3107C12.1239 9.95134 12.3601 9.68185 12.5831 9.68185C12.8858 9.68185 12.9757 10.0412 12.9757 10.3872C12.9757 11.1158 12.6629 12.1672 11.9576 13.0988C10.7598 14.7224 8.66373 16 6.20833 16C2.22913 16 0 13.0854 0 9.41233C0 4.99727 3.20398 0 8.55062 0V0.00662008Z" fill="#F4BA34"/>
<path d="M43.8783 12.1639C44.4273 12.1639 44.6402 11.3588 45.066 11.3588C45.279 11.3588 45.4587 11.6516 45.4587 12.0974C45.4587 13.4316 44.404 15.8969 41.7955 15.8969C38.535 15.8969 38.5915 11.6848 37.783 10.161C37.6266 9.84828 37.3804 9.54552 37.0311 9.54552C36.7383 9.54552 36.562 9.72517 36.4488 9.94808C36.2925 10.2608 36.1228 11.4386 36.1228 11.9077C36.1228 12.9258 36.3025 13.3517 36.705 13.8342C37.0411 14.27 37.3671 14.4397 37.3671 14.8889C37.3671 15.4378 36.898 15.694 36.3357 15.694C35.5406 15.694 34.3295 15.6275 33.501 15.6275C32.6726 15.6275 31.5747 15.694 30.9691 15.694C30.3636 15.694 30.1074 15.4478 30.1074 15.0652C30.1074 14.1336 31.1821 14.26 31.6745 12.6797C32.0438 11.4021 33.0086 4.85763 33.0086 3.71644C33.0086 2.05954 32.1569 1.98967 32.1569 1.21778C32.1569 0.735354 32.3798 0.322814 33.1218 0.322814C33.8637 0.322814 34.8918 0.389339 35.8999 0.389339C37.0876 0.389339 38.5316 0.289551 39.7759 0.289551C42.4077 0.289551 44.4805 1.15126 44.4805 3.60666C44.4805 5.21032 43.5289 6.90047 40.8506 7.92189C40.794 7.94518 40.6942 8.01174 40.6942 8.10157C40.6942 8.14482 40.7275 8.23464 40.7941 8.25793C43.0698 9.01984 42.8103 12.1673 43.875 12.1673L43.8783 12.1639ZM38.2189 2.6052C37.6267 2.6052 37.4903 2.71829 37.3439 3.28723C37.1542 4.07242 36.8947 5.87572 36.8947 6.41471C36.8947 6.85056 37.0411 7.14336 37.7364 7.14336C38.7678 7.14336 39.6628 6.02214 39.6628 4.4085C39.6628 3.07433 38.9675 2.6052 38.2189 2.6052Z" fill="#F4BA34"/>
<path d="M50.7644 0.389192C51.483 0.389192 51.8523 0.455749 52.1318 0.612122C52.5111 0.815075 52.7806 1.22762 53.4094 2.17917L56.67 7.45594C57.1058 8.09475 57.332 8.35095 57.4418 8.35095C57.5882 8.35095 57.6116 8.22786 57.6781 7.98165C57.7446 7.71216 58.0574 5.50627 58.0574 4.58799C58.0574 1.83315 56.9162 2.1226 56.9162 1.21431C56.9162 0.698606 57.1624 0.319336 57.881 0.319336C58.4633 0.319336 59.325 0.385862 59.7875 0.385862C60.3597 0.385862 61.0751 0.319336 61.5808 0.319336C62.0865 0.319336 62.2994 0.588836 62.2994 0.948162C62.2994 2.09268 61.2913 1.6302 60.8189 3.75954C60.7057 4.26526 60.4828 5.69926 60.3464 6.69407C59.5413 12.5664 59.7875 12.1838 59.4947 14.2233C59.3716 15.1083 58.5199 15.8136 57.6016 15.8136C57.3221 15.8136 56.8629 15.5441 56.5369 15.0417L51.696 7.07665C51.483 6.75059 51.3599 6.60756 51.2701 6.60756C51.1237 6.60756 51.0239 6.81048 50.9573 7.0334C50.8575 7.39272 50.4749 10.3039 50.4749 11.1124C50.4749 14.1833 51.6194 13.8905 51.6194 14.8088C51.6194 15.2913 51.3732 15.6938 50.6446 15.6938C49.9825 15.6938 49.2206 15.6273 48.7515 15.6273C48.1925 15.6273 47.4073 15.6938 46.7453 15.6938C46.2296 15.6938 46.0166 15.4376 46.0166 15.065C46.0166 13.9438 47.2376 14.3597 47.7101 12.2636C47.8232 11.7379 48.0794 10.2241 48.4487 7.57905C48.7515 5.43972 48.9079 4.4882 48.9079 3.73627C48.9079 2.07938 48.0661 1.9995 48.0661 1.21431C48.0661 0.721895 48.3123 0.319336 49.031 0.319336C49.4901 0.319336 50.1389 0.385862 50.7677 0.385862L50.7644 0.389192Z" fill="#F4BA34"/>
<path d="M63.5706 12.6796C63.9399 11.402 64.9047 4.85757 64.9047 3.71638C64.9047 2.05948 64.053 1.98961 64.053 1.21772C64.053 0.735294 64.2759 0.322754 65.0178 0.322754C66.4751 0.322754 67.9656 0.38928 69.8355 0.38928C71.5722 0.38928 72.8598 0.322754 73.9145 0.322754C74.8561 0.322754 75.1588 0.492418 75.1588 1.67686C75.1588 2.6517 75.272 3.60327 75.272 4.55814C75.272 5.40988 74.8361 5.6561 74.4535 5.6561C73.9844 5.6561 73.7914 5.17364 73.5784 4.67125C72.9164 3.00105 72.5138 2.51863 70.5741 2.51863C69.7224 2.51863 69.5427 2.67501 69.363 2.98776C69.1501 3.3238 68.8141 5.41985 68.8141 5.92224C68.8141 6.39136 68.9039 6.56106 69.1734 6.56106C70.3279 6.56106 70.6074 5.76589 71.1131 5.19363C71.2695 5.02395 71.4491 4.90084 71.6854 4.90084C72.1212 4.90084 72.1678 5.30341 72.1678 5.7193C72.1678 6.33481 71.9116 7.69227 71.6188 9.88816C71.539 10.4937 71.3493 10.863 70.8902 10.863C70.431 10.863 70.2414 10.4271 70.1382 10.0678C69.9253 9.31587 69.7357 8.83678 68.9505 8.83678C68.6577 8.83678 68.5146 9.01645 68.3915 9.29593C68.2119 9.6985 67.989 11.5251 67.989 12.1539C67.989 13.0389 68.3716 13.4881 68.9405 13.8008C69.3996 14.057 69.8488 14.2932 69.8488 14.7424C69.8488 15.471 69.1867 15.6939 68.3349 15.6939C67.5497 15.6939 66.2289 15.6274 65.4005 15.6274C64.572 15.6274 63.4741 15.6939 62.8685 15.6939C62.263 15.6939 62.0068 15.4477 62.0068 15.0651C62.0068 14.1335 63.0815 14.26 63.5772 12.6796H63.5706Z" fill="#F4BA34"/>
<path d="M78.0569 0.319336C79.5142 0.319336 81.0047 0.385862 82.8746 0.385862C84.6113 0.385862 85.8989 0.319336 86.9536 0.319336C87.8952 0.319336 88.1746 0.489 88.1979 1.67345C88.1979 2.49191 88.311 3.54329 88.311 4.55472C88.311 5.40646 87.8752 5.65268 87.4926 5.65268C87.0235 5.65268 86.8305 5.17023 86.6176 4.66783C85.9555 2.99763 85.5529 2.51521 83.6132 2.51521C82.7049 2.51521 82.4487 2.73813 82.3123 3.14404C82.1659 3.50336 81.943 4.93735 81.9097 5.73253C81.9097 6.13511 81.9663 6.33804 82.2557 6.33804C83.4003 6.33804 83.6797 5.54287 84.1721 4.97061C84.3285 4.80426 84.5082 4.67783 84.7444 4.67783C85.2035 4.67783 85.2501 5.0937 85.2501 5.53953C85.2501 5.86559 85.0272 7.3894 84.7011 9.66181C84.6213 10.2673 84.4217 10.6367 83.9625 10.6367C83.4701 10.6367 83.3237 10.2008 83.2239 9.84149C83.011 9.08956 82.8313 8.61044 82.0361 8.61044C81.7666 8.61044 81.577 8.74355 81.4539 9.13614C81.2742 9.78493 81.0181 11.6348 81.0181 12.0374C81.0181 13.102 81.3873 13.3483 82.3954 13.3483C84.3451 13.3483 85.2069 12.5431 86.2383 10.9295C86.541 10.4703 86.8538 10.1343 87.2031 10.1343C87.4959 10.1343 87.7089 10.3472 87.7089 10.8729C87.7089 11.5217 87.1033 13.1253 86.744 14.7722C86.5776 15.5674 86.3647 15.6905 85.4763 15.6905C84.4782 15.6905 82.4054 15.624 81.1179 15.624C79.8968 15.624 77.8806 15.6905 75.9076 15.6905C75.3254 15.6905 75.0459 15.4443 75.0459 15.0617C75.0459 14.1301 76.1205 14.2566 76.6129 12.6762C76.9823 11.3986 77.9471 4.85415 77.9471 3.71296C77.9471 2.05606 77.0954 1.98619 77.0954 1.21431C77.0954 0.731876 77.3183 0.319336 78.0603 0.319336H78.0569Z" fill="#F4BA34"/>
<path d="M97.1811 0.319492C96.0366 0.319492 95.2414 0.386018 94.077 0.386018C93.2352 0.386018 92.3735 0.319492 91.545 0.319492C90.8064 0.319492 90.5802 0.73536 90.5802 1.21446C90.5802 1.98635 91.4319 2.05622 91.4319 3.71312C91.4319 4.85431 90.467 11.3987 90.0977 12.6763C89.6053 14.2567 88.5273 14.1203 88.5273 15.0618C88.5273 15.4079 88.8068 15.6674 89.3891 15.6674C90.1842 15.6674 91.0826 15.6008 91.9443 15.6008C93.2119 15.6008 94.8588 15.6907 96.1331 15.6907C101.087 15.6907 104.111 11.9477 104.111 6.73748C104.111 2.18933 100.861 0.316162 97.1745 0.316162L97.1811 0.319492ZM95.624 13.3717C94.7823 13.3717 94.5494 13.1022 94.5494 12.2737C94.5494 11.219 95.4344 5.14712 95.6706 3.94937C95.8403 3.06436 96.0632 2.50538 96.7586 2.50538C98.472 2.50538 99.3703 4.29869 99.3703 6.4613C99.3703 9.96806 97.9131 13.375 95.6274 13.375L95.624 13.3717Z" fill="#F4BA34"/>
<path d="M22.4949 5.79584C22.2221 5.76589 21.9759 5.95554 21.9493 6.21838C21.9193 6.48122 22.1189 6.72077 22.3918 6.75071C22.6646 6.78065 22.9108 6.591 22.9374 6.32816C22.964 6.06532 22.7677 5.82578 22.4949 5.79584Z" fill="#F4BA34"/>
<path d="M22.5977 4.84412C22.5678 5.10696 22.7674 5.3465 23.0402 5.37644C23.3131 5.40639 23.5592 5.21674 23.5858 4.95389C23.6125 4.69105 23.4162 4.45151 23.1433 4.42157C22.8705 4.39162 22.6243 4.58127 22.5977 4.84412Z" fill="#F4BA34"/>
<path d="M22.0521 5.26664C22.082 5.0038 21.8824 4.76426 21.6096 4.73431C21.3368 4.70437 21.0906 4.89402 21.0639 5.15686C21.0373 5.4197 21.2336 5.65924 21.5064 5.68919C21.7793 5.71913 22.0255 5.52948 22.0521 5.26664Z" fill="#F4BA34"/>
<path d="M23.2063 0.0166016C18.3421 0.0166016 14.8486 4.0058 14.8486 9.38239C14.8486 13.2817 17.304 15.9933 21.4695 15.9933C25.9179 15.9933 29.6841 12.9124 29.6841 6.99685C29.6841 2.49196 26.7497 0.0166016 23.2063 0.0166016ZM22.9135 1.97627C24.434 2.14262 25.3523 4.03575 25.1626 6.52109C23.5057 6.73735 22.6374 7.60237 22.1948 8.53063C21.962 7.52918 21.3065 6.49779 19.7328 5.92553C20.0855 3.45682 21.393 1.80991 22.9102 1.97627H22.9135ZM24.7467 10.3872C24.4773 12.8526 23.2329 14.3264 21.5793 14.1468C19.9258 13.9671 19.0308 12.257 19.3036 9.79162C19.5165 7.85192 18.901 6.12517 17.9628 6.02203C21.4396 6.40132 21.9553 8.43085 21.7756 10.0611C21.7623 10.1942 21.8588 10.3106 21.9986 10.3273C22.1383 10.3439 22.2581 10.2474 22.2714 10.1143C22.451 8.48073 23.3926 6.61423 26.8694 6.99685C25.9312 6.89371 24.9564 8.44748 24.7467 10.3872Z" fill="#F4BA34"/>
<path d="M21.8749 4.40842C22.1542 4.40842 22.3806 4.182 22.3806 3.9027C22.3806 3.6234 22.1542 3.39697 21.8749 3.39697C21.5956 3.39697 21.3691 3.6234 21.3691 3.9027C21.3691 4.182 21.5956 4.40842 21.8749 4.40842Z" fill="#F4BA34"/>
<path d="M23.1903 3.89939C23.4696 3.89939 23.696 3.67297 23.696 3.39366C23.696 3.11436 23.4696 2.88794 23.1903 2.88794C22.911 2.88794 22.6846 3.11436 22.6846 3.39366C22.6846 3.67297 22.911 3.89939 23.1903 3.89939Z" fill="#F4BA34"/>
</svg>
