<svg width="314" height="49" viewBox="0 0 314 49" fill="none" xmlns="http://www.w3.org/2000/svg">
<path d="M26.245 0.24823C30.925 0.24823 32.815 1.62823 34.765 1.62823C36.345 1.62823 37.425 0.888245 38.905 0.888245C41.865 0.888245 41.365 3.78827 41.535 7.78827C41.665 11.8983 41.935 13.4783 41.935 14.4183C41.935 16.3683 40.785 17.2783 39.615 17.2783C37.665 17.2783 36.955 14.9882 35.675 12.6282C33.385 8.38824 30.155 6.1983 26.985 6.1983C19.475 6.1983 14.655 15.4983 14.655 23.7083C14.655 31.9183 18.795 37.4483 25.765 37.4483C30.745 37.4483 34.255 33.9483 36.175 31.2183C36.985 30.1383 37.695 29.3283 38.365 29.3283C39.275 29.3283 39.545 30.4083 39.545 31.4483C39.545 33.6383 38.605 36.7983 36.485 39.5983C32.885 44.4783 26.585 48.3183 19.205 48.3183C7.24499 48.3183 0.544983 39.5583 0.544983 28.5182C0.544983 15.2482 10.175 0.228333 26.245 0.228333V0.24823Z" fill="#F4BA34"/>
<path d="M132.415 36.7883C134.065 36.7883 134.705 34.3682 135.985 34.3682C136.625 34.3682 137.165 35.2483 137.165 36.5883C137.165 40.5983 133.995 48.0082 126.155 48.0082C116.355 48.0082 116.525 35.3483 114.095 30.7682C113.625 29.8282 112.885 28.9183 111.835 28.9183C110.955 28.9183 110.425 29.4582 110.085 30.1282C109.615 31.0682 109.105 34.6082 109.105 36.0182C109.105 39.0783 109.645 40.3583 110.855 41.8083C111.865 43.1183 112.845 43.6283 112.845 44.9783C112.845 46.6283 111.435 47.3983 109.745 47.3983C107.355 47.3983 103.715 47.1983 101.225 47.1983C98.735 47.1983 95.435 47.3983 93.615 47.3983C91.795 47.3983 91.025 46.6582 91.025 45.5082C91.025 42.7082 94.255 43.0883 95.735 38.3383C96.845 34.4983 99.745 14.8283 99.745 11.3983C99.745 6.41825 97.185 6.20824 97.185 3.88824C97.185 2.43824 97.855 1.1983 100.085 1.1983C102.315 1.1983 105.405 1.39825 108.435 1.39825C112.005 1.39825 116.345 1.09833 120.085 1.09833C127.995 1.09833 134.225 3.6883 134.225 11.0683C134.225 15.8883 131.365 20.9683 123.315 24.0383C123.145 24.1083 122.845 24.3083 122.845 24.5783C122.845 24.7083 122.945 24.9783 123.145 25.0483C129.985 27.3383 129.205 36.7983 132.405 36.7983L132.415 36.7883ZM115.405 8.05829C113.625 8.05829 113.215 8.39822 112.775 10.1082C112.205 12.4682 111.425 17.8882 111.425 19.5082C111.425 20.8182 111.865 21.6983 113.955 21.6983C117.055 21.6983 119.745 18.3283 119.745 13.4783C119.745 9.46833 117.655 8.05829 115.405 8.05829Z" fill="#F4BA34"/>
<path d="M153.115 1.39825C155.275 1.39825 156.385 1.5983 157.225 2.0683C158.365 2.6783 159.175 3.91826 161.065 6.77826L170.865 22.6382C172.175 24.5582 172.855 25.3283 173.185 25.3283C173.625 25.3283 173.695 24.9583 173.895 24.2183C174.095 23.4083 175.035 16.7782 175.035 14.0182C175.035 5.73825 171.605 6.60823 171.605 3.87823C171.605 2.32823 172.345 1.18829 174.505 1.18829C176.255 1.18829 178.845 1.38824 180.235 1.38824C181.955 1.38824 184.105 1.18829 185.625 1.18829C187.145 1.18829 187.785 1.99831 187.785 3.07831C187.785 6.51831 184.755 5.12826 183.335 11.5283C182.995 13.0483 182.325 17.3583 181.915 20.3483C179.495 37.9983 180.235 36.8483 179.355 42.9783C178.985 45.6383 176.425 47.7582 173.665 47.7582C172.825 47.7582 171.445 46.9483 170.465 45.4383L155.915 21.4982C155.275 20.5182 154.905 20.0883 154.635 20.0883C154.195 20.0883 153.895 20.6982 153.695 21.3682C153.395 22.4482 152.245 31.1982 152.245 33.6282C152.245 42.8582 155.685 41.9782 155.685 44.7382C155.685 46.1882 154.945 47.3983 152.755 47.3983C150.765 47.3983 148.475 47.1983 147.065 47.1983C145.385 47.1983 143.025 47.3983 141.035 47.3983C139.485 47.3983 138.845 46.6282 138.845 45.5082C138.845 42.1382 142.515 43.3883 143.935 37.0883C144.275 35.5083 145.045 30.9582 146.155 23.0082C147.065 16.5782 147.535 13.7183 147.535 11.4583C147.535 6.47831 145.005 6.23823 145.005 3.87823C145.005 2.39823 145.745 1.18829 147.905 1.18829C149.285 1.18829 151.235 1.38824 153.125 1.38824L153.115 1.39825Z" fill="#F4BA34"/>
<path d="M191.605 38.3383C192.715 34.4983 195.615 14.8283 195.615 11.3983C195.615 6.41825 193.055 6.20824 193.055 3.88824C193.055 2.43824 193.725 1.1983 195.955 1.1983C200.335 1.1983 204.815 1.39825 210.435 1.39825C215.655 1.39825 219.525 1.1983 222.695 1.1983C225.525 1.1983 226.435 1.70825 226.435 5.26825C226.435 8.19825 226.775 11.0583 226.775 13.9283C226.775 16.4883 225.465 17.2283 224.315 17.2283C222.905 17.2283 222.325 15.7782 221.685 14.2682C219.695 9.24825 218.485 7.79828 212.655 7.79828C210.095 7.79828 209.555 8.26831 209.015 9.20831C208.375 10.2183 207.365 16.5183 207.365 18.0283C207.365 19.4383 207.635 19.9483 208.445 19.9483C211.915 19.9483 212.755 17.5583 214.275 15.8383C214.745 15.3283 215.285 14.9583 215.995 14.9583C217.305 14.9583 217.445 16.1683 217.445 17.4183C217.445 19.2683 216.675 23.3483 215.795 29.9483C215.555 31.7683 214.985 32.8782 213.605 32.8782C212.225 32.8782 211.655 31.5682 211.345 30.4882C210.705 28.2282 210.135 26.7883 207.775 26.7883C206.895 26.7883 206.465 27.3283 206.095 28.1683C205.555 29.3783 204.885 34.8682 204.885 36.7582C204.885 39.4182 206.035 40.7683 207.745 41.7083C209.125 42.4783 210.475 43.1883 210.475 44.5383C210.475 46.7283 208.485 47.3983 205.925 47.3983C203.565 47.3983 199.595 47.1983 197.105 47.1983C194.615 47.1983 191.315 47.3983 189.495 47.3983C187.675 47.3983 186.905 46.6582 186.905 45.5082C186.905 42.7082 190.135 43.0883 191.625 38.3383H191.605Z" fill="#F4BA34"/>
<path d="M235.145 1.18829C239.525 1.18829 244.005 1.38824 249.625 1.38824C254.845 1.38824 258.715 1.18829 261.885 1.18829C264.715 1.18829 265.555 1.69824 265.625 5.25824C265.625 7.71824 265.965 10.8783 265.965 13.9183C265.965 16.4783 264.655 17.2183 263.505 17.2183C262.095 17.2183 261.515 15.7682 260.875 14.2582C258.885 9.23824 257.675 7.78827 251.845 7.78827C249.115 7.78827 248.345 8.45828 247.935 9.67828C247.495 10.7583 246.825 15.0683 246.725 17.4583C246.725 18.6683 246.895 19.2783 247.765 19.2783C251.205 19.2783 252.045 16.8883 253.525 15.1683C253.995 14.6683 254.535 14.2883 255.245 14.2883C256.625 14.2883 256.765 15.5382 256.765 16.8782C256.765 17.8582 256.095 22.4382 255.115 29.2682C254.875 31.0882 254.275 32.1983 252.895 32.1983C251.415 32.1983 250.975 30.8883 250.675 29.8083C250.035 27.5483 249.495 26.1082 247.105 26.1082C246.295 26.1082 245.725 26.5083 245.355 27.6883C244.815 29.6383 244.045 35.1983 244.045 36.4083C244.045 39.6083 245.155 40.3483 248.185 40.3483C254.045 40.3483 256.635 37.9283 259.735 33.0783C260.645 31.6983 261.585 30.6883 262.635 30.6883C263.515 30.6883 264.155 31.3283 264.155 32.9083C264.155 34.8583 262.335 39.6782 261.255 44.6282C260.755 47.0182 260.115 47.3882 257.445 47.3882C254.445 47.3882 248.215 47.1883 244.345 47.1883C240.675 47.1883 234.615 47.3882 228.685 47.3882C226.935 47.3882 226.095 46.6482 226.095 45.4982C226.095 42.6982 229.325 43.0783 230.805 38.3283C231.915 34.4883 234.815 14.8182 234.815 11.3882C234.815 6.40824 232.255 6.19823 232.255 3.87823C232.255 2.42823 232.925 1.18829 235.155 1.18829H235.145Z" fill="#F4BA34"/>
<path d="M292.625 1.18829C289.185 1.18829 286.795 1.38824 283.295 1.38824C280.765 1.38824 278.175 1.18829 275.685 1.18829C273.465 1.18829 272.785 2.43823 272.785 3.87823C272.785 6.19823 275.345 6.40824 275.345 11.3882C275.345 14.8182 272.445 34.4883 271.335 38.3283C269.855 43.0783 266.615 42.6682 266.615 45.4982C266.615 46.5382 267.455 47.3183 269.205 47.3183C271.595 47.3183 274.295 47.1182 276.885 47.1182C280.695 47.1182 285.645 47.3882 289.475 47.3882C304.365 47.3882 313.455 36.1383 313.455 20.4783C313.455 6.80833 303.685 1.17828 292.605 1.17828L292.625 1.18829ZM287.945 40.4183C285.415 40.4183 284.715 39.6082 284.715 37.1182C284.715 33.9482 287.375 15.6983 288.085 12.0983C288.595 9.43833 289.265 7.75824 291.355 7.75824C296.505 7.75824 299.205 13.1483 299.205 19.6483C299.205 30.1883 294.825 40.4283 287.955 40.4283L287.945 40.4183Z" fill="#F4BA34"/>
<path d="M70.285 0.278259C55.665 0.278259 45.165 12.2683 45.165 28.4283C45.165 40.1483 52.545 48.2983 65.065 48.2983C78.435 48.2983 89.755 39.0382 89.755 21.2582C89.755 7.71824 80.935 0.278259 70.285 0.278259ZM69.405 6.16827C73.975 6.66827 76.735 12.3583 76.165 19.8283C71.185 20.4783 68.575 23.0782 67.245 25.8682C66.545 22.8582 64.575 19.7583 59.845 18.0383C60.905 10.6183 64.835 5.66827 69.395 6.16827H69.405ZM74.915 31.4483C74.105 38.8583 70.365 43.2882 65.395 42.7482C60.425 42.2082 57.735 37.0683 58.555 29.6583C59.195 23.8283 57.345 18.6383 54.525 18.3283C64.975 19.4683 66.525 25.5683 65.985 30.4683C65.945 30.8683 66.235 31.2183 66.655 31.2682C67.075 31.3182 67.435 31.0282 67.475 30.6282C68.015 25.7182 70.845 20.1082 81.295 21.2582C78.475 20.9482 75.545 25.6183 74.915 31.4483Z" fill="#F4BA34"/>
<path d="M66.815 16.0582C66.905 15.2682 66.305 14.5483 65.485 14.4583C64.665 14.3683 63.925 14.9383 63.845 15.7283C63.765 16.5183 64.355 17.2383 65.175 17.3283C65.995 17.4183 66.735 16.8482 66.815 16.0582Z" fill="#F4BA34"/>
<path d="M68.455 14.7882C68.365 15.5782 68.965 16.2982 69.785 16.3882C70.605 16.4782 71.345 15.9082 71.425 15.1182C71.505 14.3282 70.915 13.6082 70.095 13.5182C69.275 13.4282 68.535 13.9982 68.455 14.7882Z" fill="#F4BA34"/>
<path d="M68.145 17.6482C67.325 17.5582 66.585 18.1282 66.505 18.9182C66.415 19.7082 67.015 20.4282 67.835 20.5182C68.655 20.6082 69.395 20.0382 69.475 19.2482C69.555 18.4582 68.965 17.7382 68.145 17.6482Z" fill="#F4BA34"/>
<path d="M66.285 13.4783C67.1245 13.4783 67.805 12.7978 67.805 11.9583C67.805 11.1188 67.1245 10.4383 66.285 10.4383C65.4455 10.4383 64.765 11.1188 64.765 11.9583C64.765 12.7978 65.4455 13.4783 66.285 13.4783Z" fill="#F4BA34"/>
<path d="M70.235 11.9483C71.0744 11.9483 71.7549 11.2678 71.7549 10.4283C71.7549 9.58881 71.0744 8.90826 70.235 8.90826C69.3955 8.90826 68.715 9.58881 68.715 10.4283C68.715 11.2678 69.3955 11.9483 70.235 11.9483Z" fill="#F4BA34"/>
</svg>
