<svg width="82" height="92" viewBox="0 0 82 92" fill="none" xmlns="http://www.w3.org/2000/svg">
<path fill-rule="evenodd" clip-rule="evenodd" d="M2.92999 49.96C1.32999 49.96 0 51.2899 0 52.8999V59.5199H2.92999V52.8999H5.85999V59.5199H8.78998V52.8999H11.72V59.5199H14.65V52.8999H17.17V49.96H2.92999Z" fill="#009DC1"/>
<path fill-rule="evenodd" clip-rule="evenodd" d="M35.8802 50.1C35.0802 50.1 34.8002 50.9199 34.4202 51.5699H29.7002V54.5099H36.6202V53.0399H45.4102V54.5099H52.3302V51.5699H47.6102C47.2202 50.9199 46.9402 50.1 46.1502 50.1H35.9002H35.8802Z" fill="#009DC1"/>
<path fill-rule="evenodd" clip-rule="evenodd" d="M64.8301 49.96V52.8999H67.36V59.5199H70.29V52.8999H73.22V59.5199H76.1501V52.8999H79.0801V59.5199H82.0101V52.8999C82.0101 51.2899 80.6801 49.96 79.0801 49.96H64.8401H64.8301Z" fill="#009DC1"/>
<path d="M25.5004 35.1899H10.8604V29.83C10.8604 27.67 12.6404 25.9099 14.8304 25.9099H18.1804V4.96997H15.2504V0H19.2303C21.4203 0 23.2004 1.75993 23.2004 3.92993V20.1599H26.8904L25.5004 35.21V35.1899ZM12.9504 33.1H23.6003L24.6003 22.24H21.1104V3.91992C21.1104 2.92992 20.2503 2.08997 19.2203 2.08997H17.3304V2.87988H20.2604V28H14.8304C13.7904 28 12.9404 28.82 12.9404 29.83V33.1H12.9504Z" fill="#009DC1"/>
<path d="M71.9897 36.3199H57.3497L55.9697 21H64.6697V26.8799H68.0198C70.2098 26.8799 71.9897 28.67 71.9897 30.87V36.33V36.3199ZM59.2498 34.23H69.8998V30.87C69.8998 29.83 69.0498 28.98 68.0098 28.98H62.5798V23.1H58.2397L59.2498 34.24V34.23Z" fill="#009DC1"/>
<path fill-rule="evenodd" clip-rule="evenodd" d="M19.04 37.5399V41.1299L27.8301 42.6699V37.5299H19.04V37.5399Z" fill="#009DC1"/>
<path fill-rule="evenodd" clip-rule="evenodd" d="M19.04 44.12V47.0099L27.8301 48.5499V45.6599L19.04 44.12Z" fill="#009DC1"/>
<path fill-rule="evenodd" clip-rule="evenodd" d="M19.04 50.0099V52.8999L27.8301 54.46V51.5599L19.04 50.0199V50.0099Z" fill="#009DC1"/>
<path fill-rule="evenodd" clip-rule="evenodd" d="M19.0402 55.8799V59.6C19.0402 60.41 19.7002 61.0699 20.5002 61.0699H26.3602C27.1702 61.0699 27.8203 60.41 27.8203 59.6V57.4399L19.0303 55.8899L19.0402 55.8799Z" fill="#009DC1"/>
<path fill-rule="evenodd" clip-rule="evenodd" d="M40.9802 75.7599C40.1702 75.7699 39.5302 76.44 39.5402 77.25V80.8899C39.5302 81.6999 40.1702 82.3699 40.9802 82.3799C41.7902 82.3899 42.4502 81.7399 42.4602 80.9299C42.4602 80.9199 42.4602 80.8999 42.4602 80.8899V77.2599C42.4702 76.4499 41.8302 75.7799 41.0202 75.7699C41.0002 75.7699 40.9901 75.7699 40.9701 75.7699L40.9802 75.7599Z" fill="#009DC1"/>
<path fill-rule="evenodd" clip-rule="evenodd" d="M40.9802 66.9399C40.1702 66.9499 39.5302 67.6199 39.5402 68.4299V72.0699C39.5302 72.8799 40.1702 73.5499 40.9802 73.5599C41.7902 73.5699 42.4502 72.92 42.4602 72.11C42.4602 72.1 42.4602 72.0799 42.4602 72.0699V68.4399C42.4702 67.6299 41.8302 66.96 41.0202 66.95C41.0002 66.95 40.9901 66.95 40.9701 66.95L40.9802 66.9399Z" fill="#009DC1"/>
<path fill-rule="evenodd" clip-rule="evenodd" d="M40.9802 84.58C40.1702 84.59 39.5302 85.2599 39.5402 86.0699V89.71C39.5302 90.52 40.1702 91.19 40.9802 91.2C41.7902 91.21 42.4502 90.56 42.4602 89.75C42.4602 89.74 42.4602 89.72 42.4602 89.71V86.08C42.4702 85.27 41.8302 84.6 41.0202 84.59C41.0002 84.59 40.9901 84.59 40.9701 84.59L40.9802 84.58Z" fill="#009DC1"/>
<path d="M55.3197 36.3099H26.6797L29.4797 5.37988C29.6597 3.37988 31.3097 1.87 33.3097 1.87H48.6997C50.6997 1.87 52.3397 3.37988 52.5297 5.37988L55.3297 36.3099H55.3197ZM28.9597 34.22H53.0397L50.4497 5.57996C50.3697 4.65996 49.6197 3.97998 48.6997 3.97998H33.3097C32.3997 3.97998 31.6397 4.66997 31.5597 5.58997L28.9697 34.23L28.9597 34.22Z" fill="#009DC1"/>
<path fill-rule="evenodd" clip-rule="evenodd" d="M21.8905 81.6399C21.3505 81.6699 20.8805 81.99 20.6405 82.47L19.1905 85.37C18.8205 86.09 19.1005 86.98 19.8205 87.35C20.5405 87.72 21.4205 87.44 21.7905 86.72C21.7905 86.71 21.8005 86.6999 21.8105 86.6899L23.2605 83.7899C23.6305 83.0699 23.3605 82.1799 22.6405 81.8099C22.4105 81.6899 22.1505 81.6299 21.8905 81.6499V81.6399Z" fill="#009DC1"/>
<path fill-rule="evenodd" clip-rule="evenodd" d="M29.2099 66.9399C28.6699 66.9699 28.1999 67.2899 27.9599 67.7699L26.5099 70.6699C26.1399 71.3899 26.4199 72.2799 27.1399 72.6499C27.8599 73.0199 28.7398 72.7399 29.1098 72.0199C29.1098 72.0099 29.1198 72 29.1298 71.99L30.5799 69.09C30.9499 68.37 30.6799 67.48 29.9599 67.11C29.7299 66.99 29.4699 66.93 29.2099 66.95V66.9399Z" fill="#009DC1"/>
<path fill-rule="evenodd" clip-rule="evenodd" d="M25.5497 74.2899C25.0097 74.3199 24.5397 74.64 24.2997 75.12L22.8497 78.0199C22.4797 78.7399 22.7597 79.63 23.4797 80C24.1997 80.37 25.0797 80.09 25.4497 79.37C25.4497 79.36 25.4597 79.35 25.4697 79.34L26.9197 76.4399C27.2897 75.7199 27.0197 74.83 26.2997 74.46C26.0697 74.34 25.8097 74.2799 25.5497 74.2999V74.2899Z" fill="#009DC1"/>
<path fill-rule="evenodd" clip-rule="evenodd" d="M60.0596 81.6399C59.2496 81.6199 58.5796 82.2599 58.5596 83.0799C58.5596 83.3299 58.6095 83.5699 58.7195 83.7899L60.1696 86.6899C60.5196 87.4199 61.3996 87.73 62.1296 87.37C62.8596 87.02 63.1596 86.1399 62.8096 85.4099C62.8096 85.3999 62.8096 85.3899 62.7896 85.3799L61.3396 82.4799C61.0996 81.9799 60.5996 81.6599 60.0496 81.6499L60.0596 81.6399Z" fill="#009DC1"/>
<path fill-rule="evenodd" clip-rule="evenodd" d="M52.7402 66.9399C51.9302 66.9199 51.2602 67.5599 51.2402 68.3799C51.2402 68.6299 51.2903 68.8699 51.4003 69.0899L52.8502 71.99C53.2002 72.72 54.0802 73.0299 54.8102 72.6699C55.5402 72.3199 55.8402 71.4399 55.4902 70.7099C55.4902 70.6999 55.4902 70.6899 55.4702 70.6799L54.0203 67.7799C53.7803 67.2799 53.2802 66.9599 52.7302 66.9499L52.7402 66.9399Z" fill="#009DC1"/>
<path fill-rule="evenodd" clip-rule="evenodd" d="M56.4004 74.2899C55.5904 74.2699 54.9204 74.9099 54.9004 75.7299C54.9004 75.9799 54.9504 76.2199 55.0604 76.4399L56.5104 79.3399C56.8604 80.0699 57.7403 80.3799 58.4703 80.0199C59.2003 79.6699 59.5004 78.7899 59.1504 78.0599C59.1504 78.0499 59.1504 78.0399 59.1304 78.0299L57.6804 75.1299C57.4404 74.6299 56.9404 74.3099 56.3904 74.2999L56.4004 74.2899Z" fill="#009DC1"/>
<path fill-rule="evenodd" clip-rule="evenodd" d="M65.1604 66.9399C64.3504 66.9399 63.6904 67.5899 63.6904 68.3999C63.6904 68.7999 63.8504 69.18 64.1404 69.46L66.3104 71.6399C66.8804 72.2199 67.8004 72.2299 68.3804 71.6599C68.9604 71.0899 68.9705 70.16 68.4005 69.58C68.4005 69.58 68.3804 69.5599 68.3704 69.5499L66.2004 67.3799C65.9304 67.0999 65.5505 66.9299 65.1505 66.9299L65.1604 66.9399Z" fill="#009DC1"/>
<path fill-rule="evenodd" clip-rule="evenodd" d="M70.2903 72.09C69.4803 72.09 68.8203 72.7399 68.8203 73.5499C68.8203 73.9499 68.9803 74.33 69.2703 74.61L71.4403 76.7899C72.0103 77.3699 72.9303 77.3799 73.5103 76.8099C74.0903 76.2399 74.1003 75.31 73.5303 74.73C73.5303 74.73 73.5103 74.71 73.5003 74.7L71.3303 72.5299C71.0603 72.2499 70.6803 72.08 70.2803 72.08L70.2903 72.09Z" fill="#009DC1"/>
<path fill-rule="evenodd" clip-rule="evenodd" d="M75.4104 77.23C74.6004 77.23 73.9404 77.8799 73.9404 78.6899C73.9404 79.0899 74.1004 79.47 74.3904 79.75L76.5604 81.9299C77.1304 82.5099 78.0504 82.52 78.6304 81.95C79.2104 81.38 79.2205 80.45 78.6505 79.87C78.6505 79.87 78.6304 79.85 78.6204 79.84L76.4504 77.6699C76.1804 77.3899 75.8005 77.22 75.4005 77.22L75.4104 77.23Z" fill="#009DC1"/>
<path fill-rule="evenodd" clip-rule="evenodd" d="M16.7896 66.9399C16.4096 66.9499 16.0497 67.1098 15.7797 67.3898L13.6096 69.5599C13.0296 70.1299 13.0196 71.0598 13.5796 71.6398C14.1396 72.2198 15.0696 72.2399 15.6496 71.6699C15.6496 71.6699 15.6696 71.6498 15.6796 71.6398L17.8496 69.4599C18.4296 68.8999 18.4496 67.9598 17.8896 67.3798C17.5996 67.0798 17.1996 66.9199 16.7896 66.9299V66.9399Z" fill="#009DC1"/>
<path fill-rule="evenodd" clip-rule="evenodd" d="M11.6695 72.0899C11.2895 72.0999 10.9295 72.2599 10.6595 72.5399L8.48949 74.7099C7.90949 75.2799 7.89952 76.2099 8.45952 76.7899C9.01952 77.3699 9.94953 77.3899 10.5295 76.8199C10.5295 76.8199 10.5495 76.7999 10.5595 76.7899L12.7295 74.6099C13.3095 74.0499 13.3295 73.1099 12.7695 72.5299C12.4795 72.2299 12.0795 72.0699 11.6695 72.0799V72.0899Z" fill="#009DC1"/>
<path fill-rule="evenodd" clip-rule="evenodd" d="M6.5396 77.2299C6.1596 77.2399 5.79965 77.3999 5.52965 77.6799L3.35961 79.8499C2.77961 80.4199 2.76964 81.3499 3.32964 81.9299C3.88964 82.5099 4.81965 82.5299 5.39965 81.9599C5.39965 81.9599 5.41961 81.9399 5.42961 81.9299L7.5996 79.75C8.1796 79.19 8.19964 78.2499 7.63964 77.6699C7.34964 77.3699 6.9496 77.2099 6.5396 77.2199V77.2299Z" fill="#009DC1"/>
<path fill-rule="evenodd" clip-rule="evenodd" d="M62.96 37.5399V41.1299L54.1699 42.6699V37.5299H62.96V37.5399Z" fill="#009DC1"/>
<path fill-rule="evenodd" clip-rule="evenodd" d="M62.96 44.12V47.0099L54.1699 48.5499V45.6599L62.96 44.12Z" fill="#009DC1"/>
<path fill-rule="evenodd" clip-rule="evenodd" d="M62.96 50.0099V52.8999L54.1699 54.46V51.5599L62.96 50.0199V50.0099Z" fill="#009DC1"/>
<path fill-rule="evenodd" clip-rule="evenodd" d="M62.9597 55.8799V59.6C62.9597 60.41 62.2997 61.0699 61.4997 61.0699H55.6397C54.8297 61.0699 54.1797 60.41 54.1797 59.6V57.4399L62.9697 55.8899L62.9597 55.8799Z" fill="#009DC1"/>
</svg>
