<svg width="60" height="60" viewBox="0 0 60 60" fill="none" xmlns="http://www.w3.org/2000/svg">
<path fill-rule="evenodd" clip-rule="evenodd" d="M18.75 51.25C11.845 51.25 6.25 45.655 6.25 38.75C6.25 33.8475 7.6275 29.045 10.225 24.89L18.75 11.25L27.275 24.89C29.8725 29.045 31.25 33.8475 31.25 38.75C31.25 45.655 25.655 51.25 18.75 51.25Z" stroke="black" stroke-width="3.33333" stroke-linecap="round" stroke-linejoin="round"/>
<path fill-rule="evenodd" clip-rule="evenodd" d="M43.75 31.25C39.6075 31.25 36.25 27.8925 36.25 23.75C36.25 20.4775 37.1375 17.2675 38.8225 14.4625L43.75 6.25L48.6775 14.4625C50.3625 17.2675 51.25 20.4775 51.25 23.75C51.25 27.8925 47.8925 31.25 43.75 31.25Z" stroke="black" stroke-width="3.33333" stroke-linecap="round" stroke-linejoin="round"/>
</svg>
