<svg width="60" height="60" viewBox="0 0 60 60" fill="none" xmlns="http://www.w3.org/2000/svg">
<path d="M3.75 38.75C6.51 38.75 8.75 36.51 8.75 33.75C8.75 36.51 10.99 38.75 13.75 38.75C16.51 38.75 18.75 36.51 18.75 33.75M38.75 33.75C38.75 36.51 40.99 38.75 43.75 38.75C46.51 38.75 48.75 36.51 48.75 33.75C48.75 36.51 50.99 38.75 53.75 38.75M3.75 51.25C6.51 51.25 8.75 49.01 8.75 46.25C8.75 49.01 10.99 51.25 13.75 51.25C16.51 51.25 18.75 49.01 18.75 46.25C18.75 49.01 20.99 51.25 23.75 51.25C26.51 51.25 28.75 49.01 28.75 46.25C28.75 49.01 30.99 51.25 33.75 51.25C36.51 51.25 38.75 49.01 38.75 46.25C38.75 49.01 40.99 51.25 43.75 51.25C46.51 51.25 48.75 49.01 48.75 46.25C48.75 49.01 50.99 51.25 53.75 51.25M28.75 23.75V33.75M28.75 33.75C27.37 33.75 26.25 34.87 26.25 36.25C26.25 37.63 27.37 38.75 28.75 38.75C30.13 38.75 31.25 37.63 31.25 36.25C31.25 34.87 30.13 33.75 28.75 33.75ZM3.75 23C6.51 23 8.75 20.76 8.75 18C8.75 20.76 10.99 23 13.75 23C16.51 23 18.75 20.76 18.75 18M38.75 18C38.75 20.76 40.99 23 43.75 23C46.51 23 48.75 20.76 48.75 18C48.75 20.76 50.99 23 53.75 23M28.75 18C27.37 18 26.25 19.12 26.25 20.5C26.25 21.88 27.37 23 28.75 23C30.13 23 31.25 21.88 31.25 20.5C31.25 19.12 30.13 18 28.75 18Z" stroke="black" stroke-width="3.33333" stroke-linecap="round" stroke-linejoin="round"/>
</svg>
