<svg width="52" height="35" viewBox="0 0 52 35" fill="none" xmlns="http://www.w3.org/2000/svg">
<path d="M1 21.75C3.76 21.75 6 19.51 6 16.75C6 19.51 8.24 21.75 11 21.75C13.76 21.75 16 19.51 16 16.75M36 16.75C36 19.51 38.24 21.75 41 21.75C43.76 21.75 46 19.51 46 16.75C46 19.51 48.24 21.75 51 21.75M1 34.25C3.76 34.25 6 32.01 6 29.25C6 32.01 8.24 34.25 11 34.25C13.76 34.25 16 32.01 16 29.25C16 32.01 18.24 34.25 21 34.25C23.76 34.25 26 32.01 26 29.25C26 32.01 28.24 34.25 31 34.25C33.76 34.25 36 32.01 36 29.25C36 32.01 38.24 34.25 41 34.25C43.76 34.25 46 32.01 46 29.25C46 32.01 48.24 34.25 51 34.25M26 6.75V16.75M26 16.75C24.62 16.75 23.5 17.87 23.5 19.25C23.5 20.63 24.62 21.75 26 21.75C27.38 21.75 28.5 20.63 28.5 19.25C28.5 17.87 27.38 16.75 26 16.75ZM1 6C3.76 6 6 3.76 6 1C6 3.76 8.24 6 11 6C13.76 6 16 3.76 16 1M36 1C36 3.76 38.24 6 41 6C43.76 6 46 3.76 46 1C46 3.76 48.24 6 51 6M26 1C24.62 1 23.5 2.12 23.5 3.5C23.5 4.88 24.62 6 26 6C27.38 6 28.5 4.88 28.5 3.5C28.5 2.12 27.38 1 26 1Z" stroke="#009DC1" stroke-width="1.5" stroke-linecap="round" stroke-linejoin="round"/>
</svg>
