<svg width="40" height="40" viewBox="0 0 40 40" fill="none" xmlns="http://www.w3.org/2000/svg">
<path fill-rule="evenodd" clip-rule="evenodd" d="M11.5556 39C5.72467 39 1 34.2753 1 28.4444C1 24.3046 2.16322 20.2491 4.35667 16.7404L11.5556 5.22222L18.7544 16.7404C20.9479 20.2491 22.1111 24.3046 22.1111 28.4444C22.1111 34.2753 17.3864 39 11.5556 39Z" stroke="#009DC1" stroke-width="1.5" stroke-linecap="round" stroke-linejoin="round"/>
<path fill-rule="evenodd" clip-rule="evenodd" d="M32.6667 22.1111C29.1686 22.1111 26.3333 19.2759 26.3333 15.7778C26.3333 13.0143 27.0828 10.3037 28.5057 7.935L32.6667 1L36.8277 7.935C38.2506 10.3037 39 13.0143 39 15.7778C39 19.2759 36.1648 22.1111 32.6667 22.1111Z" stroke="#009DC1" stroke-width="1.5" stroke-linecap="round" stroke-linejoin="round"/>
</svg>
